<svg id="svg" version="1.1" xmlns="http://www.w3.org/2000/svg" xmlns:xlink="http://www.w3.org/1999/xlink" width="400" height="409.04761904761904" viewBox="0, 0, 400,409.04761904761904"><g id="svgg"><path id="path0" d="M196.600 1.853 C 195.720 1.945,194.640 2.183,194.200 2.380 C 193.760 2.577,192.537 3.049,191.481 3.430 C 190.426 3.811,188.755 4.635,187.768 5.261 C 186.780 5.888,185.834 6.400,185.664 6.400 C 185.495 6.400,184.482 6.954,183.414 7.632 C 182.346 8.309,178.935 10.232,175.836 11.905 C 172.736 13.577,170.110 15.074,170.000 15.231 C 169.890 15.387,168.957 15.940,167.928 16.458 C 166.898 16.976,164.288 18.390,162.128 19.600 C 159.967 20.810,157.930 21.946,157.600 22.124 C 156.182 22.892,151.343 25.586,147.137 27.951 C 144.642 29.354,141.880 30.903,141.000 31.394 C 140.120 31.885,138.680 32.694,137.800 33.194 C 136.343 34.020,133.235 35.753,127.387 39.000 C 126.198 39.660,123.824 40.993,122.113 41.962 C 120.401 42.930,118.370 44.063,117.600 44.478 C 116.830 44.894,115.120 45.845,113.800 46.592 C 112.480 47.339,110.770 48.292,110.000 48.709 C 105.408 51.195,102.881 52.620,102.000 53.220 C 101.450 53.594,99.470 54.710,97.600 55.700 C 94.470 57.357,88.143 60.859,85.361 62.474 C 82.339 64.229,75.742 67.912,73.878 68.885 C 72.735 69.481,71.617 70.124,71.394 70.312 C 71.171 70.501,69.101 71.681,66.794 72.936 C 64.487 74.190,61.880 75.633,61.000 76.144 C 59.585 76.964,51.530 81.481,46.338 84.365 C 37.881 89.064,33.621 91.408,32.600 91.927 C 31.940 92.263,31.306 92.676,31.191 92.845 C 31.076 93.014,30.086 93.570,28.991 94.081 C 26.280 95.346,22.687 98.071,21.325 99.894 C 20.706 100.723,19.991 101.622,19.736 101.893 C 19.481 102.164,18.955 103.244,18.567 104.293 C 18.179 105.342,17.668 106.453,17.431 106.761 C 16.831 107.543,16.598 298.279,17.194 300.703 C 19.151 308.657,20.669 309.910,44.200 323.007 C 52.854 327.823,65.415 334.852,72.400 338.786 C 89.322 348.318,110.949 360.428,114.400 362.303 C 115.830 363.080,117.180 363.849,117.400 364.012 C 117.620 364.175,119.420 365.205,121.400 366.302 C 123.380 367.398,128.780 370.417,133.400 373.010 C 145.101 379.578,153.426 384.239,161.600 388.800 C 165.450 390.949,170.490 393.776,172.800 395.083 C 200.111 410.537,199.862 410.509,218.404 400.157 C 223.792 397.149,228.920 394.293,229.800 393.811 C 230.680 393.330,234.370 391.260,238.000 389.213 C 246.328 384.515,261.716 375.885,274.400 368.798 C 279.790 365.787,286.540 362.002,289.400 360.388 C 292.260 358.773,297.390 355.897,300.800 353.995 C 304.210 352.094,309.250 349.273,312.000 347.728 C 318.610 344.013,319.843 343.321,327.600 338.984 C 331.230 336.955,336.180 334.172,338.600 332.800 C 341.020 331.428,345.970 328.648,349.600 326.621 C 373.007 313.553,375.177 312.278,377.418 310.281 C 379.898 308.070,381.970 304.791,383.056 301.354 C 384.193 297.757,384.221 111.280,383.085 107.284 C 381.646 102.222,376.826 96.834,371.200 93.999 C 370.210 93.501,369.310 92.982,369.200 92.846 C 368.980 92.576,366.218 91.065,362.800 89.346 C 361.590 88.738,360.510 88.124,360.400 87.981 C 360.290 87.839,358.130 86.606,355.600 85.241 C 353.070 83.876,350.100 82.236,349.000 81.597 C 347.900 80.957,344.930 79.315,342.400 77.948 C 339.870 76.580,337.710 75.358,337.600 75.231 C 337.490 75.104,336.590 74.580,335.600 74.068 C 334.610 73.555,332.788 72.565,331.550 71.868 C 330.313 71.170,327.163 69.439,324.550 68.021 C 321.938 66.602,319.620 65.290,319.400 65.105 C 319.180 64.920,318.235 64.370,317.300 63.884 C 315.526 62.962,308.192 58.896,304.400 56.734 C 301.935 55.329,299.800 54.141,293.165 50.484 C 290.654 49.100,287.520 47.344,286.200 46.582 C 284.880 45.821,282.810 44.656,281.600 43.995 C 280.390 43.334,277.506 41.760,275.191 40.497 C 272.876 39.234,270.536 37.908,269.991 37.551 C 269.446 37.195,267.110 35.870,264.800 34.608 C 262.490 33.346,259.790 31.855,258.800 31.296 C 257.810 30.737,256.010 29.749,254.800 29.101 C 253.590 28.452,252.510 27.799,252.400 27.650 C 252.290 27.500,251.409 27.029,250.441 26.602 C 249.474 26.175,248.484 25.639,248.241 25.410 C 247.999 25.182,246.810 24.495,245.600 23.885 C 244.390 23.274,242.770 22.398,242.000 21.939 C 241.230 21.480,238.260 19.831,235.400 18.275 C 232.540 16.718,230.110 15.345,230.000 15.223 C 229.890 15.100,228.810 14.489,227.600 13.866 C 226.390 13.242,224.230 12.063,222.800 11.247 C 218.433 8.756,215.459 7.107,214.200 6.480 C 213.540 6.152,212.706 5.630,212.346 5.322 C 209.737 3.080,201.714 1.313,196.600 1.853 M216.200 69.226 C 218.400 69.482,220.560 69.831,221.000 70.000 C 221.440 70.169,223.240 70.515,225.000 70.770 C 228.710 71.306,231.859 71.958,233.000 72.426 C 233.440 72.606,235.240 73.117,237.000 73.560 C 240.721 74.498,247.888 76.881,250.200 77.950 C 251.080 78.357,252.475 78.909,253.300 79.176 C 254.125 79.443,254.800 79.828,254.800 80.031 C 254.800 80.234,255.099 80.400,255.465 80.400 C 257.071 80.400,273.103 89.037,274.402 90.603 C 274.675 90.931,275.071 91.200,275.284 91.200 C 275.870 91.200,281.778 95.473,286.760 99.501 C 292.343 104.014,301.786 113.481,305.400 118.189 C 306.060 119.049,307.140 120.420,307.800 121.235 C 308.460 122.051,309.720 123.749,310.600 125.008 C 311.480 126.268,312.404 127.512,312.654 127.774 C 312.903 128.036,313.486 128.992,313.948 129.898 C 314.410 130.804,314.960 131.652,315.169 131.781 C 315.705 132.112,316.800 134.393,316.800 135.178 C 316.800 135.598,315.182 136.734,312.300 138.338 C 309.825 139.715,306.540 141.571,305.000 142.461 C 303.460 143.351,301.480 144.486,300.600 144.983 C 296.916 147.063,287.142 152.649,283.800 154.585 C 279.574 157.033,269.555 162.741,263.621 166.081 C 261.322 167.375,259.216 168.621,258.940 168.850 C 258.122 169.529,257.061 168.908,256.070 167.169 C 255.558 166.271,254.814 165.146,254.416 164.668 C 254.018 164.191,252.565 162.450,251.188 160.800 C 248.521 157.605,244.052 153.164,242.400 152.065 C 241.850 151.699,240.230 150.528,238.800 149.462 C 237.370 148.396,235.480 147.157,234.600 146.708 C 233.720 146.260,232.910 145.777,232.800 145.636 C 232.471 145.214,224.696 141.682,223.400 141.366 C 222.740 141.205,221.840 140.856,221.400 140.590 C 220.606 140.111,217.215 139.259,212.600 138.380 C 211.280 138.129,209.480 137.768,208.600 137.579 C 205.325 136.875,193.851 137.140,189.477 138.022 C 183.412 139.244,179.849 140.088,179.400 140.408 C 179.180 140.566,178.010 141.017,176.800 141.411 C 174.853 142.044,169.928 144.341,166.065 146.416 C 160.922 149.179,152.267 156.633,148.112 161.879 C 147.624 162.496,146.818 163.540,146.321 164.200 C 145.824 164.860,145.182 165.644,144.895 165.942 C 144.608 166.240,144.009 167.140,143.563 167.942 C 143.118 168.744,142.131 170.480,141.370 171.800 C 140.609 173.120,139.875 174.470,139.738 174.800 C 139.601 175.130,138.996 176.480,138.392 177.800 C 137.090 180.645,135.199 186.538,134.156 191.000 C 132.599 197.657,133.274 217.537,135.201 221.800 C 135.400 222.240,135.933 223.860,136.387 225.400 C 136.840 226.940,137.465 228.740,137.775 229.400 C 139.710 233.519,140.400 235.134,140.400 235.547 C 140.400 237.384,147.701 247.366,152.516 252.112 C 182.996 282.154,233.430 276.965,256.632 241.400 C 258.569 238.431,258.769 238.288,259.918 239.041 C 260.428 239.375,266.640 242.807,273.722 246.668 C 280.805 250.530,288.400 254.698,290.600 255.932 C 292.800 257.166,295.606 258.721,296.836 259.388 C 310.839 266.982,318.000 271.006,318.000 271.281 C 318.000 272.461,309.082 285.395,304.421 290.975 C 250.784 355.192,152.216 356.148,97.624 292.980 C 92.250 286.761,84.848 276.409,82.588 271.949 C 82.211 271.207,81.626 270.284,81.287 269.897 C 80.255 268.720,75.983 260.380,75.398 258.400 C 75.235 257.850,74.948 257.206,74.759 256.969 C 73.773 255.729,69.122 241.680,68.214 237.200 C 67.835 235.330,67.380 233.440,67.204 233.000 C 66.727 231.814,66.099 228.289,65.599 224.000 C 65.355 221.910,64.951 219.300,64.700 218.200 C 64.061 215.403,64.070 193.816,64.711 190.400 C 65.168 187.961,66.292 180.453,66.701 177.100 C 66.802 176.275,67.045 175.600,67.242 175.600 C 67.439 175.600,67.600 175.153,67.600 174.606 C 67.600 172.649,70.204 163.376,72.376 157.600 C 72.996 155.950,73.719 153.925,73.983 153.100 C 74.246 152.275,74.609 151.600,74.788 151.600 C 74.967 151.600,75.233 151.105,75.378 150.500 C 75.623 149.487,78.751 142.585,79.593 141.200 C 79.794 140.870,80.347 139.880,80.823 139.000 C 81.298 138.120,82.432 136.169,83.343 134.665 C 84.254 133.160,85.396 131.270,85.880 130.465 C 86.365 129.659,87.042 128.640,87.387 128.200 C 87.731 127.760,89.259 125.690,90.783 123.600 C 92.306 121.510,94.093 119.170,94.752 118.400 C 95.412 117.630,96.547 116.282,97.276 115.405 C 98.004 114.528,100.670 111.688,103.200 109.094 C 107.308 104.882,109.454 102.917,113.925 99.278 C 114.654 98.685,115.515 97.956,115.840 97.657 C 117.431 96.191,124.246 91.463,128.736 88.710 C 132.475 86.418,133.328 85.928,136.758 84.112 C 141.433 81.637,141.225 81.741,143.000 80.994 C 143.880 80.624,145.332 79.979,146.226 79.560 C 147.121 79.142,147.971 78.800,148.116 78.800 C 148.261 78.800,149.509 78.290,150.890 77.666 C 152.270 77.042,154.300 76.294,155.400 76.004 C 156.500 75.714,157.587 75.333,157.816 75.158 C 158.344 74.756,165.832 72.800,166.844 72.800 C 167.260 72.800,167.600 72.644,167.600 72.453 C 167.600 72.262,168.275 71.994,169.100 71.859 C 169.925 71.723,172.580 71.238,175.000 70.782 C 187.356 68.451,204.112 67.818,216.200 69.226 " stroke="none" fill="#4352ab" fill-rule="evenodd"></path><path id="path1" d="M0.000 204.400 L 0.000 408.800 200.000 408.800 L 400.000 408.800 400.000 204.400 L 400.000 0.000 200.000 0.000 L 0.000 0.000 0.000 204.400 M206.800 2.083 C 208.230 2.529,210.210 3.390,211.200 3.997 C 212.190 4.603,214.620 5.962,216.600 7.017 C 218.580 8.071,221.820 9.864,223.800 11.002 C 225.780 12.139,230.640 14.835,234.600 16.991 C 238.560 19.148,242.610 21.403,243.600 22.002 C 244.590 22.600,247.650 24.312,250.400 25.806 C 253.150 27.300,256.030 28.921,256.800 29.408 C 257.570 29.896,260.450 31.512,263.200 32.999 C 265.950 34.487,270.000 36.735,272.200 37.996 C 276.190 40.283,286.229 45.862,290.400 48.110 C 291.610 48.762,295.210 50.778,298.400 52.590 C 306.701 57.306,315.203 62.040,316.600 62.725 C 317.260 63.048,318.790 63.899,320.000 64.614 C 321.210 65.329,324.810 67.349,328.000 69.102 C 331.190 70.854,336.770 73.961,340.400 76.005 C 344.030 78.050,350.150 81.468,354.000 83.601 C 357.850 85.735,361.810 87.931,362.800 88.482 C 363.790 89.033,366.040 90.258,367.800 91.205 C 376.750 96.017,380.870 100.012,383.105 106.044 L 384.200 109.000 384.200 204.400 L 384.200 299.800 382.879 302.964 C 380.159 309.476,378.097 311.266,365.200 318.307 C 363.770 319.088,359.720 321.351,356.200 323.337 C 352.680 325.322,348.990 327.382,348.000 327.915 C 347.010 328.447,345.030 329.559,343.600 330.386 C 342.170 331.214,340.190 332.340,339.200 332.890 C 338.210 333.439,335.240 335.107,332.600 336.596 C 329.960 338.085,327.080 339.695,326.200 340.174 C 322.064 342.425,315.056 346.341,311.800 348.221 C 308.437 350.162,302.687 353.395,299.000 355.418 C 298.120 355.900,295.510 357.371,293.200 358.685 C 290.890 360.000,286.570 362.427,283.600 364.078 C 280.630 365.730,277.300 367.587,276.200 368.205 C 265.878 374.004,257.117 378.896,253.800 380.710 C 251.600 381.913,249.620 383.040,249.400 383.212 C 248.907 383.600,239.624 388.800,239.425 388.800 C 239.346 388.800,238.138 389.489,236.741 390.332 C 235.343 391.175,232.580 392.727,230.600 393.782 C 228.620 394.837,226.010 396.285,224.800 397.000 C 223.590 397.715,219.900 399.782,216.600 401.595 C 213.300 403.408,210.420 405.029,210.200 405.197 C 205.359 408.895,195.294 408.157,187.000 403.495 C 185.020 402.382,182.410 400.926,181.200 400.260 C 179.990 399.594,177.290 398.067,175.200 396.867 C 173.110 395.667,169.060 393.387,166.200 391.800 C 163.340 390.212,160.100 388.382,159.000 387.732 C 157.900 387.082,154.930 385.423,152.400 384.045 C 149.870 382.668,146.360 380.731,144.600 379.742 C 134.989 374.339,127.481 370.092,125.000 368.656 C 123.460 367.764,119.860 365.753,117.000 364.186 C 114.140 362.618,108.830 359.665,105.200 357.621 C 101.570 355.578,97.880 353.505,97.000 353.015 C 93.897 351.285,85.560 346.595,84.884 346.198 C 84.508 345.978,82.760 345.006,81.000 344.039 C 79.240 343.073,76.360 341.433,74.600 340.396 C 72.840 339.359,69.444 337.450,67.054 336.155 C 64.664 334.860,62.054 333.425,61.254 332.966 C 60.454 332.507,58.361 331.351,56.603 330.397 C 54.844 329.442,51.446 327.523,49.051 326.131 C 46.656 324.739,44.653 323.600,44.599 323.600 C 44.546 323.600,42.724 322.582,40.551 321.338 C 36.470 319.002,35.352 318.378,30.600 315.783 C 21.988 311.078,18.371 307.043,16.614 300.177 C 16.060 298.017,16.005 287.532,16.097 203.177 L 16.200 108.600 17.111 106.000 C 19.060 100.433,22.647 96.679,29.600 92.928 C 32.382 91.427,35.013 89.930,38.733 87.733 C 40.346 86.780,41.760 86.000,41.875 86.000 C 41.991 86.000,43.551 85.164,45.342 84.143 C 51.966 80.367,55.030 78.637,56.200 78.013 C 56.860 77.662,59.200 76.367,61.400 75.138 C 63.600 73.908,69.360 70.698,74.200 68.006 C 79.040 65.313,84.620 62.171,86.600 61.024 C 90.161 58.962,95.217 56.130,102.200 52.287 C 104.180 51.197,107.960 49.088,110.600 47.600 C 119.001 42.866,125.750 39.087,127.405 38.192 C 128.288 37.714,130.448 36.508,132.205 35.511 C 137.146 32.708,137.678 32.411,153.000 23.906 C 160.920 19.510,169.380 14.788,171.800 13.413 C 192.095 1.878,192.447 1.716,198.200 1.242 C 202.377 0.898,203.281 0.986,206.800 2.083 M189.800 69.441 C 179.238 70.491,170.798 72.004,163.240 74.202 C 104.448 91.298,65.150 143.152,65.024 203.800 C 65.000 215.530,65.149 217.501,66.845 227.800 C 75.879 282.666,120.882 327.610,176.564 337.374 C 207.154 342.739,241.926 336.844,266.600 322.111 C 284.092 311.666,296.487 300.890,307.445 286.600 C 311.252 281.636,317.600 272.126,317.600 271.388 C 317.600 271.316,315.665 270.190,313.300 268.884 C 310.935 267.579,308.364 266.151,307.586 265.711 C 306.809 265.271,298.439 260.677,288.986 255.501 C 279.534 250.326,269.010 244.542,265.600 242.647 C 258.109 238.485,258.941 238.498,256.277 242.500 C 224.195 290.705,148.948 277.423,134.396 220.986 C 119.081 161.585,186.453 113.762,237.548 147.765 C 245.525 153.074,256.223 164.068,257.688 168.463 C 257.817 168.852,278.143 157.635,286.800 152.397 C 287.790 151.798,294.855 147.758,302.500 143.419 C 310.145 139.079,316.400 135.403,316.400 135.248 C 316.400 135.094,315.545 133.625,314.500 131.984 C 292.792 97.900,258.336 75.910,217.600 70.143 C 213.595 69.576,193.533 69.069,189.800 69.441 " stroke="none" fill="#f7f7f7" fill-rule="evenodd"></path><path id="path2" d="M202.000 1.164 C 202.330 1.345,203.410 1.600,204.400 1.732 C 205.479 1.875,205.880 1.840,205.400 1.645 C 204.271 1.186,201.264 0.760,202.000 1.164 M197.100 1.489 C 197.815 1.578,198.985 1.578,199.700 1.489 C 200.415 1.401,199.830 1.328,198.400 1.328 C 196.970 1.328,196.385 1.401,197.100 1.489 M189.100 3.627 C 188.275 4.063,187.600 4.508,187.600 4.618 C 187.600 4.796,190.759 3.319,191.167 2.951 C 191.627 2.534,190.425 2.928,189.100 3.627 M185.100 5.829 C 183.605 6.640,183.696 6.978,185.200 6.200 C 185.860 5.859,186.400 5.494,186.400 5.390 C 186.400 5.132,186.357 5.147,185.100 5.829 M214.000 5.779 C 214.000 5.889,214.540 6.259,215.200 6.600 C 215.860 6.941,216.400 7.131,216.400 7.021 C 216.400 6.911,215.860 6.541,215.200 6.200 C 214.540 5.859,214.000 5.669,214.000 5.779 M218.400 8.184 C 218.400 8.294,219.120 8.751,220.000 9.200 C 220.880 9.649,221.600 9.926,221.600 9.816 C 221.600 9.706,220.880 9.249,220.000 8.800 C 219.120 8.351,218.400 8.074,218.400 8.184 M175.500 11.227 C 174.675 11.663,174.000 12.108,174.000 12.218 C 174.000 12.327,174.720 12.049,175.600 11.600 C 176.480 11.151,177.200 10.697,177.200 10.592 C 177.200 10.330,177.197 10.331,175.500 11.227 M227.600 13.387 C 227.600 13.497,228.500 14.043,229.600 14.600 C 230.700 15.157,231.600 15.523,231.600 15.413 C 231.600 15.303,230.700 14.757,229.600 14.200 C 228.500 13.643,227.600 13.277,227.600 13.387 M232.000 15.779 C 232.000 15.889,232.540 16.259,233.200 16.600 C 233.860 16.941,234.400 17.131,234.400 17.021 C 234.400 16.911,233.860 16.541,233.200 16.200 C 232.540 15.859,232.000 15.669,232.000 15.779 M162.700 18.427 C 161.875 18.863,161.200 19.308,161.200 19.418 C 161.200 19.527,161.920 19.249,162.800 18.800 C 163.680 18.351,164.400 17.897,164.400 17.792 C 164.400 17.530,164.397 17.531,162.700 18.427 M235.600 17.784 C 235.600 17.894,236.320 18.351,237.200 18.800 C 238.080 19.249,238.800 19.526,238.800 19.416 C 238.800 19.306,238.080 18.849,237.200 18.400 C 236.320 17.951,235.600 17.674,235.600 17.784 M158.700 20.629 C 157.205 21.440,157.296 21.778,158.800 21.000 C 159.460 20.659,160.000 20.294,160.000 20.190 C 160.000 19.932,159.957 19.947,158.700 20.629 M240.200 20.290 C 240.420 20.498,241.500 21.159,242.600 21.759 C 243.700 22.359,244.240 22.555,243.800 22.194 C 242.905 21.459,239.573 19.697,240.200 20.290 M155.900 22.229 C 154.405 23.040,154.496 23.378,156.000 22.600 C 156.660 22.259,157.200 21.894,157.200 21.790 C 157.200 21.532,157.157 21.547,155.900 22.229 M152.300 24.226 C 151.255 24.770,150.400 25.305,150.400 25.414 C 150.400 25.524,151.300 25.157,152.400 24.600 C 153.500 24.043,154.400 23.500,154.400 23.393 C 154.400 23.129,154.436 23.114,152.300 24.226 M245.800 23.484 C 246.020 23.709,247.460 24.575,249.000 25.409 C 250.540 26.243,251.620 26.741,251.400 26.516 C 251.180 26.291,249.740 25.425,248.200 24.591 C 246.660 23.757,245.580 23.259,245.800 23.484 M148.700 26.229 C 147.205 27.040,147.296 27.378,148.800 26.600 C 149.460 26.259,150.000 25.894,150.000 25.790 C 150.000 25.532,149.957 25.547,148.700 26.229 M252.800 27.363 C 252.800 27.460,253.790 28.076,255.000 28.731 C 256.210 29.387,257.097 29.757,256.971 29.554 C 256.717 29.142,252.800 27.085,252.800 27.363 M139.700 31.242 C 138.545 31.915,137.600 32.558,137.600 32.671 C 137.600 32.893,141.157 30.915,141.780 30.347 C 142.458 29.728,141.842 29.993,139.700 31.242 M259.200 30.979 C 259.200 31.089,259.740 31.459,260.400 31.800 C 261.060 32.141,261.600 32.331,261.600 32.221 C 261.600 32.111,261.060 31.741,260.400 31.400 C 259.740 31.059,259.200 30.869,259.200 30.979 M135.497 33.566 C 133.898 34.591,133.603 35.006,135.000 34.266 C 136.676 33.377,137.471 32.808,137.000 32.835 C 136.780 32.848,136.104 33.177,135.497 33.566 M262.800 32.979 C 262.800 33.089,263.340 33.459,264.000 33.800 C 264.660 34.141,265.200 34.331,265.200 34.221 C 265.200 34.111,264.660 33.741,264.000 33.400 C 263.340 33.059,262.800 32.869,262.800 32.979 M131.500 35.829 C 130.005 36.640,130.096 36.978,131.600 36.200 C 132.260 35.859,132.800 35.494,132.800 35.390 C 132.800 35.132,132.757 35.147,131.500 35.829 M267.400 35.475 C 267.620 35.698,268.880 36.474,270.200 37.200 C 271.520 37.926,272.420 38.333,272.200 38.104 C 271.980 37.875,270.720 37.099,269.400 36.379 C 268.080 35.659,267.180 35.252,267.400 35.475 M125.896 38.950 C 123.606 40.358,123.537 40.691,125.800 39.413 C 128.102 38.113,128.266 37.995,127.767 38.012 C 127.565 38.019,126.723 38.441,125.896 38.950 M276.400 40.584 C 276.400 40.694,277.120 41.151,278.000 41.600 C 278.880 42.049,279.600 42.326,279.600 42.216 C 279.600 42.106,278.880 41.649,278.000 41.200 C 277.120 40.751,276.400 40.474,276.400 40.584 M281.600 43.379 C 281.600 43.489,282.140 43.859,282.800 44.200 C 283.460 44.541,284.000 44.731,284.000 44.621 C 284.000 44.511,283.460 44.141,282.800 43.800 C 282.140 43.459,281.600 43.269,281.600 43.379 M112.900 46.229 C 111.525 47.009,110.400 47.739,110.400 47.853 C 110.400 48.074,114.748 45.706,115.380 45.140 C 116.084 44.510,115.413 44.805,112.900 46.229 M285.800 45.796 C 286.694 46.539,289.228 47.909,288.600 47.310 C 288.380 47.100,287.480 46.524,286.600 46.030 C 285.720 45.535,285.360 45.430,285.800 45.796 M108.700 48.629 C 107.205 49.440,107.296 49.778,108.800 49.000 C 109.460 48.659,110.000 48.294,110.000 48.190 C 110.000 47.932,109.957 47.947,108.700 48.629 M290.400 48.422 C 291.433 49.126,294.000 50.425,294.000 50.242 C 294.000 50.033,290.405 47.997,290.050 48.006 C 289.912 48.009,290.070 48.196,290.400 48.422 M104.700 50.827 C 103.875 51.263,103.200 51.708,103.200 51.818 C 103.200 51.927,103.920 51.649,104.800 51.200 C 105.680 50.751,106.400 50.297,106.400 50.192 C 106.400 49.930,106.397 49.931,104.700 50.827 M294.400 50.584 C 294.400 50.694,295.120 51.151,296.000 51.600 C 296.880 52.049,297.600 52.326,297.600 52.216 C 297.600 52.106,296.880 51.649,296.000 51.200 C 295.120 50.751,294.400 50.474,294.400 50.584 M99.300 53.829 C 97.925 54.609,96.800 55.339,96.800 55.453 C 96.800 55.674,101.148 53.306,101.780 52.740 C 102.484 52.110,101.813 52.405,99.300 53.829 M298.000 52.579 C 298.000 52.689,298.540 53.059,299.200 53.400 C 299.860 53.741,300.400 53.931,300.400 53.821 C 300.400 53.711,299.860 53.341,299.200 53.000 C 298.540 52.659,298.000 52.469,298.000 52.579 M95.100 56.229 C 93.605 57.040,93.696 57.378,95.200 56.600 C 95.860 56.259,96.400 55.894,96.400 55.790 C 96.400 55.532,96.357 55.547,95.100 56.229 M304.400 56.179 C 304.400 56.289,304.940 56.659,305.600 57.000 C 306.260 57.341,306.800 57.531,306.800 57.421 C 306.800 57.311,306.260 56.941,305.600 56.600 C 304.940 56.259,304.400 56.069,304.400 56.179 M89.900 59.077 C 88.856 59.658,88.063 60.197,88.140 60.273 C 88.300 60.434,92.000 58.414,92.000 58.166 C 92.000 57.915,91.943 57.940,89.900 59.077 M308.000 58.179 C 308.000 58.289,308.540 58.659,309.200 59.000 C 309.860 59.341,310.400 59.531,310.400 59.421 C 310.400 59.311,309.860 58.941,309.200 58.600 C 308.540 58.259,308.000 58.069,308.000 58.179 M86.100 61.246 C 84.737 62.119,84.295 62.706,85.500 62.043 C 86.418 61.539,87.856 60.427,87.600 60.419 C 87.490 60.416,86.815 60.788,86.100 61.246 M316.433 62.949 C 316.845 63.317,319.200 64.400,319.200 64.221 C 319.200 63.990,316.982 62.800,316.553 62.800 C 316.396 62.800,316.342 62.867,316.433 62.949 M81.500 63.829 C 80.005 64.640,80.096 64.978,81.600 64.200 C 82.260 63.859,82.800 63.494,82.800 63.390 C 82.800 63.132,82.757 63.147,81.500 63.829 M325.200 67.787 C 325.200 67.897,326.100 68.443,327.200 69.000 C 328.300 69.557,329.200 69.923,329.200 69.813 C 329.200 69.703,328.300 69.157,327.200 68.600 C 326.100 68.043,325.200 67.677,325.200 67.787 M196.100 69.098 C 198.245 69.170,201.755 69.170,203.900 69.098 C 206.045 69.026,204.290 68.967,200.000 68.967 C 195.710 68.967,193.955 69.026,196.100 69.098 M188.505 69.487 C 189.114 69.579,190.014 69.577,190.505 69.482 C 190.997 69.387,190.500 69.311,189.400 69.314 C 188.300 69.317,187.897 69.395,188.505 69.487 M210.105 69.487 C 210.714 69.579,211.614 69.577,212.105 69.482 C 212.597 69.387,212.100 69.311,211.000 69.314 C 209.900 69.317,209.497 69.395,210.105 69.487 M330.400 70.535 C 330.400 70.806,333.274 72.459,333.446 72.287 C 333.526 72.208,332.873 71.739,331.996 71.246 C 331.118 70.752,330.400 70.433,330.400 70.535 M224.000 71.200 C 224.550 71.376,225.450 71.517,226.000 71.513 C 226.898 71.506,226.878 71.474,225.800 71.200 C 224.108 70.769,222.656 70.769,224.000 71.200 M63.500 73.829 C 62.005 74.640,62.096 74.978,63.600 74.200 C 64.260 73.859,64.800 73.494,64.800 73.390 C 64.800 73.132,64.757 73.147,63.500 73.829 M164.200 73.600 C 163.696 73.817,163.622 73.944,164.000 73.944 C 164.330 73.944,164.960 73.789,165.400 73.600 C 165.904 73.383,165.978 73.256,165.600 73.256 C 165.270 73.256,164.640 73.411,164.200 73.600 M336.000 73.779 C 336.000 73.889,336.540 74.259,337.200 74.600 C 337.860 74.941,338.400 75.131,338.400 75.021 C 338.400 74.911,337.860 74.541,337.200 74.200 C 336.540 73.859,336.000 73.669,336.000 73.779 M59.496 76.150 C 57.575 77.331,57.038 77.889,58.600 77.081 C 59.854 76.433,61.545 75.226,61.200 75.225 C 61.090 75.225,60.323 75.641,59.496 76.150 M339.600 75.784 C 339.600 75.894,340.320 76.351,341.200 76.800 C 342.080 77.249,342.800 77.526,342.800 77.416 C 342.800 77.306,342.080 76.849,341.200 76.400 C 340.320 75.951,339.600 75.674,339.600 75.784 M250.000 78.566 C 250.550 78.860,251.450 79.212,252.000 79.349 C 252.550 79.486,252.280 79.252,251.400 78.829 C 249.590 77.958,248.468 77.748,250.000 78.566 M344.000 78.179 C 344.000 78.289,344.540 78.659,345.200 79.000 C 345.860 79.341,346.400 79.531,346.400 79.421 C 346.400 79.311,345.860 78.941,345.200 78.600 C 344.540 78.259,344.000 78.069,344.000 78.179 M49.900 81.429 C 48.405 82.240,48.496 82.578,50.000 81.800 C 50.660 81.459,51.200 81.094,51.200 80.990 C 51.200 80.732,51.157 80.747,49.900 81.429 M138.300 83.627 C 137.475 84.063,136.800 84.508,136.800 84.618 C 136.800 84.727,137.520 84.449,138.400 84.000 C 139.280 83.551,140.000 83.097,140.000 82.992 C 140.000 82.730,139.997 82.731,138.300 83.627 M353.200 83.384 C 353.200 83.494,353.920 83.951,354.800 84.400 C 355.680 84.849,356.400 85.126,356.400 85.016 C 356.400 84.906,355.680 84.449,354.800 84.000 C 353.920 83.551,353.200 83.274,353.200 83.384 M45.100 84.229 C 43.605 85.040,43.696 85.378,45.200 84.600 C 45.860 84.259,46.400 83.894,46.400 83.790 C 46.400 83.532,46.357 83.547,45.100 84.229 M133.500 86.229 C 132.005 87.040,132.096 87.378,133.600 86.600 C 134.260 86.259,134.800 85.894,134.800 85.790 C 134.800 85.532,134.757 85.547,133.500 86.229 M265.600 85.779 C 265.600 85.889,266.140 86.259,266.800 86.600 C 267.460 86.941,268.000 87.131,268.000 87.021 C 268.000 86.911,267.460 86.541,266.800 86.200 C 266.140 85.859,265.600 85.669,265.600 85.779 M357.600 85.779 C 357.600 85.889,358.140 86.259,358.800 86.600 C 359.460 86.941,360.000 87.131,360.000 87.021 C 360.000 86.911,359.460 86.541,358.800 86.200 C 358.140 85.859,357.600 85.669,357.600 85.779 M40.297 86.766 C 38.698 87.791,38.403 88.206,39.800 87.466 C 41.476 86.577,42.271 86.008,41.800 86.035 C 41.580 86.048,40.904 86.377,40.297 86.766 M37.100 88.629 C 35.605 89.440,35.696 89.778,37.200 89.000 C 37.860 88.659,38.400 88.294,38.400 88.190 C 38.400 87.932,38.357 87.947,37.100 88.629 M363.400 89.200 C 364.060 89.637,364.780 89.995,365.000 89.996 C 365.220 89.996,364.811 89.638,364.090 89.199 C 362.392 88.163,361.836 88.164,363.400 89.200 M366.400 90.768 C 366.950 91.216,367.530 91.586,367.688 91.591 C 367.847 91.596,369.332 92.401,370.988 93.380 C 374.058 95.195,375.225 95.575,372.500 93.873 C 369.800 92.185,365.376 89.934,366.400 90.768 M125.093 91.414 C 124.272 91.972,123.600 92.515,123.600 92.620 C 123.600 92.725,124.320 92.335,125.200 91.753 C 126.597 90.828,127.070 90.400,126.693 90.400 C 126.634 90.400,125.914 90.856,125.093 91.414 M121.800 93.835 L 120.600 94.866 121.900 94.006 C 122.615 93.533,123.200 93.068,123.200 92.973 C 123.200 92.673,123.031 92.778,121.800 93.835 M277.200 92.946 C 277.200 93.056,277.740 93.530,278.400 94.000 C 279.060 94.470,279.600 94.764,279.600 94.654 C 279.600 94.544,279.060 94.070,278.400 93.600 C 277.740 93.130,277.200 92.836,277.200 92.946 M27.526 94.014 C 26.715 94.442,25.946 94.964,25.816 95.173 C 25.687 95.383,26.395 95.099,27.391 94.543 C 28.386 93.987,29.200 93.457,29.200 93.366 C 29.200 93.134,29.172 93.144,27.526 94.014 M119.000 95.835 L 117.800 96.866 119.100 96.006 C 119.815 95.533,120.400 95.068,120.400 94.973 C 120.400 94.673,120.231 94.778,119.000 95.835 M374.400 95.266 C 374.510 95.362,375.770 96.506,377.200 97.808 L 379.800 100.176 377.800 98.058 C 376.700 96.893,375.440 95.749,375.000 95.516 C 374.560 95.282,374.290 95.170,374.400 95.266 M23.722 96.629 L 22.600 97.658 23.900 96.754 C 24.615 96.257,25.200 95.793,25.200 95.725 C 25.200 95.409,24.758 95.680,23.722 96.629 M111.775 101.700 L 110.600 103.000 111.900 101.825 C 113.112 100.730,113.384 100.400,113.075 100.400 C 113.006 100.400,112.421 100.985,111.775 101.700 M287.200 100.525 C 287.200 100.594,287.785 101.179,288.500 101.825 L 289.800 103.000 288.625 101.700 C 287.530 100.488,287.200 100.216,287.200 100.525 M18.396 102.900 C 17.960 103.615,17.602 104.365,17.601 104.567 C 17.600 105.023,17.656 104.948,18.714 103.100 C 19.766 101.263,19.497 101.094,18.396 102.900 M108.778 104.300 L 107.400 105.800 108.900 104.422 C 109.725 103.663,110.400 102.988,110.400 102.922 C 110.400 102.616,110.062 102.904,108.778 104.300 M292.400 105.400 C 293.817 106.830,295.067 108.000,295.177 108.000 C 295.287 108.000,294.217 106.830,292.800 105.400 C 291.383 103.970,290.133 102.800,290.023 102.800 C 289.913 102.800,290.983 103.970,292.400 105.400 M16.197 204.000 C 16.197 256.030,16.243 277.315,16.300 251.300 C 16.357 225.285,16.357 182.715,16.300 156.700 C 16.243 130.685,16.197 151.970,16.197 204.000 M299.400 112.400 C 300.483 113.500,301.460 114.400,301.570 114.400 C 301.680 114.400,300.883 113.500,299.800 112.400 C 298.717 111.300,297.740 110.400,297.630 110.400 C 297.520 110.400,298.317 111.300,299.400 112.400 M384.197 202.800 C 384.197 253.730,384.243 274.565,384.300 249.100 C 384.357 223.635,384.357 181.965,384.300 156.500 C 384.243 131.035,384.197 151.870,384.197 202.800 M100.000 113.000 C 99.028 113.990,98.323 114.800,98.433 114.800 C 98.543 114.800,99.428 113.990,100.400 113.000 C 101.372 112.010,102.077 111.200,101.967 111.200 C 101.857 111.200,100.972 112.010,100.000 113.000 M95.600 118.000 C 94.679 119.100,94.016 120.000,94.126 120.000 C 94.236 120.000,95.079 119.100,96.000 118.000 C 96.921 116.900,97.584 116.000,97.474 116.000 C 97.364 116.000,96.521 116.900,95.600 118.000 M91.200 123.600 C 90.730 124.260,90.436 124.800,90.546 124.800 C 90.656 124.800,91.130 124.260,91.600 123.600 C 92.070 122.940,92.364 122.400,92.254 122.400 C 92.144 122.400,91.670 122.940,91.200 123.600 M311.600 127.600 C 312.070 128.260,312.544 128.800,312.654 128.800 C 312.764 128.800,312.470 128.260,312.000 127.600 C 311.530 126.940,311.056 126.400,310.946 126.400 C 310.836 126.400,311.130 126.940,311.600 127.600 M313.149 129.800 C 313.365 130.240,313.834 130.960,314.193 131.400 L 314.844 132.200 314.451 131.400 C 314.235 130.960,313.766 130.240,313.407 129.800 L 312.756 129.000 313.149 129.800 M315.996 134.308 C 316.239 134.808,316.311 135.421,316.157 135.670 C 315.985 135.948,316.055 136.013,316.338 135.838 C 316.955 135.457,316.921 135.103,316.178 134.176 C 315.582 133.432,315.574 133.438,315.996 134.308 M197.700 136.696 C 198.965 136.775,201.035 136.775,202.300 136.696 C 203.565 136.616,202.530 136.551,200.000 136.551 C 197.470 136.551,196.435 136.616,197.700 136.696 M193.105 137.083 C 193.602 137.179,194.322 137.175,194.705 137.075 C 195.087 136.975,194.680 136.896,193.800 136.901 C 192.920 136.905,192.607 136.987,193.105 137.083 M205.905 137.083 C 206.402 137.179,207.122 137.175,207.505 137.075 C 207.887 136.975,207.480 136.896,206.600 136.901 C 205.720 136.905,205.407 136.987,205.905 137.083 M219.400 139.600 C 219.840 139.789,220.470 139.944,220.800 139.944 C 221.178 139.944,221.104 139.817,220.600 139.600 C 220.160 139.411,219.530 139.256,219.200 139.256 C 218.822 139.256,218.896 139.383,219.400 139.600 M78.380 144.439 C 77.920 145.340,77.613 146.146,77.697 146.230 C 77.781 146.314,78.241 145.576,78.719 144.591 C 79.809 142.347,79.515 142.215,78.380 144.439 M230.400 143.779 C 230.400 143.889,230.940 144.259,231.600 144.600 C 232.260 144.941,232.800 145.131,232.800 145.021 C 232.800 144.911,232.260 144.541,231.600 144.200 C 230.940 143.859,230.400 143.669,230.400 143.779 M238.000 148.127 C 238.000 148.224,239.035 149.081,240.300 150.030 C 241.565 150.979,242.383 151.487,242.118 151.159 C 241.575 150.485,238.000 147.854,238.000 148.127 M76.065 149.417 C 75.395 150.888,75.523 151.202,76.247 149.865 C 76.586 149.240,76.788 148.654,76.696 148.563 C 76.605 148.471,76.321 148.856,76.065 149.417 M159.585 150.029 L 158.200 151.258 159.700 150.181 C 161.026 149.230,161.457 148.800,161.085 148.800 C 161.022 148.800,160.347 149.353,159.585 150.029 M151.991 156.700 L 148.600 160.200 152.100 156.809 C 155.351 153.659,155.782 153.200,155.491 153.200 C 155.431 153.200,153.856 154.775,151.991 156.700 M248.219 156.800 C 249.972 158.670,252.286 161.325,253.362 162.700 C 254.438 164.075,255.404 165.200,255.508 165.200 C 256.010 165.200,249.946 158.066,247.349 155.600 C 245.736 154.069,246.001 154.434,248.219 156.800 M143.753 166.500 C 142.376 168.836,142.286 169.035,142.987 168.200 C 143.800 167.232,144.500 166.000,144.238 166.000 C 144.133 166.000,143.915 166.225,143.753 166.500 M68.600 170.800 C 68.448 171.491,68.407 172.141,68.509 172.242 C 68.611 172.344,68.809 171.853,68.950 171.150 C 69.283 169.483,68.960 169.160,68.600 170.800 M138.672 175.419 C 137.732 177.389,137.864 177.724,138.847 175.862 C 139.293 175.016,139.587 174.254,139.501 174.167 C 139.414 174.081,139.041 174.644,138.672 175.419 M66.200 182.400 C 66.045 183.528,66.002 184.536,66.106 184.639 C 66.209 184.742,66.416 183.900,66.567 182.767 C 66.717 181.634,66.759 180.626,66.661 180.528 C 66.563 180.429,66.355 181.272,66.200 182.400 M65.693 186.400 C 65.693 187.170,65.775 187.485,65.876 187.100 C 65.976 186.715,65.976 186.085,65.876 185.700 C 65.775 185.315,65.693 185.630,65.693 186.400 M65.293 189.600 C 65.293 190.370,65.375 190.685,65.476 190.300 C 65.576 189.915,65.576 189.285,65.476 188.900 C 65.375 188.515,65.293 188.830,65.293 189.600 M133.400 191.600 C 133.246 192.510,133.204 193.338,133.307 193.440 C 133.410 193.543,133.613 192.877,133.760 191.960 C 133.907 191.043,133.948 190.215,133.853 190.120 C 133.758 190.024,133.554 190.690,133.400 191.600 M64.893 194.400 C 64.893 195.170,64.975 195.485,65.076 195.100 C 65.176 194.715,65.176 194.085,65.076 193.700 C 64.975 193.315,64.893 193.630,64.893 194.400 M132.893 195.200 C 132.893 195.970,132.975 196.285,133.076 195.900 C 133.176 195.515,133.176 194.885,133.076 194.500 C 132.975 194.115,132.893 194.430,132.893 195.200 M64.550 204.200 C 64.551 206.620,64.616 207.558,64.696 206.285 C 64.776 205.012,64.775 203.032,64.694 201.885 C 64.614 200.738,64.549 201.780,64.550 204.200 M64.893 214.400 C 64.893 215.170,64.975 215.485,65.076 215.100 C 65.176 214.715,65.176 214.085,65.076 213.700 C 64.975 213.315,64.893 213.630,64.893 214.400 M65.293 218.800 C 65.293 219.570,65.375 219.885,65.476 219.500 C 65.576 219.115,65.576 218.485,65.476 218.100 C 65.375 217.715,65.293 218.030,65.293 218.800 M65.693 222.000 C 65.693 222.770,65.775 223.085,65.876 222.700 C 65.976 222.315,65.976 221.685,65.876 221.300 C 65.775 220.915,65.693 221.230,65.693 222.000 M135.829 226.000 C 135.976 226.550,136.264 227.270,136.467 227.600 C 136.725 228.017,136.757 227.895,136.571 227.200 C 136.424 226.650,136.136 225.930,135.933 225.600 C 135.675 225.183,135.643 225.305,135.829 226.000 M68.856 238.400 C 68.856 238.730,69.011 239.360,69.200 239.800 C 69.417 240.304,69.544 240.378,69.544 240.000 C 69.544 239.670,69.389 239.040,69.200 238.600 C 68.983 238.096,68.856 238.022,68.856 238.400 M70.461 244.000 C 70.461 244.330,70.703 245.230,71.000 246.000 C 71.297 246.770,71.539 247.130,71.539 246.800 C 71.539 246.470,71.297 245.570,71.000 244.800 C 70.703 244.030,70.461 243.670,70.461 244.000 M277.200 248.979 C 277.200 249.089,277.740 249.459,278.400 249.800 C 279.060 250.141,279.600 250.331,279.600 250.221 C 279.600 250.111,279.060 249.741,278.400 249.400 C 277.740 249.059,277.200 248.869,277.200 248.979 M149.200 249.310 C 149.200 249.371,150.595 250.766,152.300 252.410 L 155.400 255.400 152.410 252.300 C 149.633 249.421,149.200 249.017,149.200 249.310 M247.385 252.900 L 245.400 255.000 247.500 253.015 C 249.451 251.171,249.783 250.800,249.485 250.800 C 249.422 250.800,248.477 251.745,247.385 252.900 M294.800 258.579 C 294.800 258.689,295.340 259.059,296.000 259.400 C 296.660 259.741,297.200 259.931,297.200 259.821 C 297.200 259.711,296.660 259.341,296.000 259.000 C 295.340 258.659,294.800 258.469,294.800 258.579 M76.028 259.000 C 76.028 259.220,76.286 259.850,76.600 260.400 C 76.914 260.950,77.172 261.220,77.172 261.000 C 77.172 260.780,76.914 260.150,76.600 259.600 C 76.286 259.050,76.028 258.780,76.028 259.000 M193.100 271.882 C 193.595 271.978,194.405 271.978,194.900 271.882 C 195.395 271.787,194.990 271.709,194.000 271.709 C 193.010 271.709,192.605 271.787,193.100 271.882 M205.500 271.882 C 205.995 271.978,206.805 271.978,207.300 271.882 C 207.795 271.787,207.390 271.709,206.400 271.709 C 205.410 271.709,205.005 271.787,205.500 271.882 M198.500 272.291 C 199.325 272.378,200.675 272.378,201.500 272.291 C 202.325 272.205,201.650 272.134,200.000 272.134 C 198.350 272.134,197.675 272.205,198.500 272.291 M97.600 292.925 C 97.600 292.994,98.185 293.579,98.900 294.225 L 100.200 295.400 99.025 294.100 C 97.930 292.888,97.600 292.616,97.600 292.925 M384.101 297.000 C 384.105 297.880,384.187 298.193,384.283 297.695 C 384.379 297.198,384.375 296.478,384.275 296.095 C 384.175 295.713,384.096 296.120,384.101 297.000 M103.800 299.600 C 105.106 300.920,106.265 302.000,106.375 302.000 C 106.485 302.000,105.506 300.920,104.200 299.600 C 102.894 298.280,101.735 297.200,101.625 297.200 C 101.515 297.200,102.494 298.280,103.800 299.600 M383.429 300.229 C 383.281 300.815,383.238 301.372,383.332 301.466 C 383.427 301.560,383.624 301.158,383.771 300.571 C 383.919 299.985,383.962 299.428,383.868 299.334 C 383.773 299.240,383.576 299.642,383.429 300.229 M108.800 304.125 C 108.800 304.194,109.385 304.779,110.100 305.425 L 111.400 306.600 110.225 305.300 C 109.130 304.088,108.800 303.816,108.800 304.125 M381.094 306.103 L 380.388 307.400 381.194 306.456 C 381.880 305.652,382.246 304.794,381.900 304.803 C 381.845 304.804,381.482 305.389,381.094 306.103 M375.600 312.049 C 374.206 313.271,374.205 313.272,375.488 312.419 C 376.196 311.948,376.882 311.391,377.012 311.181 C 377.397 310.557,377.077 310.754,375.600 312.049 M256.400 327.200 C 255.630 327.622,255.180 327.966,255.400 327.966 C 255.620 327.966,256.430 327.622,257.200 327.200 C 257.970 326.778,258.420 326.434,258.200 326.434 C 257.980 326.434,257.170 326.778,256.400 327.200 M52.800 328.141 C 52.800 328.408,56.490 330.443,56.663 330.271 C 56.740 330.193,55.903 329.639,54.802 329.040 C 53.701 328.440,52.800 328.036,52.800 328.141 M62.800 333.779 C 62.800 333.889,63.340 334.259,64.000 334.600 C 64.660 334.941,65.200 335.131,65.200 335.021 C 65.200 334.911,64.660 334.541,64.000 334.200 C 63.340 333.859,62.800 333.669,62.800 333.779 M192.707 339.490 C 193.426 339.579,194.506 339.577,195.107 339.486 C 195.708 339.395,195.120 339.322,193.800 339.324 C 192.480 339.326,191.988 339.401,192.707 339.490 M205.700 339.487 C 206.305 339.578,207.295 339.578,207.900 339.487 C 208.505 339.395,208.010 339.320,206.800 339.320 C 205.590 339.320,205.095 339.395,205.700 339.487 M305.500 351.429 C 304.005 352.240,304.096 352.578,305.600 351.800 C 306.260 351.459,306.800 351.094,306.800 350.990 C 306.800 350.732,306.757 350.747,305.500 351.429 M138.400 376.179 C 138.400 376.289,138.940 376.659,139.600 377.000 C 140.260 377.341,140.800 377.531,140.800 377.421 C 140.800 377.311,140.260 376.941,139.600 376.600 C 138.940 376.259,138.400 376.069,138.400 376.179 M147.600 381.384 C 147.600 381.494,148.320 381.951,149.200 382.400 C 150.080 382.849,150.800 383.126,150.800 383.016 C 150.800 382.906,150.080 382.449,149.200 382.000 C 148.320 381.551,147.600 381.274,147.600 381.384 M152.000 383.779 C 152.000 383.889,152.540 384.259,153.200 384.600 C 153.860 384.941,154.400 385.131,154.400 385.021 C 154.400 384.911,153.860 384.541,153.200 384.200 C 152.540 383.859,152.000 383.669,152.000 383.779 M247.100 384.229 C 245.605 385.040,245.696 385.378,247.200 384.600 C 247.860 384.259,248.400 383.894,248.400 383.790 C 248.400 383.532,248.357 383.547,247.100 384.229 M202.800 407.200 C 201.443 407.486,201.437 407.495,202.600 407.507 C 203.260 407.515,204.250 407.376,204.800 407.200 C 206.112 406.780,204.796 406.780,202.800 407.200 M197.300 407.476 C 197.685 407.576,198.315 407.576,198.700 407.476 C 199.085 407.375,198.770 407.293,198.000 407.293 C 197.230 407.293,196.915 407.375,197.300 407.476 " stroke="none" fill="#9ea7d4" fill-rule="evenodd"></path><path id="path3" d="M199.700 407.476 C 200.085 407.576,200.715 407.576,201.100 407.476 C 201.485 407.375,201.170 407.293,200.400 407.293 C 199.630 407.293,199.315 407.375,199.700 407.476 " stroke="none" fill="#858cc8" fill-rule="evenodd"></path><path id="path4" d="M196.100 1.876 C 196.485 1.976,197.115 1.976,197.500 1.876 C 197.885 1.775,197.570 1.693,196.800 1.693 C 196.030 1.693,195.715 1.775,196.100 1.876 M192.200 2.752 C 189.911 3.580,187.367 4.854,186.200 5.756 C 184.845 6.803,185.792 6.467,188.085 5.086 C 189.286 4.363,191.063 3.522,192.034 3.216 C 193.005 2.911,193.971 2.512,194.180 2.330 C 194.701 1.878,194.499 1.921,192.200 2.752 M205.200 2.155 C 205.200 2.303,206.701 2.884,209.400 3.781 C 209.840 3.927,209.570 3.702,208.800 3.280 C 207.412 2.519,205.200 1.828,205.200 2.155 M212.744 5.577 C 213.264 6.030,213.894 6.397,214.144 6.394 C 214.622 6.387,213.957 5.858,212.600 5.164 C 211.971 4.842,212.002 4.931,212.744 5.577 M215.000 6.704 C 215.220 6.935,216.030 7.470,216.800 7.893 C 217.570 8.316,219.415 9.338,220.900 10.165 C 222.385 10.992,223.600 11.582,223.600 11.477 C 223.600 11.371,221.755 10.249,219.500 8.983 C 214.468 6.159,214.495 6.172,215.000 6.704 M178.000 10.248 C 172.073 13.566,169.897 15.114,175.000 12.381 C 179.615 9.910,183.600 7.593,183.600 7.382 C 183.600 7.105,183.750 7.029,178.000 10.248 M224.946 12.313 C 225.227 12.767,229.214 14.919,229.411 14.722 C 229.482 14.652,228.450 13.991,227.119 13.253 C 225.788 12.516,224.810 12.093,224.946 12.313 M168.200 15.810 C 167.320 16.352,166.729 16.797,166.886 16.798 C 167.466 16.802,170.000 15.441,170.000 15.126 C 170.000 14.694,170.035 14.680,168.200 15.810 M230.006 15.067 C 230.012 15.407,238.000 19.790,238.000 19.454 C 238.000 19.352,236.785 18.600,235.300 17.781 C 233.815 16.963,232.015 15.943,231.300 15.514 C 230.585 15.086,230.003 14.884,230.006 15.067 M164.100 18.042 C 162.945 18.715,162.000 19.344,162.000 19.440 C 162.000 19.732,165.926 17.643,166.195 17.208 C 166.551 16.632,166.447 16.673,164.100 18.042 M159.500 20.677 C 158.456 21.258,157.663 21.797,157.740 21.873 C 157.900 22.034,161.600 20.014,161.600 19.766 C 161.600 19.515,161.543 19.540,159.500 20.677 M238.400 19.741 C 238.400 20.008,242.090 22.043,242.263 21.871 C 242.340 21.793,241.503 21.239,240.402 20.640 C 239.301 20.040,238.400 19.636,238.400 19.741 M155.900 22.629 C 155.295 22.957,154.800 23.310,154.800 23.413 C 154.800 23.832,155.567 23.554,156.456 22.813 C 157.581 21.876,157.399 21.815,155.900 22.629 M243.544 22.780 C 244.064 23.231,244.649 23.600,244.844 23.600 C 245.544 23.600,245.179 23.210,243.900 22.590 L 242.600 21.960 243.544 22.780 M148.532 26.722 C 144.227 29.196,143.734 29.792,147.800 27.608 C 150.534 26.139,152.623 24.748,151.986 24.822 C 151.884 24.833,150.329 25.688,148.532 26.722 M248.000 25.139 C 248.000 25.311,248.630 25.752,249.400 26.119 C 250.170 26.487,250.800 26.718,250.800 26.633 C 250.800 26.548,250.170 26.107,249.400 25.653 C 248.630 25.199,248.000 24.968,248.000 25.139 M253.024 28.187 C 253.451 28.510,253.980 28.775,254.200 28.775 C 254.420 28.775,254.251 28.510,253.824 28.187 C 253.396 27.864,252.867 27.600,252.647 27.600 C 252.427 27.600,252.596 27.864,253.024 28.187 M141.800 30.590 C 140.920 31.132,140.359 31.581,140.553 31.588 C 140.955 31.602,143.600 30.022,143.600 29.767 C 143.600 29.499,143.484 29.552,141.800 30.590 M256.400 29.755 C 256.400 30.031,259.221 31.712,259.394 31.539 C 259.478 31.455,258.838 30.980,257.973 30.482 C 257.108 29.984,256.400 29.657,256.400 29.755 M135.500 34.026 C 133.135 35.353,131.200 36.535,131.200 36.654 C 131.200 36.772,132.415 36.192,133.900 35.365 C 135.385 34.538,137.230 33.516,138.000 33.093 C 139.340 32.357,140.360 31.592,139.980 31.607 C 139.881 31.611,137.865 32.700,135.500 34.026 M260.600 32.195 C 261.505 32.950,264.818 34.701,264.200 34.097 C 263.980 33.882,262.900 33.216,261.800 32.617 C 260.700 32.017,260.160 31.828,260.600 32.195 M265.200 34.822 C 266.233 35.526,268.800 36.825,268.800 36.642 C 268.800 36.433,265.205 34.397,264.850 34.406 C 264.712 34.409,264.870 34.596,265.200 34.822 M128.200 38.190 C 127.320 38.732,126.707 39.181,126.839 39.188 C 127.268 39.210,129.579 37.958,129.816 37.575 C 130.153 37.029,129.973 37.098,128.200 38.190 M270.149 37.517 C 270.430 37.972,277.744 42.003,278.274 41.995 C 278.453 41.993,277.880 41.581,277.000 41.080 C 271.834 38.142,269.920 37.147,270.149 37.517 M121.503 41.889 C 119.360 43.127,117.665 44.198,117.736 44.269 C 117.889 44.423,123.845 41.123,125.000 40.244 C 126.458 39.135,125.445 39.611,121.503 41.889 M278.975 42.359 C 279.130 42.610,280.189 43.281,281.328 43.851 C 283.804 45.088,283.390 44.582,280.647 43.018 C 279.572 42.405,278.820 42.109,278.975 42.359 M115.100 45.429 C 114.495 45.757,114.000 46.093,114.000 46.175 C 114.000 46.518,115.610 45.870,116.036 45.357 C 116.608 44.667,116.486 44.677,115.100 45.429 M283.600 44.939 C 283.600 45.210,287.237 47.297,287.409 47.124 C 287.490 47.043,286.666 46.477,285.578 45.866 C 284.490 45.254,283.600 44.837,283.600 44.939 M110.600 48.000 C 109.940 48.437,109.605 48.796,109.856 48.797 C 110.293 48.800,112.411 47.238,112.000 47.216 C 111.890 47.210,111.260 47.563,110.600 48.000 M288.400 47.683 C 289.070 48.361,296.800 52.568,296.800 52.255 C 296.800 52.146,295.405 51.298,293.700 50.371 C 291.995 49.444,289.970 48.324,289.200 47.881 C 288.350 47.393,288.036 47.315,288.400 47.683 M106.704 50.142 C 103.600 51.923,103.196 52.471,106.200 50.826 C 108.387 49.629,109.641 48.781,109.180 48.812 C 109.081 48.819,107.967 49.417,106.704 50.142 M98.923 54.505 C 96.901 55.646,95.307 56.641,95.382 56.715 C 95.538 56.871,100.594 54.140,102.038 53.121 C 103.758 51.907,102.675 52.388,98.923 54.505 M298.000 53.167 C 298.963 53.952,299.600 54.208,299.600 53.810 C 299.600 53.706,299.015 53.335,298.300 52.986 L 297.000 52.352 298.000 53.167 M301.600 54.942 C 301.600 55.249,304.423 56.910,304.617 56.717 C 304.713 56.621,304.073 56.139,303.196 55.646 C 302.318 55.152,301.600 54.836,301.600 54.942 M92.900 57.826 C 91.012 58.958,90.577 59.549,92.300 58.641 C 93.509 58.003,95.116 56.831,94.800 56.817 C 94.690 56.812,93.835 57.266,92.900 57.826 M305.966 57.475 C 307.199 58.400,313.200 61.708,313.200 61.462 C 313.200 61.287,310.888 59.937,306.800 57.724 C 305.810 57.188,305.435 57.076,305.966 57.475 M88.110 60.512 C 86.960 61.194,86.083 61.816,86.161 61.894 C 86.283 62.016,90.289 59.809,90.767 59.358 C 91.322 58.832,89.896 59.452,88.110 60.512 M81.332 64.322 C 77.027 66.796,76.534 67.392,80.600 65.208 C 83.334 63.739,85.423 62.348,84.786 62.422 C 84.684 62.433,83.129 63.288,81.332 64.322 M315.365 62.743 C 315.699 63.283,318.000 64.533,318.233 64.301 C 318.320 64.214,317.646 63.723,316.735 63.212 C 315.824 62.700,315.208 62.489,315.365 62.743 M319.600 65.110 C 319.600 65.292,320.455 65.841,321.500 66.330 C 322.679 66.882,323.096 66.976,322.600 66.579 C 321.394 65.614,319.600 64.736,319.600 65.110 M74.200 68.400 C 73.100 69.052,72.329 69.589,72.488 69.593 C 72.948 69.604,75.982 67.953,76.226 67.559 C 76.550 67.033,76.397 67.097,74.200 68.400 M324.000 67.622 C 325.033 68.326,327.600 69.625,327.600 69.442 C 327.600 69.233,324.005 67.197,323.650 67.206 C 323.512 67.209,323.670 67.396,324.000 67.622 M196.900 68.698 C 198.825 68.771,201.975 68.771,203.900 68.698 C 205.825 68.625,204.250 68.565,200.400 68.565 C 196.550 68.565,194.975 68.625,196.900 68.698 M183.600 69.283 C 179.879 69.739,178.652 69.985,178.893 70.226 C 178.995 70.329,181.042 70.146,183.440 69.820 C 185.838 69.493,188.610 69.162,189.600 69.083 C 191.008 68.971,190.877 68.937,189.000 68.928 C 187.680 68.921,185.250 69.081,183.600 69.283 M212.000 69.227 C 213.650 69.400,216.347 69.724,217.993 69.945 C 220.712 70.312,222.156 70.265,220.757 69.856 C 219.656 69.534,212.166 68.794,210.600 68.852 C 209.574 68.890,210.077 69.025,212.000 69.227 M67.309 72.172 C 62.280 75.002,62.077 75.415,67.000 72.800 C 71.425 70.449,71.402 70.463,71.167 70.247 C 71.075 70.163,69.339 71.029,67.309 72.172 M329.164 70.557 C 329.418 70.863,330.025 71.216,330.513 71.341 C 331.356 71.557,331.350 71.530,330.400 70.793 C 329.236 69.891,328.494 69.749,329.164 70.557 M170.600 71.600 C 170.160 71.789,169.305 71.956,168.700 71.972 C 168.095 71.987,167.600 72.161,167.600 72.357 C 167.600 72.684,168.699 72.501,172.200 71.593 C 173.287 71.311,173.305 71.281,172.400 71.269 C 171.850 71.262,171.040 71.411,170.600 71.600 M229.950 72.041 C 231.573 72.476,232.994 72.740,233.107 72.626 C 233.333 72.401,233.135 72.332,230.294 71.655 C 227.086 70.889,226.811 71.198,229.950 72.041 M333.391 72.786 C 333.682 73.257,336.802 74.932,337.007 74.727 C 337.078 74.656,336.234 74.094,335.132 73.479 C 334.030 72.864,333.247 72.552,333.391 72.786 M160.000 74.289 C 159.670 74.413,158.970 74.674,158.445 74.869 C 157.919 75.063,157.572 75.305,157.673 75.407 C 157.774 75.508,158.834 75.239,160.029 74.810 C 161.223 74.380,161.840 74.037,161.400 74.046 C 160.960 74.055,160.330 74.165,160.000 74.289 M239.600 74.571 C 242.078 75.482,243.047 75.621,241.400 74.829 C 240.520 74.406,239.440 74.059,239.000 74.058 C 238.513 74.057,238.748 74.258,239.600 74.571 M61.500 75.429 C 60.895 75.757,60.400 76.110,60.400 76.213 C 60.400 76.599,61.032 76.357,62.000 75.600 C 63.189 74.670,63.011 74.609,61.500 75.429 M337.600 75.100 C 337.600 75.283,338.635 75.937,339.900 76.552 C 342.527 77.830,342.312 77.451,339.500 75.849 C 338.455 75.253,337.600 74.916,337.600 75.100 M55.000 79.052 C 50.774 81.382,47.680 83.362,50.400 81.996 C 52.772 80.805,60.000 76.716,60.000 76.565 C 60.000 76.296,59.995 76.299,55.000 79.052 M152.053 77.053 C 151.313 77.376,150.802 77.735,150.918 77.851 C 151.033 77.967,151.909 77.703,152.864 77.264 C 154.848 76.354,154.102 76.159,152.053 77.053 M247.536 77.236 C 248.491 77.690,249.371 77.963,249.491 77.842 C 249.720 77.613,248.520 77.086,246.800 76.658 C 246.250 76.522,246.581 76.782,247.536 77.236 M342.400 77.790 C 342.400 77.894,342.985 78.265,343.700 78.614 L 345.000 79.248 344.000 78.433 C 343.037 77.648,342.400 77.392,342.400 77.790 M252.800 79.369 C 253.350 79.701,254.070 79.973,254.400 79.974 C 255.203 79.976,254.252 79.416,252.800 79.032 L 251.800 78.767 252.800 79.369 M346.800 80.155 C 346.800 80.431,349.621 82.112,349.794 81.939 C 349.878 81.855,349.238 81.380,348.373 80.882 C 347.508 80.384,346.800 80.057,346.800 80.155 M257.633 81.351 C 258.042 81.721,261.200 83.195,261.200 83.016 C 261.200 82.789,258.181 81.200,257.749 81.200 C 257.594 81.200,257.542 81.268,257.633 81.351 M140.000 82.433 L 139.000 83.248 140.400 82.573 C 142.112 81.748,142.294 81.597,141.567 81.609 C 141.255 81.614,140.550 81.985,140.000 82.433 M350.800 82.498 C 351.130 82.818,353.020 83.919,355.000 84.945 C 356.980 85.971,358.163 86.493,357.629 86.105 C 356.128 85.015,350.123 81.843,350.800 82.498 M47.000 83.617 C 45.900 84.264,45.164 84.795,45.365 84.797 C 45.806 84.801,49.200 82.842,49.200 82.583 C 49.200 82.322,49.204 82.320,47.000 83.617 M135.054 85.003 C 133.324 85.991,131.771 86.800,131.603 86.800 C 131.435 86.800,131.051 87.105,130.749 87.478 C 130.441 87.858,131.253 87.556,132.600 86.790 C 133.920 86.038,135.900 84.927,137.000 84.319 C 138.100 83.712,138.820 83.213,138.600 83.210 C 138.380 83.208,136.784 84.015,135.054 85.003 M261.633 83.329 C 262.525 84.018,265.641 85.590,265.426 85.242 C 265.146 84.789,262.285 83.200,261.749 83.200 C 261.594 83.200,261.542 83.258,261.633 83.329 M40.927 86.925 C 38.908 88.066,37.108 89.161,36.927 89.359 C 36.448 89.884,43.694 85.981,44.386 85.342 C 45.293 84.503,44.873 84.695,40.927 86.925 M266.033 85.741 C 266.795 86.388,270.081 88.054,269.847 87.676 C 269.551 87.198,266.705 85.600,266.149 85.600 C 265.994 85.600,265.942 85.664,266.033 85.741 M360.403 87.877 C 360.406 88.206,362.445 89.288,362.659 89.075 C 362.723 89.011,362.241 88.642,361.588 88.256 C 360.934 87.870,360.401 87.700,360.403 87.877 M127.878 89.191 C 126.845 89.846,126.000 90.469,126.000 90.575 C 126.000 90.680,126.900 90.207,128.000 89.524 C 129.764 88.427,130.291 88.000,129.878 88.000 C 129.811 88.000,128.911 88.536,127.878 89.191 M271.174 88.718 C 272.509 89.810,274.799 91.105,274.000 90.316 C 273.670 89.990,272.680 89.318,271.800 88.822 C 270.451 88.063,270.353 88.046,271.174 88.718 M33.800 90.990 C 32.920 91.532,32.325 91.981,32.477 91.988 C 32.824 92.003,35.600 90.379,35.600 90.160 C 35.600 89.900,35.476 89.957,33.800 90.990 M364.991 90.386 C 365.282 90.857,368.402 92.532,368.607 92.327 C 368.678 92.256,367.834 91.694,366.732 91.079 C 365.630 90.464,364.847 90.152,364.991 90.386 M124.144 91.569 C 123.453 91.990,122.757 92.546,122.598 92.804 C 122.439 93.061,123.049 92.782,123.954 92.183 C 125.379 91.240,125.876 90.796,125.500 90.801 C 125.445 90.802,124.835 91.148,124.144 91.569 M276.046 91.921 C 276.571 92.317,278.226 93.505,279.725 94.559 C 281.223 95.613,283.518 97.365,284.825 98.452 C 286.131 99.540,287.200 100.270,287.200 100.075 C 287.200 99.553,276.052 91.200,275.356 91.200 C 275.211 91.200,275.521 91.524,276.046 91.921 M29.000 93.600 C 27.900 94.252,27.130 94.789,27.289 94.793 C 27.857 94.807,31.200 93.035,31.200 92.720 C 31.200 92.285,31.254 92.263,29.000 93.600 M369.200 92.688 C 369.200 92.882,370.055 93.452,371.100 93.955 C 373.207 94.969,373.010 94.612,370.700 93.231 C 369.875 92.738,369.200 92.494,369.200 92.688 M118.914 95.282 C 117.327 96.426,116.101 97.434,116.190 97.523 C 116.323 97.656,120.430 94.726,121.780 93.535 C 122.831 92.608,121.489 93.426,118.914 95.282 M24.377 96.546 C 22.214 98.244,19.196 101.615,19.866 101.585 C 20.050 101.576,20.683 100.871,21.273 100.017 C 21.863 99.164,23.348 97.725,24.573 96.820 C 26.483 95.409,27.125 94.799,26.700 94.800 C 26.645 94.800,25.599 95.586,24.377 96.546 M374.000 95.604 C 378.948 99.806,379.428 100.142,376.701 97.498 C 375.622 96.452,374.348 95.407,373.870 95.175 C 373.117 94.812,373.135 94.870,374.000 95.604 M114.200 99.035 L 113.000 100.066 114.300 99.206 C 115.015 98.733,115.600 98.268,115.600 98.173 C 115.600 97.873,115.431 97.978,114.200 99.035 M110.701 101.879 C 107.864 104.346,99.273 112.920,98.357 114.200 C 97.884 114.860,99.725 113.132,102.449 110.361 C 105.172 107.589,108.622 104.214,110.115 102.861 C 113.044 100.206,113.495 99.450,110.701 101.879 M290.200 102.930 C 291.740 104.355,293.068 105.457,293.150 105.377 C 293.340 105.195,288.918 101.114,288.047 100.669 C 287.691 100.486,288.660 101.504,290.200 102.930 M17.756 105.043 C 17.424 105.837,17.249 106.582,17.365 106.699 C 17.549 106.883,17.829 106.295,18.599 104.100 C 19.007 102.940,18.309 103.721,17.756 105.043 M294.238 106.479 C 295.560 108.004,298.463 110.800,298.725 110.800 C 298.864 110.800,297.817 109.630,296.400 108.200 C 293.872 105.649,292.734 104.743,294.238 106.479 M16.597 204.000 C 16.597 256.030,16.643 277.315,16.700 251.300 C 16.757 225.285,16.757 182.715,16.700 156.700 C 16.643 130.685,16.597 151.970,16.597 204.000 M301.698 114.500 C 303.312 116.315,305.586 119.015,306.753 120.500 C 308.672 122.944,309.720 123.993,308.949 122.700 C 308.637 122.176,305.563 118.346,305.177 118.000 C 305.054 117.890,304.693 117.417,304.373 116.949 C 303.592 115.803,299.286 111.200,298.995 111.200 C 298.868 111.200,300.084 112.685,301.698 114.500 M96.015 116.900 L 95.079 118.200 96.339 117.025 C 97.675 115.780,97.794 115.600,97.275 115.600 C 97.097 115.600,96.529 116.185,96.015 116.900 M94.495 118.666 C 94.218 118.778,93.788 119.259,93.541 119.735 C 93.120 120.545,93.159 120.538,94.146 119.630 C 94.726 119.097,95.200 118.602,95.200 118.530 C 95.200 118.384,95.193 118.385,94.495 118.666 M92.344 121.500 C 91.075 123.032,90.619 123.742,91.081 123.465 C 91.593 123.158,93.369 120.800,93.089 120.800 C 92.998 120.800,92.663 121.115,92.344 121.500 M310.780 125.833 C 311.726 127.135,312.855 128.785,313.290 129.500 C 313.724 130.215,314.156 130.800,314.250 130.800 C 314.471 130.800,313.173 128.263,312.818 128.000 C 312.669 127.890,311.972 126.954,311.268 125.920 C 310.565 124.887,309.781 123.912,309.525 123.754 C 309.269 123.596,309.834 124.532,310.780 125.833 M89.479 125.300 C 88.355 126.820,87.890 127.600,88.109 127.600 C 88.194 127.600,88.846 126.790,89.557 125.800 C 90.268 124.810,90.758 124.000,90.645 124.000 C 90.533 124.000,90.008 124.585,89.479 125.300 M87.356 128.306 C 86.903 128.606,85.451 131.200,85.737 131.200 C 85.823 131.200,86.370 130.480,86.953 129.600 C 88.055 127.934,88.091 127.820,87.356 128.306 M315.006 132.112 C 315.392 132.724,315.809 133.124,315.932 133.001 C 316.055 132.878,315.739 132.378,315.230 131.889 L 314.304 131.000 315.006 132.112 M84.494 132.700 C 83.322 134.395,81.115 138.400,81.354 138.400 C 81.471 138.400,82.049 137.545,82.639 136.500 C 83.230 135.455,84.140 133.925,84.662 133.100 C 85.757 131.370,85.627 131.061,84.494 132.700 M197.900 137.095 C 199.055 137.176,200.945 137.176,202.100 137.095 C 203.255 137.014,202.310 136.948,200.000 136.948 C 197.690 136.948,196.745 137.014,197.900 137.095 M186.600 138.191 C 185.459 138.484,185.030 138.709,185.600 138.714 C 186.150 138.719,187.500 138.492,188.600 138.209 C 189.741 137.916,190.170 137.691,189.600 137.686 C 189.050 137.681,187.700 137.908,186.600 138.191 M210.600 137.938 C 211.040 138.131,212.300 138.402,213.400 138.540 C 214.752 138.709,215.125 138.673,214.553 138.428 C 214.087 138.228,212.827 137.957,211.753 137.826 C 210.482 137.671,210.080 137.710,210.600 137.938 M182.600 139.200 C 182.096 139.417,182.022 139.544,182.400 139.544 C 182.730 139.544,183.360 139.389,183.800 139.200 C 184.304 138.983,184.378 138.856,184.000 138.856 C 183.670 138.856,183.040 139.011,182.600 139.200 M216.600 139.200 C 217.040 139.389,217.670 139.544,218.000 139.544 C 218.378 139.544,218.304 139.417,217.800 139.200 C 217.360 139.011,216.730 138.856,216.400 138.856 C 216.022 138.856,216.096 138.983,216.600 139.200 M177.400 140.807 C 176.520 141.239,176.250 141.480,176.800 141.343 C 178.316 140.964,179.600 140.445,179.600 140.210 C 179.600 139.847,179.051 139.996,177.400 140.807 M79.847 140.686 C 79.450 141.083,77.962 144.495,78.117 144.651 C 78.187 144.720,78.727 143.793,79.318 142.589 C 80.349 140.486,80.465 140.068,79.847 140.686 M221.800 140.703 C 222.020 140.920,222.740 141.212,223.400 141.354 C 224.777 141.649,224.015 141.077,222.400 140.603 C 221.743 140.411,221.537 140.445,221.800 140.703 M171.600 143.200 C 170.830 143.622,170.380 143.966,170.600 143.966 C 170.820 143.966,171.630 143.622,172.400 143.200 C 173.170 142.778,173.620 142.434,173.400 142.434 C 173.180 142.434,172.370 142.778,171.600 143.200 M229.200 143.800 C 230.630 144.549,231.980 145.161,232.200 145.161 C 232.420 145.161,231.430 144.549,230.000 143.800 C 228.570 143.051,227.220 142.439,227.000 142.439 C 226.780 142.439,227.770 143.051,229.200 143.800 M166.200 146.000 C 165.540 146.437,165.205 146.796,165.456 146.797 C 165.893 146.800,168.011 145.238,167.600 145.216 C 167.490 145.210,166.860 145.563,166.200 146.000 M232.800 145.539 C 232.800 145.711,233.430 146.152,234.200 146.519 C 234.970 146.887,235.600 147.118,235.600 147.033 C 235.600 146.948,234.970 146.507,234.200 146.053 C 233.430 145.599,232.800 145.368,232.800 145.539 M76.629 147.143 C 75.725 148.893,75.856 149.241,76.823 147.655 C 77.274 146.915,77.557 146.223,77.451 146.118 C 77.345 146.012,76.976 146.473,76.629 147.143 M236.200 147.459 C 236.632 147.897,241.078 151.238,241.900 151.741 C 243.224 152.552,242.163 151.451,240.300 150.081 C 237.932 148.339,235.595 146.845,236.200 147.459 M162.122 148.637 L 161.000 149.673 162.300 148.809 C 163.491 148.018,163.879 147.600,163.422 147.600 C 163.325 147.600,162.740 148.067,162.122 148.637 M159.106 150.852 C 158.388 151.541,158.158 151.856,158.595 151.552 C 159.784 150.726,160.988 149.600,160.682 149.600 C 160.534 149.600,159.825 150.163,159.106 150.852 M73.839 153.468 C 72.982 155.982,73.249 156.055,74.290 153.591 C 74.753 152.496,74.984 151.600,74.803 151.600 C 74.623 151.600,74.189 152.441,73.839 153.468 M153.364 155.755 C 151.184 157.821,149.490 159.598,149.600 159.706 C 149.710 159.813,151.576 158.123,153.746 155.950 C 158.736 150.955,158.537 150.853,153.364 155.755 M242.800 152.125 C 242.800 152.194,243.385 152.779,244.100 153.425 L 245.400 154.600 244.225 153.300 C 243.130 152.088,242.800 151.816,242.800 152.125 M246.053 154.970 C 246.354 155.394,247.500 156.690,248.600 157.850 C 249.700 159.010,251.500 161.128,252.600 162.557 C 253.700 163.985,254.747 165.164,254.927 165.177 C 255.465 165.215,251.608 160.484,248.453 157.235 C 246.831 155.566,245.751 154.547,246.053 154.970 M71.850 158.791 C 71.493 159.685,71.210 160.638,71.222 160.908 C 71.234 161.179,71.600 160.521,72.036 159.447 C 72.472 158.373,72.754 157.421,72.664 157.331 C 72.574 157.241,72.208 157.898,71.850 158.791 M148.000 161.400 C 147.483 161.950,147.251 162.400,147.484 162.400 C 147.717 162.400,148.203 161.950,148.563 161.400 C 148.924 160.850,149.156 160.400,149.079 160.400 C 149.002 160.400,148.517 160.850,148.000 161.400 M145.827 164.200 C 145.240 164.970,144.884 165.600,145.036 165.600 C 145.335 165.600,146.171 164.617,146.821 163.500 C 147.499 162.334,146.961 162.713,145.827 164.200 M69.228 167.003 C 68.773 168.478,68.412 169.980,68.427 170.342 C 68.442 170.704,68.882 169.565,69.404 167.810 C 69.927 166.056,70.287 164.554,70.205 164.472 C 70.123 164.390,69.683 165.529,69.228 167.003 M256.088 167.200 C 257.047 168.883,258.197 169.563,258.898 168.862 C 259.188 168.572,259.076 168.507,258.531 168.650 C 257.948 168.802,257.458 168.437,256.619 167.227 C 255.179 165.149,254.912 165.136,256.088 167.200 M143.353 167.700 C 143.190 167.975,142.775 168.643,142.429 169.185 C 142.038 169.797,141.990 170.052,142.303 169.859 C 142.820 169.540,144.168 167.200,143.834 167.200 C 143.731 167.200,143.515 167.425,143.353 167.700 M140.446 172.804 C 139.952 173.682,139.633 174.400,139.735 174.400 C 140.006 174.400,141.659 171.526,141.487 171.354 C 141.408 171.274,140.939 171.927,140.446 172.804 M66.678 177.300 C 66.554 178.235,66.350 179.720,66.225 180.600 C 66.094 181.523,66.251 181.185,66.597 179.800 C 67.598 175.785,67.627 175.600,67.260 175.600 C 67.064 175.600,66.802 176.365,66.678 177.300 M137.986 177.901 C 137.142 179.594,137.139 179.600,137.366 179.600 C 137.665 179.600,138.895 177.162,138.697 176.963 C 138.608 176.874,138.288 177.296,137.986 177.901 M135.280 185.480 C 134.688 187.409,134.975 187.695,135.600 185.800 C 135.864 185.001,136.002 184.269,135.907 184.174 C 135.812 184.078,135.530 184.666,135.280 185.480 M65.293 186.800 C 65.293 187.570,65.375 187.885,65.476 187.500 C 65.576 187.115,65.576 186.485,65.476 186.100 C 65.375 185.715,65.293 186.030,65.293 186.800 M64.537 191.463 C 64.025 194.530,64.211 216.819,64.758 218.000 C 65.160 218.869,65.193 218.742,65.009 217.035 C 64.480 212.119,64.342 200.914,64.745 195.626 C 65.196 189.713,65.111 188.020,64.537 191.463 M132.934 197.100 C 132.539 200.766,132.623 209.776,133.079 212.565 C 133.283 213.815,133.400 210.791,133.400 204.265 C 133.400 198.619,133.370 194.000,133.334 194.000 C 133.298 194.000,133.118 195.395,132.934 197.100 M65.301 221.800 C 65.305 222.680,65.387 222.993,65.483 222.495 C 65.579 221.998,65.575 221.278,65.475 220.895 C 65.375 220.513,65.296 220.920,65.301 221.800 M135.009 222.400 C 135.699 224.641,136.743 227.374,136.765 227.000 C 136.802 226.357,135.392 222.057,135.031 221.714 C 134.849 221.541,134.839 221.850,135.009 222.400 M66.036 227.269 C 65.970 228.489,67.102 233.432,67.382 233.151 C 67.472 233.061,67.215 231.550,66.809 229.794 C 66.404 228.037,66.056 226.901,66.036 227.269 M137.217 229.100 C 137.242 229.545,138.764 232.253,138.783 231.887 C 138.810 231.393,137.665 228.800,137.420 228.800 C 137.299 228.800,137.208 228.935,137.217 229.100 M139.214 233.424 C 139.239 234.094,140.372 235.830,140.373 235.200 C 140.374 234.870,140.110 234.251,139.787 233.824 C 139.464 233.396,139.206 233.216,139.214 233.424 M68.830 240.054 C 68.814 240.414,69.063 241.314,69.384 242.054 C 70.117 243.741,70.130 242.695,69.400 240.800 C 69.103 240.030,68.847 239.694,68.830 240.054 M71.432 248.400 C 71.816 249.852,72.376 250.803,72.374 250.000 C 72.373 249.670,72.101 248.950,71.769 248.400 L 71.167 247.400 71.432 248.400 M73.600 254.146 C 73.600 254.654,74.755 257.200,74.985 257.200 C 75.109 257.200,74.933 256.534,74.593 255.721 C 73.965 254.219,73.600 253.640,73.600 254.146 M75.619 258.867 C 75.580 259.427,77.231 262.903,77.438 262.696 C 77.557 262.576,77.201 261.606,76.646 260.539 C 76.091 259.473,75.629 258.720,75.619 258.867 M78.800 265.956 C 78.800 266.151,79.169 266.736,79.620 267.256 L 80.440 268.200 79.810 266.900 C 79.190 265.621,78.800 265.256,78.800 265.956 M198.100 271.894 C 199.145 271.976,200.855 271.976,201.900 271.894 C 202.945 271.812,202.090 271.744,200.000 271.744 C 197.910 271.744,197.055 271.812,198.100 271.894 M292.175 303.700 L 291.000 305.000 292.300 303.825 C 293.015 303.179,293.600 302.594,293.600 302.525 C 293.600 302.216,293.270 302.488,292.175 303.700 M197.916 339.897 C 199.299 339.975,201.459 339.974,202.716 339.895 C 203.972 339.816,202.840 339.752,200.200 339.753 C 197.560 339.753,196.532 339.818,197.916 339.897 " stroke="none" fill="#7c8cc8" fill-rule="evenodd"></path></g></svg>