<svg id="svg" version="1.1" xmlns="http://www.w3.org/2000/svg" xmlns:xlink="http://www.w3.org/1999/xlink" width="400" height="449.6732026143791" viewBox="0, 0, 400,449.6732026143791"><g id="svgg"><path id="path0" d="M191.242 0.597 C 187.568 1.425,184.045 2.665,182.200 3.780 C 181.320 4.312,179.070 5.596,177.200 6.634 C 175.330 7.672,173.227 8.944,172.527 9.461 C 171.826 9.977,171.166 10.400,171.060 10.400 C 170.954 10.400,169.097 11.415,166.933 12.656 C 164.770 13.896,161.380 15.810,159.400 16.908 C 157.420 18.006,155.530 19.124,155.200 19.392 C 154.870 19.661,152.980 20.735,151.000 21.780 C 149.020 22.825,147.130 23.912,146.800 24.195 C 146.470 24.479,144.580 25.569,142.600 26.619 C 140.620 27.668,138.640 28.833,138.200 29.207 C 137.760 29.581,135.873 30.655,134.007 31.594 C 132.141 32.533,130.071 33.708,129.407 34.205 C 128.743 34.702,127.390 35.513,126.400 36.007 C 125.410 36.501,123.700 37.489,122.600 38.202 C 121.500 38.916,119.250 40.223,117.600 41.107 C 115.950 41.991,113.124 43.588,111.321 44.657 C 109.517 45.726,107.090 47.140,105.926 47.800 C 104.762 48.460,102.638 49.681,101.205 50.512 C 99.772 51.344,98.027 52.286,97.327 52.606 C 96.627 52.926,95.939 53.375,95.798 53.603 C 95.657 53.831,94.430 54.577,93.071 55.260 C 91.712 55.943,89.700 57.091,88.600 57.810 C 87.500 58.530,85.250 59.836,83.600 60.714 C 81.950 61.592,79.430 63.020,78.000 63.888 C 76.570 64.757,74.327 66.052,73.016 66.766 C 71.705 67.481,70.175 68.385,69.616 68.775 C 69.057 69.166,67.173 70.232,65.429 71.145 C 63.685 72.058,61.975 73.052,61.629 73.356 C 61.283 73.659,60.190 74.310,59.200 74.803 C 58.210 75.297,55.493 76.848,53.163 78.250 C 50.833 79.653,48.745 80.800,48.523 80.800 C 48.301 80.800,47.367 81.345,46.447 82.012 C 44.881 83.146,42.362 84.597,38.600 86.530 C 37.720 86.982,36.460 87.739,35.800 88.211 C 35.140 88.683,33.610 89.574,32.400 90.190 C 31.190 90.806,29.177 91.960,27.926 92.755 C 26.675 93.550,24.425 94.876,22.926 95.703 C 21.427 96.529,19.842 97.429,19.404 97.703 C 18.967 97.976,17.437 98.935,16.004 99.833 C 9.800 103.723,4.116 111.390,1.347 119.600 L 0.200 123.000 0.200 224.800 L 0.200 326.600 1.347 330.000 C 2.647 333.855,4.239 337.200,4.774 337.200 C 5.087 337.200,10.773 333.968,26.600 324.794 C 28.800 323.519,36.450 319.110,43.600 314.997 C 60.242 305.423,63.071 303.790,71.800 298.716 C 83.803 291.739,84.179 291.548,84.816 292.107 C 85.178 292.424,85.156 292.315,84.755 291.800 C 81.967 288.227,76.223 275.615,73.186 266.400 C 57.252 218.052,70.322 164.866,106.856 129.387 C 167.771 70.229,266.829 81.864,312.906 153.587 L 315.613 157.800 314.506 158.744 C 313.898 159.263,313.670 159.551,314.000 159.383 C 314.330 159.215,314.870 158.850,315.200 158.570 C 315.530 158.290,319.310 156.044,323.600 153.578 C 327.890 151.112,333.650 147.792,336.400 146.200 C 339.150 144.609,344.460 141.545,348.200 139.392 C 355.332 135.287,359.613 132.818,379.600 121.282 C 386.310 117.409,392.623 113.794,393.628 113.248 L 395.457 112.257 393.828 109.787 C 391.282 105.925,386.886 101.484,383.779 99.633 C 382.251 98.722,380.730 97.806,380.400 97.597 C 380.070 97.388,378.630 96.558,377.200 95.752 C 375.770 94.947,374.060 93.962,373.400 93.565 C 372.740 93.167,370.670 91.992,368.800 90.953 C 366.930 89.913,364.680 88.579,363.800 87.988 C 362.920 87.397,360.490 85.964,358.400 84.802 C 351.876 81.178,341.968 75.518,339.005 73.724 C 338.347 73.326,336.727 72.399,335.405 71.664 C 334.082 70.929,331.560 69.464,329.800 68.408 C 328.040 67.353,325.572 65.946,324.316 65.283 C 323.059 64.620,321.529 63.728,320.916 63.303 C 320.302 62.877,318.090 61.585,316.000 60.431 C 312.025 58.238,308.761 56.363,303.400 53.192 C 301.640 52.151,299.390 50.849,298.400 50.298 C 297.410 49.746,295.581 48.689,294.336 47.948 C 291.417 46.210,286.450 43.361,283.400 41.674 C 281.121 40.413,277.355 38.219,270.200 33.982 C 268.440 32.940,266.010 31.583,264.800 30.968 C 263.590 30.352,262.150 29.506,261.600 29.089 C 261.050 28.671,258.890 27.384,256.800 26.229 C 254.710 25.074,251.650 23.351,250.000 22.401 C 242.635 18.159,239.261 16.198,237.400 15.075 C 236.300 14.412,233.870 13.058,232.000 12.067 C 230.130 11.077,228.150 9.920,227.600 9.498 C 227.050 9.075,224.890 7.784,222.800 6.629 C 220.710 5.474,218.190 4.061,217.200 3.489 C 211.997 0.484,198.445 -1.025,191.242 0.597 M193.200 158.842 C 146.817 163.525,119.887 213.276,141.020 255.239 L 142.433 258.045 143.716 257.262 C 144.422 256.831,149.230 254.053,154.400 251.088 C 159.570 248.123,166.590 244.083,170.000 242.112 C 178.487 237.205,187.614 231.946,201.800 223.789 C 213.544 217.036,220.659 212.939,237.200 203.403 C 241.710 200.803,247.740 197.337,250.600 195.702 C 253.460 194.066,256.201 192.473,256.690 192.161 L 257.580 191.594 255.722 188.697 C 242.581 168.208,217.771 156.361,193.200 158.842 M311.091 202.696 L 318.382 202.818 318.491 210.109 L 318.600 217.400 325.891 217.509 L 333.182 217.618 333.301 225.109 L 333.419 232.600 333.509 224.900 L 333.600 217.200 326.209 217.200 L 318.818 217.200 318.709 209.900 L 318.600 202.600 311.200 202.587 L 303.800 202.574 311.091 202.696 M366.691 202.696 L 373.982 202.818 374.091 210.109 L 374.200 217.400 381.517 217.509 L 388.834 217.618 388.717 225.010 C 388.653 229.075,388.735 232.401,388.900 232.400 C 389.065 232.400,389.200 228.980,389.200 224.800 L 389.200 217.200 381.809 217.200 L 374.418 217.200 374.309 209.900 L 374.200 202.600 366.800 202.587 L 359.400 202.574 366.691 202.696 M292.521 217.498 C 294.677 217.571,298.097 217.570,300.121 217.498 C 302.144 217.425,300.380 217.366,296.200 217.367 C 292.020 217.367,290.364 217.426,292.521 217.498 M344.267 217.467 C 343.897 217.836,343.929 231.909,344.300 232.139 C 344.465 232.241,344.547 229.016,344.483 224.972 L 344.366 217.618 351.683 217.499 L 359.000 217.381 351.767 217.290 C 347.788 217.241,344.413 217.320,344.267 217.467 M318.567 239.800 C 318.567 243.980,318.626 245.636,318.698 243.479 C 318.771 241.323,318.770 237.903,318.698 235.879 C 318.625 233.856,318.566 235.620,318.567 239.800 M373.917 239.800 C 373.853 243.871,373.935 247.201,374.100 247.200 C 374.265 247.200,374.400 243.870,374.400 239.800 C 374.400 235.730,374.318 232.400,374.217 232.400 C 374.116 232.400,373.981 235.730,373.917 239.800 M246.989 271.700 L 244.200 274.600 247.100 271.811 C 249.794 269.220,250.183 268.800,249.889 268.800 C 249.828 268.800,248.523 270.105,246.989 271.700 M152.800 271.800 C 154.217 273.230,155.467 274.400,155.577 274.400 C 155.687 274.400,154.617 273.230,153.200 271.800 C 151.783 270.370,150.533 269.200,150.423 269.200 C 150.313 269.200,151.383 270.370,152.800 271.800 M193.105 291.083 C 193.602 291.179,194.322 291.175,194.705 291.075 C 195.087 290.975,194.680 290.896,193.800 290.901 C 192.920 290.905,192.607 290.987,193.105 291.083 M205.505 291.083 C 206.002 291.179,206.722 291.175,207.105 291.075 C 207.487 290.975,207.080 290.896,206.200 290.901 C 205.320 290.905,205.007 290.987,205.505 291.083 M198.700 291.489 C 199.415 291.578,200.585 291.578,201.300 291.489 C 202.015 291.401,201.430 291.328,200.000 291.328 C 198.570 291.328,197.985 291.401,198.700 291.489 M298.175 314.900 L 297.000 316.200 298.300 315.025 C 299.015 314.379,299.600 313.794,299.600 313.725 C 299.600 313.416,299.270 313.688,298.175 314.900 M105.400 318.800 C 107.812 321.220,109.876 323.200,109.986 323.200 C 110.096 323.200,108.212 321.220,105.800 318.800 C 103.388 316.380,101.324 314.400,101.214 314.400 C 101.104 314.400,102.988 316.380,105.400 318.800 M290.175 322.900 L 289.000 324.200 290.300 323.025 C 291.015 322.379,291.600 321.794,291.600 321.725 C 291.600 321.416,291.270 321.688,290.175 322.900 M138.400 342.984 C 138.400 343.094,139.120 343.551,140.000 344.000 C 140.880 344.449,141.600 344.726,141.600 344.616 C 141.600 344.506,140.880 344.049,140.000 343.600 C 139.120 343.151,138.400 342.874,138.400 342.984 M191.505 357.883 C 192.002 357.979,192.722 357.975,193.105 357.875 C 193.487 357.775,193.080 357.696,192.200 357.701 C 191.320 357.705,191.007 357.787,191.505 357.883 M206.700 357.882 C 207.195 357.978,208.005 357.978,208.500 357.882 C 208.995 357.787,208.590 357.709,207.600 357.709 C 206.610 357.709,206.205 357.787,206.700 357.882 " stroke="none" fill="#649cd3" fill-rule="evenodd"></path><path id="path1" d="M192.600 92.017 C 158.631 93.748,124.833 109.680,102.157 134.650 C 41.847 201.064,61.170 303.953,141.505 344.156 C 146.872 346.842,148.664 347.588,156.600 350.447 C 213.835 371.059,283.591 345.986,313.737 293.965 C 315.347 291.185,316.084 291.968,307.000 286.803 C 302.628 284.317,292.286 278.328,286.600 274.990 C 284.620 273.828,280.030 271.170,276.400 269.085 C 272.770 266.999,268.773 264.687,267.517 263.946 C 261.050 260.133,257.908 258.361,257.813 258.474 C 257.755 258.543,257.209 259.410,256.599 260.400 C 238.295 290.119,198.036 300.362,167.400 283.095 C 121.257 257.088,122.276 190.633,169.200 165.667 C 199.863 149.353,239.727 160.629,257.427 190.623 C 257.876 191.385,258.090 191.280,268.321 185.259 C 271.279 183.517,286.433 174.749,297.698 168.260 C 309.276 161.590,312.118 159.935,313.566 159.022 L 315.167 158.011 313.446 155.105 C 289.488 114.656,241.361 89.531,192.600 92.017 M304.000 210.200 L 304.000 217.600 296.600 217.600 L 289.200 217.600 289.200 224.791 L 289.200 231.982 296.500 232.091 L 303.800 232.200 303.909 239.500 L 304.018 246.800 311.209 246.800 L 318.400 246.800 318.400 239.400 L 318.400 232.000 325.800 232.000 L 333.200 232.000 333.200 224.800 L 333.200 217.600 325.800 217.600 L 318.400 217.600 318.400 210.200 L 318.400 202.800 311.200 202.800 L 304.000 202.800 304.000 210.200 M359.600 210.200 L 359.600 217.600 352.200 217.600 L 344.800 217.600 344.800 224.791 L 344.800 231.982 352.100 232.091 L 359.400 232.200 359.509 239.500 L 359.618 246.800 366.600 246.800 L 373.582 246.800 373.691 239.500 L 373.800 232.200 381.300 232.091 L 388.800 231.982 388.800 224.800 L 388.800 217.618 381.300 217.509 L 373.800 217.400 373.691 210.100 L 373.582 202.800 366.591 202.800 L 359.600 202.800 359.600 210.200 " stroke="none" fill="#fbfbfb" fill-rule="evenodd"></path><path id="path2" d="M393.400 113.333 C 392.520 113.842,386.310 117.422,379.600 121.290 C 372.890 125.158,364.610 129.933,361.200 131.901 C 357.790 133.868,351.940 137.239,348.200 139.392 C 344.460 141.545,339.150 144.609,336.400 146.200 C 333.650 147.791,328.340 150.842,324.600 152.979 C 320.860 155.117,316.900 157.452,315.800 158.170 C 314.700 158.887,311.820 160.612,309.400 162.004 C 306.980 163.395,303.380 165.471,301.400 166.618 C 296.760 169.304,281.005 178.388,273.800 182.531 C 270.720 184.302,266.910 186.519,265.333 187.459 C 263.757 188.399,260.883 190.010,258.947 191.039 C 255.464 192.892,253.151 194.207,237.200 203.403 C 220.659 212.939,213.544 217.036,201.800 223.789 C 187.614 231.946,178.487 237.205,170.000 242.112 C 166.590 244.083,159.570 248.123,154.400 251.088 C 149.230 254.053,144.423 256.831,143.717 257.262 L 142.434 258.044 144.276 260.922 C 169.473 300.286,228.919 301.081,254.781 262.400 C 256.178 260.310,257.450 258.453,257.608 258.273 C 257.862 257.982,263.926 261.300,275.098 267.842 C 281.078 271.344,287.842 275.263,299.000 281.692 C 312.447 289.439,315.600 291.315,315.600 291.569 C 315.600 292.570,307.281 304.452,302.835 309.800 C 267.685 352.081,210.274 368.495,157.800 351.268 C 128.839 341.760,103.516 321.812,86.671 295.238 L 84.341 291.564 81.671 293.047 C 80.202 293.863,75.760 296.414,71.800 298.716 C 63.071 303.790,60.242 305.423,43.600 314.997 C 36.450 319.110,28.800 323.519,26.600 324.794 C 10.649 334.040,5.084 337.200,4.755 337.200 C 4.070 337.200,8.373 343.149,10.913 345.715 C 13.310 348.135,19.452 352.302,24.009 354.598 C 25.214 355.206,26.737 356.085,27.394 356.551 C 28.051 357.018,28.951 357.594,29.394 357.831 C 34.021 360.303,35.894 361.358,36.400 361.778 C 36.730 362.051,38.567 363.118,40.482 364.149 C 42.397 365.179,44.913 366.647,46.073 367.411 C 47.233 368.175,48.315 368.800,48.477 368.800 C 48.639 368.800,50.832 370.015,53.349 371.500 C 55.867 372.985,58.798 374.697,59.863 375.305 C 60.928 375.912,62.358 376.749,63.040 377.163 C 63.722 377.578,65.522 378.584,67.040 379.399 C 68.558 380.214,70.070 381.104,70.400 381.378 C 70.730 381.651,72.620 382.738,74.600 383.793 C 76.580 384.848,78.470 385.940,78.800 386.218 C 79.130 386.496,80.840 387.485,82.600 388.415 C 84.360 389.345,86.070 390.332,86.400 390.608 C 86.730 390.885,88.620 391.969,90.600 393.018 C 92.580 394.067,94.740 395.317,95.400 395.797 C 96.060 396.276,98.220 397.523,100.200 398.569 C 102.180 399.615,104.070 400.697,104.400 400.973 C 104.730 401.249,106.620 402.338,108.600 403.393 C 110.580 404.448,112.470 405.540,112.800 405.818 C 113.130 406.096,114.840 407.085,116.600 408.015 C 118.360 408.945,120.070 409.932,120.400 410.208 C 120.730 410.485,122.620 411.574,124.600 412.630 C 126.580 413.686,128.740 414.948,129.400 415.434 C 130.060 415.920,132.267 417.167,134.304 418.204 C 136.342 419.242,138.098 420.235,138.208 420.412 C 138.317 420.590,140.160 421.679,142.303 422.833 C 144.447 423.986,146.650 425.258,147.200 425.659 C 148.148 426.349,149.585 427.168,157.873 431.749 C 159.813 432.820,162.120 434.190,163.000 434.791 C 163.880 435.393,166.220 436.735,168.200 437.773 C 170.180 438.812,172.070 439.897,172.400 440.184 C 172.730 440.472,174.591 441.554,176.536 442.590 C 178.481 443.626,180.691 444.893,181.446 445.405 C 189.744 451.036,210.256 451.036,218.554 445.405 C 219.309 444.893,221.519 443.626,223.464 442.590 C 225.409 441.554,227.270 440.472,227.600 440.184 C 227.930 439.897,229.820 438.812,231.800 437.773 C 233.780 436.735,236.120 435.393,237.000 434.791 C 237.880 434.190,240.187 432.820,242.127 431.749 C 250.415 427.168,251.852 426.349,252.800 425.659 C 253.350 425.258,255.553 423.986,257.697 422.833 C 259.840 421.679,261.683 420.590,261.792 420.412 C 261.902 420.235,263.658 419.238,265.696 418.196 C 267.733 417.154,270.120 415.806,271.000 415.200 C 271.880 414.593,274.187 413.220,276.127 412.149 C 284.398 407.578,285.852 406.749,286.800 406.063 C 287.350 405.664,289.420 404.469,291.400 403.407 C 293.380 402.344,295.270 401.249,295.600 400.973 C 295.930 400.697,297.820 399.615,299.800 398.569 C 301.780 397.523,303.940 396.276,304.600 395.797 C 305.260 395.317,307.420 394.067,309.400 393.018 C 311.380 391.969,313.270 390.885,313.600 390.608 C 313.930 390.332,315.640 389.345,317.400 388.415 C 319.160 387.485,320.870 386.496,321.200 386.218 C 321.530 385.940,323.420 384.848,325.400 383.793 C 327.380 382.738,329.270 381.649,329.600 381.373 C 329.930 381.097,331.820 380.015,333.800 378.969 C 335.780 377.923,337.940 376.668,338.600 376.179 C 339.260 375.690,340.713 374.833,341.828 374.275 C 342.943 373.716,345.503 372.256,347.516 371.030 C 349.529 369.803,351.320 368.800,351.497 368.800 C 351.674 368.800,352.767 368.175,353.927 367.411 C 355.087 366.647,357.603 365.179,359.518 364.149 C 361.433 363.118,363.270 362.051,363.600 361.778 C 363.930 361.504,365.442 360.614,366.960 359.799 C 368.478 358.984,370.278 357.978,370.960 357.563 C 371.642 357.149,373.076 356.312,374.147 355.705 C 389.851 346.793,394.708 341.699,398.653 330.000 L 399.800 326.600 399.800 224.800 L 399.800 123.000 398.653 119.600 C 397.416 115.930,395.766 112.397,395.293 112.405 C 395.132 112.407,394.280 112.825,393.400 113.333 M318.709 209.900 L 318.818 217.200 326.209 217.200 L 333.600 217.200 333.600 224.800 L 333.600 232.400 326.200 232.400 L 318.800 232.400 318.800 239.800 L 318.800 247.200 311.200 247.200 L 303.600 247.200 303.600 239.800 L 303.600 232.400 296.200 232.400 L 288.800 232.400 288.800 224.800 L 288.800 217.200 296.200 217.200 L 303.600 217.200 303.600 209.791 L 303.600 202.382 311.100 202.491 L 318.600 202.600 318.709 209.900 M374.309 209.900 L 374.418 217.200 381.809 217.200 L 389.200 217.200 389.200 224.800 L 389.200 232.400 381.800 232.400 L 374.400 232.400 374.400 239.800 L 374.400 247.200 366.800 247.200 L 359.200 247.200 359.200 239.809 L 359.200 232.418 351.700 232.309 L 344.200 232.200 344.200 224.800 L 344.200 217.400 351.700 217.291 L 359.200 217.182 359.200 209.782 L 359.200 202.382 366.700 202.491 L 374.200 202.600 374.309 209.900 " stroke="none" fill="#044d8d" fill-rule="evenodd"></path><path id="path3" d="M190.900 91.876 C 191.285 91.976,191.915 91.976,192.300 91.876 C 192.685 91.775,192.370 91.693,191.600 91.693 C 190.830 91.693,190.515 91.775,190.900 91.876 M207.300 91.876 C 207.685 91.976,208.315 91.976,208.700 91.876 C 209.085 91.775,208.770 91.693,208.000 91.693 C 207.230 91.693,206.915 91.775,207.300 91.876 M258.400 104.984 C 258.400 105.094,259.120 105.551,260.000 106.000 C 260.880 106.449,261.600 106.726,261.600 106.616 C 261.600 106.506,260.880 106.049,260.000 105.600 C 259.120 105.151,258.400 104.874,258.400 104.984 M288.800 125.325 C 288.800 125.394,289.385 125.979,290.100 126.625 L 291.400 127.800 290.225 126.500 C 289.130 125.288,288.800 125.016,288.800 125.325 M109.375 126.900 L 108.200 128.200 109.500 127.025 C 110.712 125.930,110.984 125.600,110.675 125.600 C 110.606 125.600,110.021 126.185,109.375 126.900 M101.781 134.500 L 100.200 136.200 101.900 134.619 C 103.481 133.148,103.784 132.800,103.481 132.800 C 103.416 132.800,102.651 133.565,101.781 134.500 M297.600 134.125 C 297.600 134.194,298.185 134.779,298.900 135.425 L 300.200 136.600 299.025 135.300 C 297.930 134.088,297.600 133.816,297.600 134.125 M194.705 158.683 C 195.202 158.779,195.922 158.775,196.305 158.675 C 196.687 158.575,196.280 158.496,195.400 158.501 C 194.520 158.505,194.207 158.587,194.705 158.683 M203.500 158.682 C 203.995 158.778,204.805 158.778,205.300 158.682 C 205.795 158.587,205.390 158.509,204.400 158.509 C 203.410 158.509,203.005 158.587,203.500 158.682 M247.000 178.000 C 248.083 179.100,249.060 180.000,249.170 180.000 C 249.280 180.000,248.483 179.100,247.400 178.000 C 246.317 176.900,245.340 176.000,245.230 176.000 C 245.120 176.000,245.917 176.900,247.000 178.000 M152.581 178.100 L 151.000 179.800 152.700 178.219 C 154.281 176.748,154.584 176.400,154.281 176.400 C 154.216 176.400,153.451 177.165,152.581 178.100 M359.199 210.081 C 359.090 214.195,359.139 217.422,359.310 217.251 C 359.480 217.081,359.569 213.714,359.509 209.770 L 359.398 202.600 359.199 210.081 M66.901 213.800 C 66.905 214.680,66.987 214.993,67.083 214.495 C 67.179 213.998,67.175 213.278,67.075 212.895 C 66.975 212.513,66.896 212.920,66.901 213.800 M66.566 224.800 C 66.566 228.870,66.625 230.535,66.698 228.500 C 66.771 226.465,66.771 223.135,66.698 221.100 C 66.625 219.065,66.566 220.730,66.566 224.800 M133.701 219.000 C 133.705 219.880,133.787 220.193,133.883 219.695 C 133.979 219.198,133.975 218.478,133.875 218.095 C 133.775 217.713,133.696 218.120,133.701 219.000 M344.586 224.900 L 344.600 232.200 351.891 232.309 L 359.182 232.418 359.291 239.709 L 359.400 247.000 366.500 247.014 L 373.601 247.029 366.609 246.905 L 359.618 246.782 359.509 239.491 L 359.400 232.200 352.109 232.091 L 344.818 231.982 344.695 224.791 L 344.572 217.599 344.586 224.900 M133.309 224.800 C 133.309 225.790,133.387 226.195,133.482 225.700 C 133.578 225.205,133.578 224.395,133.482 223.900 C 133.387 223.405,133.309 223.810,133.309 224.800 M133.693 230.800 C 133.693 231.570,133.775 231.885,133.876 231.500 C 133.976 231.115,133.976 230.485,133.876 230.100 C 133.775 229.715,133.693 230.030,133.693 230.800 M292.700 232.298 C 294.735 232.371,298.065 232.371,300.100 232.298 C 302.135 232.225,300.470 232.166,296.400 232.166 C 292.330 232.166,290.665 232.225,292.700 232.298 M322.300 232.298 C 324.335 232.371,327.665 232.371,329.700 232.298 C 331.735 232.225,330.070 232.166,326.000 232.166 C 321.930 232.166,320.265 232.225,322.300 232.298 M377.680 232.298 C 379.594 232.371,382.834 232.371,384.880 232.298 C 386.926 232.226,385.360 232.166,381.400 232.165 C 377.440 232.165,375.766 232.224,377.680 232.298 M66.901 235.800 C 66.905 236.680,66.987 236.993,67.083 236.495 C 67.179 235.998,67.175 235.278,67.075 234.895 C 66.975 234.513,66.896 234.920,66.901 235.800 M307.500 247.098 C 309.535 247.171,312.865 247.171,314.900 247.098 C 316.935 247.025,315.270 246.966,311.200 246.966 C 307.130 246.966,305.465 247.025,307.500 247.098 M295.578 317.500 L 294.200 319.000 295.700 317.622 C 297.096 316.338,297.384 316.000,297.078 316.000 C 297.012 316.000,296.337 316.675,295.578 317.500 M194.100 357.876 C 194.485 357.976,195.115 357.976,195.500 357.876 C 195.885 357.775,195.570 357.693,194.800 357.693 C 194.030 357.693,193.715 357.775,194.100 357.876 M204.100 357.876 C 204.485 357.976,205.115 357.976,205.500 357.876 C 205.885 357.775,205.570 357.693,204.800 357.693 C 204.030 357.693,203.715 357.775,204.100 357.876 " stroke="none" fill="#9abcdd" fill-rule="evenodd"></path><path id="path4" d="M193.891 91.889 C 194.601 91.977,195.861 91.979,196.691 91.892 C 197.521 91.805,196.940 91.733,195.400 91.731 C 193.860 91.729,193.181 91.800,193.891 91.889 M202.691 91.889 C 203.401 91.977,204.661 91.979,205.491 91.892 C 206.321 91.805,205.740 91.733,204.200 91.731 C 202.660 91.729,201.981 91.800,202.691 91.889 M142.400 104.600 C 141.410 105.130,140.780 105.564,141.000 105.564 C 141.220 105.564,142.210 105.130,143.200 104.600 C 144.190 104.070,144.820 103.636,144.600 103.636 C 144.380 103.636,143.390 104.070,142.400 104.600 M288.400 125.400 C 289.146 126.170,289.847 126.800,289.957 126.800 C 290.067 126.800,289.546 126.170,288.800 125.400 C 288.054 124.630,287.353 124.000,287.243 124.000 C 287.133 124.000,287.654 124.630,288.400 125.400 M110.778 125.900 L 109.400 127.400 110.900 126.022 C 111.725 125.263,112.400 124.588,112.400 124.522 C 112.400 124.216,112.062 124.504,110.778 125.900 M294.200 130.800 C 295.950 132.560,297.471 134.000,297.581 134.000 C 297.691 134.000,296.350 132.560,294.600 130.800 C 292.850 129.040,291.329 127.600,291.219 127.600 C 291.109 127.600,292.450 129.040,294.200 130.800 M100.575 136.100 L 99.400 137.400 100.700 136.225 C 101.415 135.579,102.000 134.994,102.000 134.925 C 102.000 134.616,101.670 134.888,100.575 136.100 M299.600 136.600 C 300.346 137.370,301.047 138.000,301.157 138.000 C 301.267 138.000,300.746 137.370,300.000 136.600 C 299.254 135.830,298.553 135.200,298.443 135.200 C 298.333 135.200,298.854 135.830,299.600 136.600 M197.500 158.296 C 198.875 158.374,201.125 158.374,202.500 158.296 C 203.875 158.218,202.750 158.154,200.000 158.154 C 197.250 158.154,196.125 158.218,197.500 158.296 M191.905 158.683 C 192.402 158.779,193.122 158.775,193.505 158.675 C 193.887 158.575,193.480 158.496,192.600 158.501 C 191.720 158.505,191.407 158.587,191.905 158.683 M206.500 158.676 C 206.885 158.776,207.515 158.776,207.900 158.676 C 208.285 158.575,207.970 158.493,207.200 158.493 C 206.430 158.493,206.115 158.575,206.500 158.676 M172.800 163.800 C 172.250 164.114,171.980 164.372,172.200 164.372 C 172.420 164.372,173.050 164.114,173.600 163.800 C 174.150 163.486,174.420 163.228,174.200 163.228 C 173.980 163.228,173.350 163.486,172.800 163.800 M227.200 164.200 C 227.750 164.514,228.380 164.772,228.600 164.772 C 228.820 164.772,228.550 164.514,228.000 164.200 C 227.450 163.886,226.820 163.628,226.600 163.628 C 226.380 163.628,226.650 163.886,227.200 164.200 M242.800 173.725 C 242.800 173.794,243.385 174.379,244.100 175.025 L 245.400 176.200 244.225 174.900 C 243.130 173.688,242.800 173.416,242.800 173.725 M155.375 175.300 L 154.200 176.600 155.500 175.425 C 156.712 174.330,156.984 174.000,156.675 174.000 C 156.606 174.000,156.021 174.585,155.375 175.300 M149.775 180.900 L 148.600 182.200 149.900 181.025 C 150.615 180.379,151.200 179.794,151.200 179.725 C 151.200 179.416,150.870 179.688,149.775 180.900 M249.200 180.125 C 249.200 180.194,249.785 180.779,250.500 181.425 L 251.800 182.600 250.625 181.300 C 249.530 180.088,249.200 179.816,249.200 180.125 M303.767 210.200 C 303.767 214.380,303.826 216.036,303.898 213.879 C 303.971 211.723,303.970 208.303,303.898 206.279 C 303.825 204.256,303.766 206.020,303.767 210.200 M373.678 209.876 C 373.635 213.878,373.735 217.237,373.900 217.339 C 374.065 217.442,374.153 215.337,374.095 212.663 C 373.899 203.544,373.757 202.591,373.678 209.876 M66.909 216.800 C 66.909 217.790,66.987 218.195,67.082 217.700 C 67.178 217.205,67.178 216.395,67.082 215.900 C 66.987 215.405,66.909 215.810,66.909 216.800 M288.966 224.800 C 288.966 228.870,289.025 230.535,289.098 228.500 C 289.171 226.465,289.171 223.135,289.098 221.100 C 289.025 219.065,288.966 220.730,288.966 224.800 M133.320 221.200 C 133.320 222.410,133.395 222.905,133.487 222.300 C 133.578 221.695,133.578 220.705,133.487 220.100 C 133.395 219.495,133.320 219.990,133.320 221.200 M133.320 228.400 C 133.320 229.610,133.395 230.105,133.487 229.500 C 133.578 228.895,133.578 227.905,133.487 227.300 C 133.395 226.695,133.320 227.190,133.320 228.400 M66.909 232.800 C 66.909 233.790,66.987 234.195,67.082 233.700 C 67.178 233.205,67.178 232.395,67.082 231.900 C 66.987 231.405,66.909 231.810,66.909 232.800 M373.778 232.514 C 373.669 232.797,373.630 236.172,373.691 240.014 L 373.802 247.000 374.001 239.500 C 374.196 232.140,374.175 231.478,373.778 232.514 M303.766 239.600 C 303.766 243.670,303.825 245.335,303.898 243.300 C 303.971 241.265,303.971 237.935,303.898 235.900 C 303.825 233.865,303.766 235.530,303.766 239.600 M248.378 270.700 L 247.000 272.200 248.500 270.822 C 249.896 269.538,250.184 269.200,249.878 269.200 C 249.812 269.200,249.137 269.875,248.378 270.700 M152.600 272.000 C 153.459 272.880,154.252 273.600,154.362 273.600 C 154.472 273.600,153.859 272.880,153.000 272.000 C 152.141 271.120,151.348 270.400,151.238 270.400 C 151.128 270.400,151.741 271.120,152.600 272.000 M102.800 315.800 C 103.546 316.570,104.247 317.200,104.357 317.200 C 104.467 317.200,103.946 316.570,103.200 315.800 C 102.454 315.030,101.753 314.400,101.643 314.400 C 101.533 314.400,102.054 315.030,102.800 315.800 M108.800 321.800 C 109.546 322.570,110.247 323.200,110.357 323.200 C 110.467 323.200,109.946 322.570,109.200 321.800 C 108.454 321.030,107.753 320.400,107.643 320.400 C 107.533 320.400,108.054 321.030,108.800 321.800 M197.913 357.895 C 199.076 357.976,200.876 357.976,201.913 357.893 C 202.951 357.811,202.000 357.745,199.800 357.746 C 197.600 357.747,196.751 357.814,197.913 357.895 " stroke="none" fill="#b4cce6" fill-rule="evenodd"></path></g></svg>