<svg id="svg" version="1.1" xmlns="http://www.w3.org/2000/svg" xmlns:xlink="http://www.w3.org/1999/xlink" width="400" height="359.22038980509745" viewBox="0, 0, 400,359.22038980509745"><g id="svgg"><path id="path0" d="M253.840 9.434 C 249.243 13.844,245.246 20.406,241.526 29.650 C 240.492 32.219,239.432 34.807,239.171 35.400 C 238.111 37.800,236.872 40.881,236.353 42.408 C 235.698 44.334,233.598 50.059,232.530 52.830 C 232.112 53.917,231.517 55.535,231.209 56.424 C 230.164 59.443,226.732 68.091,225.361 71.159 C 224.610 72.839,223.551 75.346,223.008 76.730 C 222.464 78.113,221.715 79.931,221.342 80.769 C 220.970 81.607,220.665 82.385,220.665 82.499 C 220.665 82.613,220.261 83.589,219.766 84.670 C 219.272 85.750,218.868 86.778,218.868 86.954 C 218.868 87.129,218.635 87.731,218.351 88.291 C 217.666 89.640,215.993 93.419,215.993 93.617 C 215.993 93.703,215.250 95.356,214.342 97.291 C 212.201 101.852,209.524 107.782,209.524 107.963 C 209.524 108.042,208.891 109.456,208.117 111.106 C 207.343 112.756,205.785 116.208,204.655 118.778 C 203.525 121.348,202.136 124.409,201.570 125.580 C 199.784 129.272,200.362 129.291,202.359 125.606 C 203.692 123.147,210.315 109.890,211.965 106.379 C 212.569 105.094,213.983 102.102,215.109 99.730 C 216.234 97.358,217.763 94.043,218.507 92.363 C 219.251 90.683,220.830 87.287,222.017 84.816 C 224.178 80.318,227.143 73.703,229.267 68.643 C 230.701 65.229,231.799 62.667,233.207 59.450 C 233.820 58.051,234.322 56.755,234.322 56.570 C 234.322 56.385,234.634 55.650,235.017 54.937 C 235.399 54.224,236.142 52.609,236.668 51.348 C 237.987 48.189,238.307 47.461,240.364 42.947 C 241.355 40.773,243.238 36.487,244.547 33.423 C 245.857 30.359,247.246 27.287,247.635 26.595 C 248.023 25.903,250.134 21.779,252.325 17.430 C 254.516 13.082,256.537 9.268,256.816 8.956 C 257.495 8.196,257.459 7.188,256.752 7.188 C 256.439 7.188,255.128 8.199,253.840 9.434 M143.396 119.327 C 143.396 119.788,141.235 121.677,140.836 121.563 C 140.663 121.514,140.559 121.595,140.605 121.743 C 140.746 122.201,139.335 123.606,138.964 123.376 C 138.771 123.257,138.711 123.317,138.830 123.510 C 139.060 123.882,137.655 125.293,137.197 125.151 C 137.049 125.105,136.965 125.189,137.011 125.337 C 137.142 125.762,135.755 127.208,135.417 126.999 C 135.249 126.896,135.157 126.947,135.211 127.114 C 135.307 127.408,134.932 127.941,133.603 129.406 C 133.257 129.787,132.974 130.247,132.974 130.428 C 132.974 130.609,132.775 130.824,132.532 130.905 C 132.276 130.990,132.531 131.341,133.138 131.739 C 135.518 133.298,140.592 132.277,147.529 128.842 C 157.016 124.144,157.193 121.418,148.068 120.538 C 146.783 120.414,145.207 120.014,144.564 119.648 C 143.922 119.281,143.396 119.137,143.396 119.327 M199.862 128.901 C 199.839 129.132,199.716 129.618,199.588 129.980 C 199.407 130.490,199.455 130.546,199.801 130.227 C 200.046 130.001,200.170 129.516,200.075 129.149 C 199.981 128.782,199.885 128.671,199.862 128.901 M111.231 154.178 C 111.109 154.376,110.695 154.537,110.311 154.537 C 109.928 154.537,109.614 154.699,109.614 154.897 C 109.614 155.094,109.313 155.256,108.945 155.256 C 108.577 155.256,107.681 155.660,106.952 156.155 C 106.224 156.649,105.420 157.053,105.165 157.053 C 104.910 157.053,104.581 157.174,104.432 157.323 C 104.284 157.471,104.055 157.600,103.923 157.610 C 103.792 157.620,102.924 157.984,101.996 158.419 C 101.068 158.854,100.136 159.209,99.925 159.209 C 99.714 159.209,99.260 159.352,98.917 159.527 C 97.606 160.194,96.454 160.613,95.328 160.834 C 94.686 160.960,94.160 161.212,94.160 161.394 C 94.160 161.576,93.836 161.725,93.441 161.725 C 93.046 161.725,92.722 161.877,92.722 162.062 C 92.722 162.248,91.954 162.513,91.015 162.651 C 90.076 162.790,89.227 163.002,89.128 163.123 C 88.705 163.641,87.274 164.241,86.464 164.241 C 85.981 164.241,85.372 164.443,85.111 164.691 C 84.850 164.938,83.747 165.452,82.659 165.832 C 81.572 166.212,80.152 166.818,79.504 167.179 C 78.855 167.540,77.937 167.835,77.463 167.835 C 76.989 167.835,76.383 168.037,76.116 168.284 C 75.480 168.873,70.513 171.317,69.362 171.607 C 68.485 171.828,67.225 172.315,66.116 172.862 C 65.813 173.012,65.009 173.256,64.331 173.405 C 63.652 173.554,62.848 173.804,62.545 173.960 C 62.243 174.116,61.348 174.507,60.557 174.830 C 59.766 175.153,58.839 175.571,58.495 175.759 C 58.152 175.947,57.465 176.101,56.968 176.101 C 56.471 176.101,56.065 176.240,56.065 176.411 C 56.065 176.582,55.296 177.008,54.358 177.357 C 53.419 177.706,52.497 178.133,52.309 178.304 C 52.121 178.476,51.717 178.617,51.411 178.619 C 51.104 178.620,50.390 178.862,49.824 179.158 C 49.258 179.453,48.571 179.695,48.297 179.695 C 48.023 179.695,47.799 179.825,47.799 179.985 C 47.799 180.388,45.210 181.491,44.264 181.491 C 43.836 181.491,43.486 181.647,43.486 181.838 C 43.486 182.028,42.512 182.483,41.322 182.848 C 40.132 183.214,39.269 183.624,39.405 183.760 C 39.541 183.896,39.394 184.007,39.077 184.007 C 38.760 184.007,38.127 184.150,37.669 184.324 C 37.212 184.498,36.749 184.619,36.642 184.593 C 36.534 184.567,36.049 184.804,35.564 185.118 C 34.678 185.692,32.759 186.333,32.255 186.222 C 32.107 186.190,31.986 186.325,31.986 186.523 C 31.986 186.721,31.581 186.882,31.087 186.882 C 30.593 186.882,30.189 187.031,30.189 187.213 C 30.189 187.395,29.668 187.658,29.032 187.798 C 28.397 187.938,27.628 188.179,27.325 188.335 C 25.893 189.072,24.097 189.757,23.597 189.757 C 23.292 189.757,22.943 189.919,22.821 190.117 C 22.699 190.314,22.274 190.476,21.876 190.476 C 21.478 190.476,20.910 190.719,20.614 191.015 C 20.317 191.312,19.714 191.554,19.273 191.554 C 18.380 191.554,16.539 192.320,16.535 192.694 C 16.533 192.826,16.047 193.041,15.454 193.172 C 14.861 193.302,14.376 193.518,14.376 193.652 C 14.376 194.050,9.918 195.867,8.941 195.867 C 8.570 195.867,8.266 196.013,8.266 196.191 C 8.266 196.590,6.252 197.327,5.960 197.036 C 5.845 196.920,5.750 197.014,5.750 197.245 C 5.750 197.475,5.346 197.664,4.852 197.664 C 4.358 197.664,3.953 197.792,3.953 197.949 C 3.953 198.106,3.064 198.536,1.977 198.906 C -0.340 199.693,-0.692 200.727,0.988 201.816 C 1.532 202.168,2.305 202.834,2.707 203.295 C 3.108 203.756,3.657 204.133,3.925 204.133 C 4.194 204.133,4.620 204.416,4.873 204.762 C 5.126 205.108,5.467 205.405,5.631 205.422 C 6.292 205.491,7.398 206.093,7.907 206.662 C 8.203 206.994,8.810 207.380,9.254 207.520 C 9.699 207.660,10.063 208.007,10.063 208.290 C 10.063 208.573,10.225 208.805,10.422 208.805 C 10.620 208.805,11.075 209.088,11.434 209.434 C 11.793 209.780,12.642 210.375,13.321 210.756 C 14.000 211.137,14.817 211.744,15.136 212.104 C 15.456 212.464,15.873 212.758,16.062 212.758 C 16.252 212.758,16.779 213.154,17.233 213.638 C 17.688 214.122,18.484 214.612,19.003 214.726 C 19.522 214.840,20.328 215.415,20.795 216.002 C 21.262 216.590,21.795 217.071,21.980 217.071 C 22.165 217.071,22.691 217.475,23.149 217.969 C 23.607 218.464,24.154 218.868,24.364 218.868 C 24.574 218.868,24.967 219.070,25.237 219.317 C 25.952 219.973,27.043 220.655,27.763 220.897 C 28.109 221.013,28.392 221.249,28.392 221.421 C 28.392 221.593,29.079 222.158,29.919 222.676 C 30.759 223.194,31.619 223.833,31.829 224.096 C 32.040 224.359,32.431 224.624,32.698 224.686 C 33.152 224.791,33.542 225.067,35.140 226.415 C 36.238 227.341,38.781 228.931,39.166 228.931 C 39.368 228.931,39.533 229.056,39.533 229.208 C 39.533 229.361,40.058 229.771,40.701 230.118 C 41.343 230.466,42.435 231.229,43.127 231.814 C 43.819 232.398,44.580 233.040,44.819 233.240 C 45.057 233.439,45.421 233.603,45.627 233.603 C 45.833 233.603,46.002 233.728,46.002 233.881 C 46.002 234.033,46.588 234.474,47.304 234.860 C 48.020 235.245,48.848 235.929,49.142 236.379 C 49.437 236.829,49.843 237.197,50.044 237.197 C 50.245 237.197,50.688 237.518,51.028 237.910 C 51.368 238.302,52.034 238.688,52.508 238.768 C 52.982 238.847,53.325 239.104,53.271 239.339 C 53.216 239.574,53.310 239.681,53.478 239.576 C 53.647 239.472,54.308 239.864,54.947 240.448 C 55.586 241.032,56.233 241.509,56.384 241.509 C 56.535 241.509,57.038 241.914,57.502 242.408 C 57.966 242.902,58.561 243.306,58.823 243.306 C 59.085 243.306,59.299 243.468,59.299 243.666 C 59.299 243.863,59.494 244.025,59.733 244.025 C 60.105 244.025,64.175 246.667,64.690 247.243 C 64.789 247.354,65.653 248.009,66.611 248.700 C 67.569 249.390,68.647 250.225,69.007 250.554 C 69.367 250.883,69.756 251.059,69.871 250.943 C 69.987 250.828,70.081 250.922,70.081 251.153 C 70.081 251.384,70.265 251.572,70.490 251.572 C 70.716 251.572,71.080 251.801,71.299 252.080 C 71.519 252.359,72.301 252.903,73.039 253.289 C 73.776 253.674,75.120 254.652,76.024 255.462 C 76.928 256.271,78.537 257.431,79.600 258.038 C 80.662 258.646,82.045 259.623,82.672 260.210 C 83.300 260.796,83.889 261.276,83.981 261.276 C 84.073 261.276,84.391 261.518,84.687 261.815 C 85.554 262.681,89.488 261.975,89.488 260.953 C 89.488 260.820,90.013 260.405,90.656 260.030 C 91.298 259.655,92.390 258.907,93.082 258.368 C 93.774 257.829,96.280 256.368,98.652 255.122 C 101.024 253.875,103.336 252.486,103.790 252.034 C 104.244 251.583,104.752 251.213,104.919 251.213 C 105.087 251.213,105.317 250.970,105.431 250.674 C 105.545 250.377,105.885 250.135,106.188 250.135 C 106.491 250.135,106.739 249.973,106.739 249.775 C 106.739 249.578,106.922 249.416,107.147 249.416 C 107.371 249.416,107.929 249.012,108.387 248.518 C 108.845 248.023,109.389 247.619,109.596 247.619 C 109.804 247.619,109.973 247.468,109.973 247.284 C 109.973 247.100,110.259 246.858,110.609 246.747 C 111.581 246.439,115.364 242.725,115.364 242.079 C 115.364 241.766,115.526 241.509,115.723 241.509 C 115.921 241.509,116.083 241.267,116.083 240.970 C 116.083 240.674,116.223 240.431,116.395 240.431 C 116.567 240.431,116.794 239.668,116.899 238.736 C 117.004 237.804,117.268 236.981,117.485 236.909 C 117.702 236.837,117.880 236.238,117.880 235.580 C 117.880 234.921,118.035 234.328,118.225 234.262 C 118.414 234.196,118.680 232.808,118.815 231.177 C 118.950 229.546,119.200 228.212,119.369 228.212 C 119.538 228.212,119.677 227.740,119.677 227.164 C 119.677 226.587,119.837 226.062,120.034 225.996 C 120.230 225.930,120.497 224.380,120.627 222.552 C 120.756 220.723,121.000 219.227,121.168 219.227 C 121.336 219.227,121.473 218.432,121.473 217.460 C 121.473 216.488,121.628 215.639,121.818 215.574 C 122.007 215.508,122.255 213.270,122.369 210.602 C 122.483 207.934,122.733 205.696,122.923 205.630 C 123.360 205.480,123.398 183.288,122.962 183.288 C 122.792 183.288,122.536 179.933,122.393 175.831 C 122.251 171.730,121.985 168.320,121.804 168.254 C 121.622 168.188,121.473 167.501,121.473 166.727 C 121.473 165.952,121.331 165.319,121.156 165.319 C 120.981 165.319,120.754 164.996,120.651 164.600 C 120.417 163.705,120.655 163.702,121.990 164.582 C 122.571 164.965,123.177 165.197,123.338 165.098 C 123.498 164.998,123.630 165.088,123.630 165.298 C 123.630 165.507,123.831 165.678,124.078 165.678 C 124.324 165.678,123.623 164.829,122.519 163.792 C 120.505 161.897,120.169 161.608,117.085 159.116 C 115.993 158.233,115.100 157.080,114.510 155.791 C 113.609 153.824,111.953 153.009,111.231 154.178 M115.903 248.480 C 115.508 248.735,114.052 249.610,112.668 250.425 C 109.036 252.565,105.615 256.065,106.853 256.376 C 107.346 256.499,107.978 256.688,108.256 256.795 C 108.817 257.010,109.512 256.385,113.836 251.780 C 116.988 248.423,117.664 247.344,115.903 248.480 " stroke="none" fill="#67c5be" fill-rule="evenodd"></path><path id="path1" d="M257.851 3.476 C 257.589 3.738,257.282 3.953,257.169 3.953 C 257.056 3.953,256.297 4.600,255.483 5.391 C 254.668 6.181,253.870 6.828,253.710 6.828 C 253.549 6.828,253.321 7.133,253.203 7.504 C 253.085 7.876,252.549 8.269,252.011 8.378 C 251.473 8.487,250.710 8.887,250.314 9.268 C 249.134 10.404,247.978 11.844,247.978 12.178 C 247.978 12.350,247.738 12.690,247.443 12.935 C 247.149 13.179,246.998 13.523,247.107 13.700 C 247.216 13.877,247.053 14.118,246.745 14.236 C 246.438 14.354,246.286 14.613,246.408 14.810 C 246.530 15.008,245.882 15.886,244.968 16.762 C 243.270 18.389,243.033 18.836,243.666 19.227 C 243.863 19.349,244.025 19.602,244.025 19.788 C 244.025 19.974,243.863 20.126,243.666 20.126 C 243.468 20.126,243.306 19.863,243.306 19.543 C 243.306 19.065,243.209 19.041,242.767 19.407 C 242.471 19.653,242.228 20.047,242.228 20.282 C 242.228 20.517,241.945 21.031,241.599 21.425 C 240.891 22.232,240.189 23.278,239.818 24.079 C 239.680 24.376,239.277 24.861,238.921 25.157 C 238.565 25.454,238.223 26.198,238.159 26.810 C 238.009 28.272,236.287 31.543,232.921 36.762 C 231.418 39.093,229.780 41.761,229.281 42.692 C 227.386 46.225,225.852 48.797,223.880 51.752 C 222.758 53.432,220.459 56.909,218.770 59.479 C 217.080 62.049,214.914 65.202,213.957 66.487 C 212.999 67.772,211.650 69.711,210.959 70.796 C 210.269 71.881,208.967 73.660,208.066 74.749 C 207.166 75.838,205.723 77.691,204.859 78.865 C 199.321 86.399,185.118 100.776,179.912 104.119 C 178.508 105.020,176.699 106.212,175.892 106.766 C 169.799 110.954,159.668 114.403,153.954 114.235 C 150.695 114.140,148.999 114.741,147.062 116.678 C 146.797 116.944,146.418 117.161,146.220 117.161 C 145.734 117.161,144.834 118.091,144.834 118.594 C 144.834 118.817,144.683 118.907,144.499 118.793 C 144.315 118.680,144.067 118.744,143.948 118.937 C 143.592 119.513,145.579 120.282,148.068 120.530 C 157.195 121.441,157.020 124.142,147.529 128.842 C 140.602 132.272,135.659 133.267,133.108 131.745 L 131.983 131.074 130.682 132.414 C 129.966 133.151,129.380 133.903,129.380 134.085 C 129.380 134.266,128.571 135.207,127.583 136.175 C 126.595 137.142,125.785 138.071,125.783 138.239 C 125.781 138.407,125.215 139.140,124.525 139.868 C 120.974 143.615,127.879 144.876,138.904 142.494 C 141.276 141.981,144.089 141.413,145.155 141.232 C 149.303 140.525,158.912 137.141,163.522 134.763 C 165.004 133.998,168.643 132.204,171.608 130.777 C 174.573 129.349,177.889 127.588,178.976 126.863 C 180.063 126.137,182.650 124.575,184.726 123.390 C 187.937 121.557,189.580 120.685,194.364 118.269 C 197.630 116.619,201.977 115.577,201.977 116.442 C 201.977 116.640,202.219 116.801,202.516 116.801 C 202.812 116.801,203.055 117.027,203.055 117.303 C 203.055 119.317,189.716 146.518,183.340 157.505 C 181.533 160.619,180.054 163.232,180.054 163.311 C 180.054 164.445,162.463 192.494,161.301 193.211 C 160.758 193.547,160.471 193.025,160.940 192.555 C 161.745 191.750,161.351 191.313,156.281 187.396 C 153.484 185.236,150.451 182.807,149.542 181.999 C 148.633 181.191,146.939 179.837,145.779 178.991 C 144.618 178.144,143.385 177.188,143.039 176.866 C 142.693 176.544,141.391 175.472,140.147 174.483 C 138.903 173.495,136.739 171.711,135.339 170.519 C 133.940 169.327,131.717 167.506,130.401 166.471 C 128.000 164.584,122.984 159.484,121.897 157.825 C 121.577 157.337,120.462 156.057,119.418 154.979 C 118.374 153.901,117.520 152.745,117.520 152.410 C 117.520 150.759,116.568 150.335,115.391 151.460 C 114.783 152.040,114.286 152.728,114.286 152.987 C 114.286 153.257,113.862 153.469,113.297 153.482 C 112.401 153.503,112.379 153.533,113.059 153.808 C 113.475 153.976,114.155 154.916,114.586 155.917 C 115.095 157.101,115.947 158.195,117.060 159.095 C 120.176 161.614,120.502 161.895,122.519 163.792 C 123.623 164.829,124.324 165.678,124.078 165.678 C 123.831 165.678,123.630 165.507,123.630 165.298 C 123.630 165.088,123.498 164.998,123.338 165.098 C 123.177 165.197,122.571 164.965,121.990 164.582 C 120.655 163.702,120.417 163.705,120.651 164.600 C 120.754 164.996,120.981 165.319,121.156 165.319 C 121.331 165.319,121.473 165.952,121.473 166.727 C 121.473 167.501,121.622 168.188,121.804 168.254 C 121.985 168.320,122.251 171.730,122.393 175.831 C 122.536 179.933,122.792 183.288,122.962 183.288 C 123.398 183.288,123.360 205.480,122.923 205.630 C 122.733 205.696,122.483 207.934,122.369 210.602 C 122.255 213.270,122.007 215.508,121.818 215.574 C 121.628 215.639,121.473 216.488,121.473 217.460 C 121.473 218.432,121.336 219.227,121.168 219.227 C 121.000 219.227,120.756 220.723,120.627 222.552 C 120.497 224.380,120.230 225.930,120.034 225.996 C 119.837 226.062,119.677 226.587,119.677 227.164 C 119.677 227.740,119.538 228.212,119.369 228.212 C 119.200 228.212,118.950 229.546,118.815 231.177 C 118.680 232.808,118.414 234.196,118.225 234.262 C 118.035 234.328,117.880 234.921,117.880 235.580 C 117.880 236.238,117.702 236.837,117.485 236.909 C 117.268 236.981,117.004 237.804,116.899 238.736 C 116.794 239.668,116.567 240.431,116.395 240.431 C 116.223 240.431,116.083 240.674,116.083 240.970 C 116.083 241.267,115.921 241.509,115.723 241.509 C 115.526 241.509,115.364 241.766,115.364 242.079 C 115.364 242.725,111.581 246.439,110.609 246.747 C 110.259 246.858,109.973 247.100,109.973 247.284 C 109.973 247.468,109.804 247.619,109.596 247.619 C 109.389 247.619,108.845 248.023,108.387 248.518 C 107.929 249.012,107.371 249.416,107.147 249.416 C 106.922 249.416,106.739 249.578,106.739 249.775 C 106.739 249.973,106.491 250.135,106.188 250.135 C 105.885 250.135,105.545 250.377,105.431 250.674 C 105.317 250.970,105.087 251.213,104.919 251.213 C 104.752 251.213,104.244 251.583,103.790 252.034 C 103.336 252.486,101.024 253.875,98.652 255.122 C 96.280 256.368,93.774 257.829,93.082 258.368 C 92.390 258.907,91.298 259.655,90.656 260.030 C 89.510 260.699,89.136 261.276,89.847 261.276 C 90.045 261.276,90.207 261.114,90.207 260.916 C 90.207 260.719,90.580 260.557,91.036 260.557 C 91.493 260.557,92.180 260.320,92.564 260.029 C 92.948 259.739,93.644 259.497,94.112 259.490 C 94.815 259.481,94.934 259.328,94.797 258.614 C 94.647 257.829,94.986 257.570,98.439 255.829 C 100.533 254.772,102.300 253.787,102.366 253.639 C 102.432 253.491,102.739 253.369,103.049 253.369 C 103.359 253.369,102.937 253.858,102.112 254.456 C 101.287 255.053,100.293 255.862,99.902 256.253 C 99.061 257.094,98.899 258.012,99.711 257.339 C 99.996 257.102,101.811 256.814,103.743 256.698 C 105.675 256.583,106.976 256.391,106.633 256.271 C 105.955 256.033,109.401 252.387,111.590 251.027 C 114.291 249.348,116.801 248.044,116.801 248.320 C 116.801 248.607,111.934 253.933,109.923 255.847 L 108.975 256.749 109.875 257.215 C 110.369 257.472,111.243 257.682,111.816 257.682 C 112.389 257.682,113.194 257.884,113.606 258.131 C 114.289 258.542,114.544 258.366,116.566 256.089 C 117.782 254.719,121.347 251.000,124.487 247.823 C 127.628 244.647,130.775 241.321,131.483 240.431 C 132.190 239.542,133.583 237.908,134.578 236.801 C 136.591 234.562,139.271 231.284,142.452 227.168 C 143.612 225.667,145.230 223.632,146.046 222.647 C 146.862 221.662,147.718 220.611,147.948 220.311 C 148.179 220.011,149.080 218.874,149.952 217.782 C 151.874 215.376,157.025 208.600,157.772 207.497 C 163.065 199.675,165.244 196.379,167.835 192.270 C 168.922 190.546,170.120 188.668,170.498 188.098 C 171.981 185.860,172.828 184.473,173.766 182.749 C 174.304 181.761,174.861 180.872,175.003 180.773 C 175.146 180.674,175.809 179.542,176.477 178.257 C 177.716 175.874,180.038 172.018,182.753 167.835 C 185.410 163.741,191.487 152.552,197.393 140.881 C 200.544 134.654,203.907 128.023,204.866 126.146 C 205.826 124.268,207.284 121.276,208.106 119.497 C 208.928 117.718,210.698 113.998,212.038 111.231 C 213.378 108.464,215.313 104.340,216.338 102.066 C 217.363 99.793,218.510 97.275,218.888 96.469 C 219.265 95.664,219.801 94.370,220.079 93.594 C 220.356 92.818,221.572 90.138,222.780 87.639 C 223.989 85.140,224.978 82.974,224.978 82.827 C 224.978 82.679,225.286 81.894,225.663 81.082 C 226.041 80.269,226.624 78.958,226.960 78.167 C 227.297 77.376,227.805 76.244,228.091 75.651 C 228.377 75.058,229.261 72.956,230.055 70.979 C 231.931 66.315,234.147 61.119,235.421 58.401 C 235.792 57.610,236.591 55.669,237.197 54.088 C 237.802 52.507,238.859 50.058,239.544 48.647 C 240.230 47.236,240.791 45.987,240.791 45.872 C 240.791 45.636,242.029 42.870,244.031 38.634 C 244.778 37.053,246.231 33.738,247.259 31.267 C 248.288 28.796,249.257 26.613,249.414 26.415 C 249.571 26.217,250.930 23.630,252.433 20.665 C 256.560 12.528,258.414 9.695,262.690 4.997 L 264.643 2.851 261.486 2.925 C 259.427 2.973,258.163 3.164,257.851 3.476 M257.323 7.788 C 257.323 8.119,257.095 8.644,256.816 8.956 C 256.537 9.268,254.516 13.082,252.325 17.430 C 250.134 21.779,248.023 25.903,247.635 26.595 C 247.246 27.287,245.857 30.359,244.547 33.423 C 243.238 36.487,241.355 40.773,240.364 42.947 C 238.307 47.461,237.987 48.189,236.668 51.348 C 236.142 52.609,235.399 54.224,235.017 54.937 C 234.634 55.650,234.322 56.385,234.322 56.570 C 234.322 56.755,233.820 58.051,233.207 59.450 C 231.799 62.667,230.701 65.229,229.267 68.643 C 227.143 73.703,224.178 80.318,222.017 84.816 C 220.830 87.287,219.251 90.683,218.507 92.363 C 217.763 94.043,216.234 97.358,215.109 99.730 C 213.983 102.102,212.569 105.094,211.965 106.379 C 210.315 109.890,203.692 123.147,202.359 125.606 C 200.362 129.291,199.784 129.272,201.570 125.580 C 202.136 124.409,203.525 121.348,204.655 118.778 C 205.785 116.208,207.343 112.756,208.117 111.106 C 208.891 109.456,209.524 108.042,209.524 107.963 C 209.524 107.782,212.201 101.852,214.342 97.291 C 215.250 95.356,215.993 93.703,215.993 93.617 C 215.993 93.419,217.666 89.640,218.351 88.291 C 218.635 87.731,218.868 87.129,218.868 86.954 C 218.868 86.778,219.272 85.750,219.766 84.670 C 220.261 83.589,220.665 82.613,220.665 82.499 C 220.665 82.385,220.970 81.607,221.342 80.769 C 221.715 79.931,222.464 78.113,223.008 76.730 C 223.551 75.346,224.610 72.839,225.361 71.159 C 226.732 68.091,230.164 59.443,231.209 56.424 C 231.517 55.535,232.112 53.917,232.530 52.830 C 233.598 50.059,235.698 44.334,236.353 42.408 C 236.872 40.881,238.111 37.800,239.171 35.400 C 239.432 34.807,240.492 32.219,241.526 29.650 C 245.246 20.406,249.243 13.844,253.840 9.434 C 256.177 7.193,257.323 6.651,257.323 7.788 M210.585 102.986 C 209.950 103.750,209.744 103.358,210.306 102.457 C 210.566 102.041,210.836 101.869,210.904 102.075 C 210.973 102.281,210.829 102.691,210.585 102.986 M199.801 130.227 C 199.455 130.546,199.407 130.490,199.588 129.980 C 199.716 129.618,199.839 129.132,199.862 128.901 C 199.885 128.671,199.981 128.782,200.075 129.149 C 200.170 129.516,200.046 130.001,199.801 130.227 M105.867 156.356 C 104.963 157.267,105.472 157.253,106.640 156.334 C 107.143 155.939,107.330 155.625,107.057 155.637 C 106.783 155.649,106.248 155.972,105.867 156.356 M159.675 195.410 C 159.320 195.997,158.721 196.947,158.343 197.520 C 157.966 198.093,157.239 199.209,156.728 200.000 C 155.347 202.137,153.100 204.967,153.100 204.569 C 153.100 204.377,153.342 204.020,153.639 203.774 C 153.935 203.528,154.178 203.140,154.178 202.913 C 154.178 202.686,154.634 201.937,155.192 201.250 C 155.749 200.562,157.077 198.673,158.142 197.050 C 159.960 194.281,161.090 193.073,159.675 195.410 M152.201 206.289 C 151.841 206.687,151.466 206.932,151.367 206.833 C 151.268 206.734,151.482 206.328,151.842 205.930 C 152.202 205.532,152.577 205.288,152.676 205.386 C 152.775 205.485,152.561 205.892,152.201 206.289 M150.225 208.625 C 149.971 208.931,149.682 209.101,149.583 209.002 C 149.484 208.903,149.611 208.572,149.865 208.266 C 150.119 207.960,150.408 207.790,150.507 207.889 C 150.606 207.988,150.479 208.319,150.225 208.625 M146.343 213.549 C 146.113 213.780,145.805 213.849,145.659 213.703 C 145.513 213.557,145.627 213.294,145.912 213.118 C 146.583 212.703,146.886 213.006,146.343 213.549 M145.161 215.034 C 144.848 215.265,144.398 215.818,144.161 216.262 C 143.924 216.707,143.556 217.071,143.342 217.071 C 142.889 217.071,143.976 215.291,144.806 214.674 C 145.117 214.444,145.453 214.335,145.551 214.434 C 145.650 214.533,145.475 214.803,145.161 215.034 M142.274 218.571 C 141.802 219.234,141.399 219.526,141.314 219.269 C 141.154 218.790,142.222 217.430,142.758 217.430 C 142.938 217.430,142.720 217.944,142.274 218.571 M133.082 228.708 C 132.719 229.333,130.438 231.826,129.630 232.479 C 128.304 233.552,129.128 232.166,130.959 230.245 C 132.822 228.291,133.687 227.664,133.082 228.708 M107.073 250.913 C 106.210 251.538,105.187 252.345,104.799 252.706 C 104.064 253.391,103.608 253.355,104.046 252.647 C 104.346 252.160,107.852 249.820,108.320 249.794 C 108.498 249.784,107.937 250.287,107.073 250.913 " stroke="none" fill="#579d98" fill-rule="evenodd"></path><path id="path2" d="M261.635 1.797 C 261.635 1.995,261.332 2.156,260.960 2.156 C 260.589 2.156,260.114 2.363,259.904 2.616 C 259.599 2.984,260.037 3.047,262.106 2.933 L 264.690 2.790 262.713 4.966 C 258.400 9.716,256.563 12.522,252.433 20.665 C 250.930 23.630,249.571 26.217,249.414 26.415 C 249.257 26.613,248.288 28.796,247.259 31.267 C 246.231 33.738,244.778 37.053,244.031 38.634 C 242.029 42.870,240.791 45.636,240.791 45.872 C 240.791 45.987,240.230 47.236,239.544 48.647 C 238.859 50.058,237.802 52.507,237.197 54.088 C 236.591 55.669,235.792 57.610,235.421 58.401 C 234.147 61.119,231.931 66.315,230.055 70.979 C 229.261 72.956,228.377 75.058,228.091 75.651 C 227.805 76.244,227.297 77.376,226.960 78.167 C 226.624 78.958,226.041 80.269,225.663 81.082 C 225.286 81.894,224.978 82.679,224.978 82.827 C 224.978 82.974,223.989 85.140,222.780 87.639 C 221.572 90.138,220.356 92.818,220.079 93.594 C 219.801 94.370,219.265 95.664,218.888 96.469 C 218.510 97.275,217.363 99.793,216.338 102.066 C 215.313 104.340,213.378 108.464,212.038 111.231 C 210.698 113.998,208.928 117.718,208.106 119.497 C 207.284 121.276,205.826 124.268,204.866 126.146 C 203.907 128.023,200.544 134.654,197.393 140.881 C 191.487 152.552,185.410 163.741,182.753 167.835 C 180.038 172.018,177.716 175.874,176.477 178.257 C 175.809 179.542,175.146 180.674,175.003 180.773 C 174.861 180.872,174.304 181.761,173.766 182.749 C 172.828 184.473,171.981 185.860,170.498 188.098 C 170.120 188.668,168.922 190.546,167.835 192.270 C 165.244 196.379,163.065 199.675,157.772 207.497 C 157.025 208.600,151.874 215.376,149.952 217.782 C 149.080 218.874,148.179 220.011,147.948 220.311 C 147.718 220.611,146.862 221.662,146.046 222.647 C 145.230 223.632,143.612 225.667,142.452 227.168 C 139.271 231.284,136.591 234.562,134.578 236.801 C 133.583 237.908,132.190 239.542,131.483 240.431 C 130.775 241.321,127.628 244.647,124.487 247.823 C 117.107 255.289,114.224 258.547,114.866 258.697 C 115.140 258.761,115.364 258.963,115.364 259.146 C 115.364 259.329,115.593 259.479,115.874 259.479 C 116.515 259.479,118.593 260.645,118.596 261.006 C 118.597 261.155,118.768 261.276,118.975 261.276 C 119.415 261.276,127.941 269.705,127.946 270.144 C 127.948 270.307,128.487 270.961,129.142 271.598 C 129.798 272.235,130.645 273.367,131.025 274.114 C 131.405 274.861,131.959 275.714,132.255 276.011 C 132.552 276.307,133.103 277.156,133.480 277.898 C 133.857 278.639,134.284 279.245,134.429 279.245 C 134.574 279.245,134.794 279.650,134.918 280.144 C 135.042 280.638,135.303 281.042,135.497 281.042 C 135.690 281.042,135.849 281.285,135.849 281.581 C 135.849 281.878,136.008 282.120,136.202 282.120 C 136.395 282.120,136.656 282.525,136.780 283.019 C 136.904 283.513,137.149 283.917,137.326 283.917 C 137.502 283.917,137.646 284.241,137.646 284.636 C 137.646 285.031,137.808 285.355,138.005 285.355 C 138.203 285.355,138.365 285.559,138.365 285.808 C 138.365 286.057,138.732 286.663,139.180 287.156 C 139.629 287.648,140.950 289.956,142.117 292.285 C 143.283 294.614,144.331 296.382,144.446 296.213 C 145.208 295.090,152.354 290.615,157.537 288.016 C 160.927 286.315,163.944 284.715,164.241 284.459 C 164.537 284.203,166.235 283.299,168.014 282.450 C 169.793 281.600,172.058 280.408,173.046 279.802 C 174.034 279.196,175.328 278.462,175.921 278.173 C 176.514 277.883,177.452 277.282,178.005 276.837 C 178.558 276.392,179.609 275.752,180.341 275.413 C 181.072 275.075,182.128 274.425,182.687 273.967 C 183.246 273.510,183.908 273.136,184.159 273.136 C 184.409 273.136,184.907 272.812,185.265 272.417 C 185.623 272.022,186.094 271.698,186.313 271.698 C 186.532 271.698,187.356 271.135,188.144 270.447 C 188.933 269.759,189.710 269.193,189.871 269.189 C 190.033 269.185,190.760 268.618,191.489 267.928 C 192.217 267.238,192.977 266.671,193.177 266.670 C 193.378 266.668,194.663 265.615,196.033 264.331 C 197.403 263.046,198.708 261.995,198.934 261.995 C 199.161 261.995,199.530 261.590,199.755 261.096 C 199.980 260.602,200.375 260.198,200.632 260.198 C 200.889 260.198,201.337 259.840,201.628 259.402 C 201.918 258.965,202.975 257.712,203.976 256.617 C 204.977 255.523,206.311 254.061,206.939 253.369 C 207.568 252.677,208.084 251.909,208.085 251.662 C 208.086 251.415,208.288 251.212,208.535 251.211 C 208.933 251.209,209.349 250.672,210.808 248.279 C 211.020 247.931,211.626 247.124,212.156 246.485 C 212.685 245.847,213.119 245.153,213.121 244.944 C 213.123 244.735,213.689 243.969,214.379 243.241 C 215.069 242.512,215.633 241.663,215.633 241.354 C 215.633 241.044,215.777 240.791,215.952 240.791 C 216.127 240.791,216.545 240.265,216.880 239.623 C 217.215 238.980,217.743 237.969,218.054 237.376 C 218.364 236.783,218.998 235.841,219.462 235.282 C 219.926 234.724,220.305 233.986,220.305 233.643 C 220.305 233.300,220.629 232.672,221.024 232.248 C 221.420 231.824,221.743 231.292,221.743 231.067 C 221.743 230.627,222.667 228.380,223.213 227.493 C 223.395 227.197,223.642 226.712,223.760 226.415 C 224.522 224.514,225.057 223.279,225.354 222.736 C 225.542 222.393,225.696 221.706,225.696 221.209 C 225.696 220.712,225.845 220.305,226.026 220.305 C 226.207 220.305,226.629 219.537,226.962 218.598 C 227.296 217.659,227.698 216.568,227.855 216.173 C 228.012 215.777,228.421 214.483,228.765 213.297 C 229.108 212.111,229.513 210.979,229.665 210.782 C 229.817 210.584,230.218 209.452,230.557 208.266 C 230.897 207.080,231.282 205.948,231.415 205.750 C 231.740 205.266,232.408 203.157,232.721 201.629 C 232.861 200.944,233.101 200.135,233.253 199.832 C 233.406 199.529,233.782 198.392,234.089 197.305 C 234.396 196.217,234.898 194.438,235.206 193.351 C 235.513 192.264,236.023 190.162,236.339 188.679 C 236.655 187.197,237.124 185.094,237.382 184.007 C 238.895 177.622,239.362 175.530,240.068 171.968 C 240.500 169.793,241.013 167.044,241.210 165.858 C 241.406 164.672,241.864 162.570,242.229 161.186 C 242.593 159.802,243.077 157.376,243.304 155.795 C 243.531 154.214,243.884 152.379,244.087 151.717 C 244.290 151.055,244.678 148.548,244.948 146.146 C 245.218 143.744,245.671 140.485,245.954 138.904 C 246.238 137.323,246.576 134.978,246.706 133.693 C 246.962 131.158,247.865 125.645,248.195 124.596 C 248.308 124.238,248.537 122.783,248.704 121.362 C 249.123 117.796,250.019 111.777,250.293 110.692 C 250.417 110.198,250.668 108.419,250.851 106.739 C 251.034 105.058,251.350 102.552,251.555 101.168 C 251.759 99.784,252.013 97.925,252.118 97.035 C 252.224 96.146,252.482 94.367,252.692 93.082 C 253.178 90.101,253.279 89.385,253.551 86.972 C 253.674 85.885,253.991 84.025,254.255 82.839 C 254.678 80.946,255.165 77.487,255.672 72.776 C 255.860 71.038,256.846 64.483,257.294 61.995 C 257.473 61.006,257.884 58.742,258.209 56.963 C 259.507 49.852,260.140 46.115,260.735 42.049 C 261.469 37.033,263.719 27.585,264.521 26.150 C 264.713 25.807,264.870 25.325,264.870 25.079 C 264.870 20.958,269.624 14.333,272.695 14.176 C 273.726 14.123,275.201 13.973,275.973 13.843 C 279.197 13.298,284.569 17.345,288.373 23.186 C 289.143 24.369,290.170 25.767,290.654 26.292 C 291.138 26.817,291.516 27.344,291.494 27.463 C 291.453 27.680,292.441 29.325,293.022 30.009 C 293.438 30.498,295.410 34.103,297.053 37.376 C 297.797 38.859,298.502 40.153,298.619 40.252 C 298.736 40.350,298.885 40.674,298.949 40.970 C 299.137 41.836,300.954 44.562,301.348 44.569 C 301.545 44.572,301.493 44.711,301.231 44.877 C 300.847 45.121,300.869 45.292,301.347 45.770 C 301.672 46.095,301.842 46.361,301.724 46.361 C 301.607 46.361,301.770 46.757,302.087 47.241 C 302.404 47.724,302.671 48.250,302.680 48.409 C 302.718 49.054,303.058 49.581,303.328 49.413 C 303.487 49.315,303.542 49.519,303.452 49.867 C 303.361 50.214,303.778 51.467,304.379 52.652 C 304.980 53.837,305.474 55.004,305.476 55.245 C 305.479 55.486,305.804 56.259,306.199 56.963 C 306.595 57.667,306.918 58.469,306.918 58.745 C 306.918 59.022,307.180 59.510,307.500 59.830 C 307.820 60.150,307.983 60.510,307.863 60.631 C 307.742 60.752,307.777 61.027,307.941 61.243 C 308.105 61.459,308.614 62.686,309.073 63.971 C 309.532 65.256,310.367 67.311,310.928 68.538 C 311.490 69.766,311.950 70.938,311.950 71.144 C 311.950 71.350,312.121 71.518,312.330 71.518 C 312.540 71.518,312.617 71.670,312.503 71.855 C 312.389 72.040,312.593 72.727,312.956 73.382 C 313.319 74.037,313.830 75.382,314.091 76.370 C 314.353 77.358,314.746 78.329,314.965 78.528 C 315.184 78.726,315.424 79.130,315.498 79.426 C 315.572 79.722,315.763 80.518,315.924 81.194 C 316.084 81.871,316.453 82.558,316.744 82.721 C 317.035 82.884,317.198 83.305,317.106 83.658 C 317.014 84.010,317.137 84.778,317.379 85.366 C 317.621 85.953,317.840 86.514,317.865 86.613 C 317.889 86.712,318.186 87.310,318.524 87.943 C 318.861 88.575,319.137 89.424,319.137 89.829 C 319.137 90.235,319.316 90.566,319.535 90.566 C 319.754 90.566,319.840 90.809,319.726 91.105 C 319.613 91.402,319.676 91.644,319.868 91.644 C 320.059 91.644,320.216 92.010,320.216 92.458 C 320.216 92.906,320.559 93.913,320.979 94.696 C 321.398 95.478,321.816 96.608,321.907 97.206 C 321.998 97.804,322.220 98.447,322.402 98.634 C 322.583 98.822,322.731 99.324,322.731 99.749 C 322.731 100.174,323.136 101.282,323.630 102.212 C 324.124 103.141,324.528 104.288,324.528 104.760 C 324.528 105.232,324.701 105.725,324.912 105.855 C 325.123 105.986,325.217 106.299,325.120 106.551 C 325.023 106.804,325.133 107.200,325.365 107.431 C 325.597 107.663,325.806 108.006,325.831 108.194 C 325.856 108.382,325.916 108.616,325.966 108.715 C 326.122 109.028,326.209 109.394,326.497 110.969 C 326.652 111.814,326.920 112.592,327.091 112.698 C 327.263 112.804,327.403 113.204,327.403 113.588 C 327.403 113.972,327.565 114.286,327.763 114.286 C 327.960 114.286,328.122 114.591,328.122 114.965 C 328.122 115.768,330.591 123.648,331.006 124.169 C 331.164 124.367,331.408 125.148,331.550 125.905 C 331.691 126.662,332.028 127.366,332.298 127.470 C 332.569 127.574,332.716 127.778,332.626 127.924 C 332.340 128.388,333.207 130.955,333.821 131.462 C 334.146 131.730,334.209 131.847,333.962 131.722 C 333.715 131.596,333.513 131.595,333.513 131.718 C 333.513 131.992,334.887 135.431,335.341 136.293 C 335.521 136.637,335.669 137.324,335.669 137.821 C 335.669 138.318,335.831 138.724,336.029 138.724 C 336.226 138.724,336.361 138.845,336.328 138.994 C 336.189 139.613,336.908 142.263,337.670 143.941 C 338.120 144.932,338.599 146.185,338.735 146.724 C 338.870 147.263,339.110 147.624,339.268 147.526 C 339.426 147.428,339.481 147.636,339.389 147.987 C 339.297 148.338,339.473 149.106,339.779 149.694 C 340.086 150.282,340.338 151.055,340.339 151.410 C 340.340 151.766,340.587 152.533,340.888 153.114 C 341.188 153.695,341.436 154.293,341.437 154.444 C 341.439 154.594,341.627 155.364,341.854 156.155 C 342.082 156.945,342.279 157.700,342.293 157.832 C 342.307 157.963,342.439 158.193,342.588 158.341 C 342.736 158.489,342.857 158.888,342.857 159.228 C 342.857 160.093,343.773 161.767,344.080 161.461 C 344.219 161.322,344.239 161.452,344.125 161.750 C 344.010 162.048,344.497 163.984,345.205 166.051 C 345.914 168.119,346.825 170.863,347.230 172.147 C 347.635 173.432,348.109 174.660,348.284 174.876 C 348.458 175.092,348.510 175.360,348.398 175.471 C 348.286 175.583,348.454 176.175,348.770 176.786 C 349.086 177.397,349.257 177.898,349.151 177.898 C 349.044 177.898,349.213 178.504,349.527 179.245 C 349.840 179.987,350.420 181.563,350.815 182.749 C 351.210 183.935,351.678 185.229,351.854 185.624 C 352.030 186.020,352.447 187.233,352.781 188.320 C 353.116 189.407,353.511 190.458,353.660 190.656 C 353.809 190.854,354.198 191.986,354.526 193.172 C 355.149 195.432,355.529 196.456,356.367 198.142 C 356.646 198.702,356.873 199.461,356.873 199.828 C 356.873 200.196,357.035 200.597,357.233 200.719 C 357.430 200.841,357.592 201.241,357.592 201.609 C 357.592 202.272,360.067 208.821,360.448 209.164 C 360.557 209.263,360.650 209.506,360.653 209.704 C 360.662 210.248,361.525 212.753,362.283 214.435 C 362.654 215.258,363.032 216.309,363.123 216.771 C 363.214 217.232,363.605 218.257,363.992 219.048 C 364.379 219.838,364.812 221.030,364.955 221.696 C 365.098 222.361,365.777 224.089,366.463 225.534 C 367.150 226.980,367.753 228.376,367.803 228.637 C 367.912 229.198,368.626 230.905,369.280 232.165 C 369.536 232.659,369.761 233.185,369.779 233.333 C 369.797 233.482,369.832 233.684,369.856 233.783 C 369.881 233.881,369.932 234.084,369.969 234.232 C 370.442 236.101,370.965 237.403,371.467 237.958 C 371.804 238.330,371.969 238.634,371.835 238.634 C 371.701 238.634,371.999 239.401,372.498 240.339 C 372.997 241.276,373.405 242.246,373.405 242.493 C 373.405 242.741,373.971 244.169,374.663 245.667 C 375.355 247.165,375.921 248.540,375.921 248.723 C 375.921 248.907,376.070 249.057,376.252 249.057 C 376.434 249.057,376.694 249.582,376.831 250.225 C 376.967 250.867,377.320 251.665,377.613 251.999 C 377.907 252.332,378.026 252.802,377.877 253.043 C 377.699 253.331,377.757 253.387,378.046 253.209 C 378.338 253.028,378.447 253.147,378.371 253.565 C 378.308 253.911,378.450 254.261,378.686 254.344 C 378.989 254.450,379.072 254.039,378.968 252.943 C 378.801 251.197,377.949 248.586,377.645 248.890 C 377.535 249.000,377.340 248.476,377.211 247.726 C 376.857 245.652,376.152 243.306,375.884 243.306 C 375.647 243.306,375.098 241.909,375.154 241.448 C 375.170 241.316,374.621 240.111,373.935 238.770 C 373.248 237.429,372.686 236.042,372.686 235.686 C 372.686 235.331,372.525 235.040,372.327 235.040 C 372.129 235.040,371.968 234.727,371.968 234.343 C 371.968 233.959,371.795 233.539,371.584 233.408 C 371.373 233.278,371.287 232.945,371.393 232.668 C 371.499 232.392,371.429 232.165,371.238 232.165 C 371.046 232.165,370.889 231.842,370.889 231.447 C 370.889 231.051,370.730 230.728,370.534 230.728 C 370.339 230.728,370.076 230.081,369.949 229.290 C 369.823 228.500,369.618 227.853,369.494 227.853 C 369.225 227.853,368.733 226.643,367.814 223.720 C 367.441 222.534,366.929 221.350,366.676 221.088 C 366.248 220.645,366.054 219.650,366.191 218.598 C 366.223 218.351,366.080 218.149,365.874 218.149 C 365.667 218.149,365.499 217.907,365.499 217.610 C 365.499 217.314,365.351 217.071,365.171 217.071 C 364.884 217.071,364.267 214.565,364.413 213.994 C 364.443 213.877,364.158 213.511,363.780 213.180 C 363.401 212.849,362.980 211.979,362.844 211.246 C 362.547 209.646,361.746 208.006,361.420 208.331 C 361.291 208.460,361.186 207.922,361.186 207.137 C 361.186 206.351,360.949 205.394,360.658 205.010 C 360.368 204.627,360.126 204.030,360.119 203.684 C 360.113 203.338,359.959 203.055,359.777 203.055 C 359.595 203.055,359.340 202.570,359.209 201.977 C 359.079 201.384,358.783 200.896,358.552 200.893 C 358.277 200.889,358.299 200.781,358.614 200.582 C 359.076 200.289,358.671 199.012,357.916 198.383 C 357.797 198.284,357.605 197.479,357.489 196.594 C 357.374 195.708,357.107 194.927,356.896 194.856 C 356.686 194.786,356.514 194.500,356.514 194.220 C 356.514 193.940,356.375 193.711,356.205 193.711 C 356.035 193.711,355.800 192.783,355.683 191.650 C 355.566 190.517,355.301 189.533,355.094 189.464 C 354.886 189.395,354.717 189.028,354.717 188.649 C 354.717 188.270,354.576 187.960,354.404 187.960 C 354.231 187.960,353.987 187.316,353.861 186.528 C 353.735 185.740,353.336 184.567,352.975 183.922 C 352.614 183.277,352.208 182.055,352.073 181.206 C 351.841 179.740,351.241 178.302,350.690 177.887 C 350.551 177.782,350.396 177.086,350.346 176.341 C 350.296 175.596,350.046 174.813,349.791 174.601 C 349.535 174.389,349.326 173.922,349.326 173.562 C 349.326 173.203,349.164 172.809,348.967 172.686 C 348.769 172.564,348.607 172.045,348.607 171.533 C 348.607 171.021,348.218 169.777,347.742 168.769 C 347.267 167.761,346.794 166.226,346.691 165.357 C 346.589 164.488,346.350 163.680,346.160 163.560 C 345.971 163.440,345.747 163.019,345.663 162.624 C 345.579 162.228,345.358 161.931,345.172 161.963 C 344.986 161.996,344.825 161.359,344.814 160.549 C 344.803 159.739,344.601 159.012,344.365 158.933 C 344.129 158.854,343.935 158.237,343.935 157.562 C 343.935 156.887,343.794 156.334,343.622 156.334 C 343.449 156.334,343.205 155.687,343.079 154.897 C 342.942 154.043,342.652 153.459,342.364 153.459 C 342.040 153.459,341.936 153.160,342.051 152.559 C 342.145 152.063,342.063 151.457,341.868 151.211 C 341.673 150.965,341.404 150.157,341.270 149.416 C 341.137 148.675,340.873 148.068,340.685 148.068 C 340.496 148.068,340.341 147.502,340.341 146.810 C 340.341 146.119,340.200 145.553,340.028 145.553 C 339.856 145.553,339.611 144.906,339.485 144.115 C 339.358 143.324,339.095 142.677,338.900 142.677 C 338.704 142.677,338.544 142.187,338.544 141.588 C 338.544 140.989,338.326 140.415,338.059 140.312 C 337.774 140.203,337.638 139.785,337.730 139.302 C 337.822 138.824,337.630 138.220,337.273 137.863 C 336.934 137.525,336.658 136.832,336.658 136.323 C 336.658 135.815,336.436 134.974,336.166 134.456 C 335.895 133.937,335.673 133.299,335.672 133.038 C 335.670 132.777,335.421 132.315,335.118 132.012 C 334.802 131.696,334.659 131.171,334.783 130.780 C 334.902 130.405,334.845 130.099,334.656 130.099 C 334.468 130.099,334.204 129.371,334.071 128.482 C 333.938 127.592,333.677 126.864,333.491 126.864 C 333.305 126.864,333.154 126.389,333.154 125.807 C 333.154 125.226,333.006 124.659,332.826 124.548 C 332.645 124.436,332.388 123.699,332.255 122.909 C 332.121 122.120,331.865 121.473,331.684 121.473 C 331.504 121.473,331.357 120.988,331.357 120.395 C 331.357 119.802,331.216 119.317,331.043 119.317 C 330.871 119.317,330.624 118.654,330.494 117.844 C 330.365 117.034,330.019 116.131,329.726 115.838 C 329.433 115.546,329.290 115.150,329.408 114.960 C 329.525 114.769,329.465 114.419,329.273 114.180 C 329.081 113.942,328.812 113.221,328.674 112.579 C 328.537 111.936,328.294 111.411,328.134 111.411 C 327.974 111.411,327.850 111.208,327.859 110.961 C 327.909 109.633,327.714 108.895,327.314 108.894 C 327.043 108.893,326.853 108.380,326.836 107.605 C 326.821 106.897,326.659 106.210,326.477 106.079 C 326.295 105.948,326.129 105.638,326.110 105.391 C 326.090 105.144,326.049 104.601,326.020 104.184 C 325.985 103.694,325.788 103.495,325.462 103.621 C 324.807 103.872,324.445 103.500,324.855 102.998 C 325.154 102.631,323.188 95.935,322.612 95.358 C 322.480 95.226,322.372 94.741,322.372 94.280 C 322.372 93.819,322.246 93.441,322.092 93.441 C 321.822 93.441,320.575 89.686,320.575 88.871 C 320.575 88.650,320.413 88.415,320.214 88.349 C 320.016 88.283,319.582 87.259,319.250 86.073 C 318.918 84.887,318.535 83.836,318.400 83.738 C 318.265 83.639,317.874 82.588,317.532 81.402 C 317.190 80.216,316.804 79.164,316.676 79.066 C 316.354 78.818,315.184 75.329,315.184 74.615 C 315.184 74.295,315.030 74.034,314.841 74.034 C 314.652 74.034,314.392 73.470,314.263 72.779 C 314.133 72.089,313.885 71.613,313.711 71.720 C 313.538 71.827,313.492 71.664,313.610 71.357 C 313.727 71.051,313.650 70.800,313.437 70.800 C 313.224 70.800,313.138 70.572,313.244 70.294 C 313.351 70.017,313.149 69.452,312.796 69.039 C 312.443 68.626,312.141 67.924,312.127 67.478 C 312.088 66.331,311.603 65.049,311.207 65.049 C 311.022 65.049,310.872 64.645,310.872 64.151 C 310.872 63.657,310.700 63.252,310.491 63.252 C 310.282 63.252,310.202 63.104,310.315 62.922 C 310.427 62.740,310.282 62.355,309.993 62.066 C 309.705 61.777,309.568 61.441,309.691 61.319 C 309.813 61.196,309.684 61.094,309.404 61.091 C 308.985 61.086,308.990 61.024,309.434 60.737 C 309.793 60.504,309.823 60.387,309.524 60.383 C 309.277 60.380,309.075 60.053,309.075 59.656 C 309.075 59.259,308.685 58.168,308.208 57.230 C 307.731 56.293,307.146 55.000,306.907 54.358 C 306.667 53.715,306.335 53.190,306.167 53.190 C 306.000 53.190,305.956 52.947,306.069 52.650 C 306.183 52.354,306.097 52.111,305.879 52.111 C 305.660 52.111,305.481 51.690,305.481 51.174 C 305.481 50.504,305.333 50.294,304.960 50.437 C 304.594 50.578,304.505 50.465,304.662 50.058 C 304.791 49.720,304.735 49.570,304.529 49.697 C 304.313 49.831,304.234 49.500,304.329 48.858 C 304.421 48.226,304.323 47.799,304.084 47.799 C 303.864 47.799,303.684 47.541,303.684 47.225 C 303.684 46.671,302.656 44.571,302.205 44.205 C 302.083 44.106,301.860 43.621,301.708 43.127 C 301.557 42.633,301.165 41.824,300.836 41.330 C 300.508 40.836,299.768 39.461,299.192 38.275 C 298.616 37.089,298.041 36.038,297.914 35.939 C 297.788 35.840,297.576 35.314,297.443 34.771 C 297.310 34.227,297.042 33.783,296.848 33.783 C 296.655 33.783,296.496 33.369,296.496 32.863 C 296.496 32.341,296.340 32.039,296.137 32.165 C 295.939 32.287,295.777 32.066,295.777 31.673 C 295.777 31.280,295.535 30.716,295.238 30.420 C 294.942 30.123,294.699 29.546,294.699 29.136 C 294.699 28.727,294.537 28.392,294.340 28.392 C 294.142 28.392,293.980 28.166,293.980 27.891 C 293.980 27.616,293.738 27.297,293.441 27.184 C 293.145 27.070,292.902 26.648,292.902 26.247 C 292.902 25.845,292.758 25.517,292.582 25.517 C 292.405 25.517,292.160 25.112,292.036 24.618 C 291.912 24.124,291.652 23.720,291.458 23.720 C 291.264 23.720,291.105 23.315,291.105 22.821 C 291.105 22.262,290.901 21.923,290.566 21.923 C 290.270 21.923,290.027 21.680,290.027 21.384 C 290.027 21.087,289.865 20.845,289.668 20.845 C 289.470 20.845,289.308 20.538,289.308 20.164 C 289.308 19.790,289.066 19.391,288.769 19.277 C 288.473 19.163,288.230 18.842,288.230 18.564 C 288.230 18.285,287.989 17.858,287.695 17.613 C 287.401 17.369,287.248 17.026,287.357 16.851 C 287.465 16.675,287.302 16.532,286.993 16.532 C 286.685 16.532,286.433 16.318,286.433 16.058 C 286.433 15.797,286.029 15.232,285.535 14.802 C 285.040 14.372,284.636 13.868,284.636 13.681 C 284.636 13.249,277.093 5.750,276.659 5.750 C 276.481 5.750,275.961 5.346,275.503 4.852 C 275.045 4.358,274.556 3.953,274.416 3.953 C 274.277 3.953,273.920 3.711,273.623 3.414 C 273.327 3.118,272.772 2.875,272.391 2.875 C 272.010 2.875,271.698 2.713,271.698 2.516 C 271.698 2.318,271.051 2.156,270.261 2.156 C 269.470 2.156,268.823 1.995,268.823 1.797 C 268.823 1.581,267.385 1.438,265.229 1.438 C 263.073 1.438,261.635 1.581,261.635 1.797 M254.274 5.732 C 254.151 6.117,253.717 6.538,253.308 6.668 C 252.899 6.798,252.101 7.347,251.534 7.889 L 250.503 8.875 251.760 8.481 C 252.452 8.265,253.105 7.812,253.212 7.476 C 253.319 7.140,253.681 6.778,254.017 6.671 C 254.889 6.394,255.717 5.031,255.014 5.031 C 254.729 5.031,254.396 5.347,254.274 5.732 M246.869 12.870 C 246.555 13.204,246.196 13.760,246.072 14.106 C 245.947 14.452,245.678 14.735,245.474 14.735 C 245.270 14.735,245.103 14.978,245.103 15.274 C 245.103 15.571,244.942 15.813,244.744 15.813 C 244.546 15.813,244.385 16.063,244.385 16.369 C 244.385 16.675,243.980 17.300,243.486 17.758 C 242.992 18.216,242.588 18.705,242.588 18.845 C 242.588 18.985,242.385 19.324,242.138 19.600 C 241.072 20.789,240.791 21.196,240.791 21.548 C 240.791 21.754,240.619 21.923,240.410 21.923 C 240.201 21.923,240.114 22.060,240.218 22.228 C 240.322 22.395,240.089 22.874,239.700 23.291 C 239.312 23.708,238.994 24.217,238.994 24.423 C 238.994 24.629,238.835 24.798,238.641 24.798 C 238.447 24.798,238.187 25.202,238.063 25.696 C 237.939 26.190,237.693 26.595,237.517 26.595 C 237.341 26.595,237.197 26.844,237.197 27.150 C 237.197 27.455,236.788 28.142,236.289 28.677 C 235.789 29.212,235.111 30.256,234.782 30.997 C 234.453 31.739,234.053 32.345,233.893 32.345 C 233.733 32.345,233.603 32.668,233.603 33.064 C 233.603 33.459,233.453 33.783,233.270 33.783 C 232.897 33.783,231.806 35.804,231.806 36.495 C 231.806 36.740,231.563 37.033,231.267 37.147 C 230.970 37.261,230.728 37.576,230.728 37.849 C 230.728 38.121,230.413 38.628,230.029 38.975 C 229.645 39.323,229.228 40.076,229.102 40.648 C 228.977 41.221,228.725 41.689,228.543 41.689 C 228.361 41.689,228.212 41.914,228.212 42.190 C 228.212 42.465,227.969 42.783,227.673 42.897 C 227.376 43.011,227.134 43.397,227.134 43.755 C 227.134 44.113,226.811 44.638,226.417 44.922 C 226.022 45.207,225.603 45.955,225.484 46.586 C 225.351 47.298,225.009 47.801,224.582 47.912 C 224.164 48.022,223.807 48.532,223.670 49.216 C 223.546 49.834,223.362 50.256,223.260 50.154 C 222.932 49.826,221.743 51.476,221.743 52.260 C 221.743 52.676,221.440 53.206,221.070 53.437 C 220.699 53.669,220.293 54.268,220.167 54.769 C 220.042 55.270,219.536 56.083,219.044 56.575 C 218.552 57.067,218.149 57.660,218.149 57.893 C 218.149 58.126,217.855 58.578,217.495 58.898 C 217.135 59.217,216.528 60.030,216.147 60.704 C 215.766 61.378,214.928 62.510,214.285 63.220 C 213.642 63.930,213.025 64.793,212.913 65.139 C 212.801 65.485,212.559 65.768,212.375 65.768 C 212.190 65.768,212.040 66.011,212.040 66.307 C 212.040 66.604,211.878 66.846,211.680 66.846 C 211.482 66.846,211.321 67.067,211.321 67.336 C 211.321 67.811,209.903 69.841,208.500 71.373 C 208.121 71.788,207.702 72.467,207.570 72.883 C 207.439 73.298,207.016 73.738,206.630 73.860 C 206.245 73.983,205.930 74.332,205.930 74.636 C 205.930 74.941,204.879 76.236,203.594 77.515 C 202.309 78.793,201.258 80.052,201.258 80.312 C 201.258 80.573,201.015 80.879,200.719 80.992 C 200.422 81.106,200.180 81.517,200.180 81.905 C 200.180 82.293,199.865 82.711,199.479 82.833 C 199.094 82.956,198.681 83.363,198.562 83.738 C 198.443 84.113,198.039 84.517,197.664 84.636 C 197.289 84.755,196.882 85.168,196.760 85.553 C 196.637 85.938,196.394 86.253,196.219 86.253 C 195.806 86.253,194.070 87.986,194.070 88.398 C 194.070 88.721,191.994 90.925,191.691 90.925 C 191.448 90.925,190.751 91.550,188.185 94.070 C 186.927 95.305,185.728 96.316,185.521 96.316 C 185.314 96.316,185.091 96.438,185.025 96.586 C 184.960 96.734,184.141 97.469,183.207 98.220 C 182.273 98.970,181.299 99.794,181.042 100.051 C 180.785 100.308,179.932 100.817,179.147 101.183 C 177.823 101.799,175.078 103.438,174.663 103.860 C 174.191 104.341,170.396 106.047,169.355 106.247 C 168.708 106.371,168.092 106.613,167.986 106.785 C 167.879 106.957,167.492 107.098,167.125 107.098 C 166.757 107.098,166.403 107.258,166.337 107.454 C 166.271 107.650,165.207 107.915,163.971 108.044 C 162.736 108.173,161.725 108.417,161.725 108.587 C 161.725 108.756,161.321 108.895,160.827 108.895 C 160.332 108.895,159.928 109.039,159.928 109.214 C 159.928 109.390,159.390 109.635,158.733 109.758 C 158.076 109.881,157.193 110.303,156.772 110.696 C 156.350 111.089,155.821 111.411,155.596 111.411 C 155.108 111.411,153.130 112.484,152.452 113.118 C 152.187 113.365,151.699 113.572,151.367 113.578 C 150.701 113.591,149.506 114.388,149.506 114.819 C 149.506 114.969,149.769 114.874,150.090 114.608 C 150.507 114.261,151.596 114.153,153.909 114.226 C 159.653 114.409,169.765 110.977,175.892 106.766 C 176.699 106.212,178.508 105.020,179.912 104.119 C 185.118 100.776,199.321 86.399,204.859 78.865 C 205.723 77.691,207.166 75.838,208.066 74.749 C 208.967 73.660,210.269 71.881,210.959 70.796 C 211.650 69.711,212.999 67.772,213.957 66.487 C 214.914 65.202,217.080 62.049,218.770 59.479 C 220.459 56.909,222.758 53.432,223.880 51.752 C 225.852 48.797,227.386 46.225,229.281 42.692 C 229.780 41.761,231.418 39.093,232.921 36.762 C 236.287 31.543,238.009 28.272,238.159 26.810 C 238.223 26.198,238.557 25.446,238.904 25.140 C 239.550 24.568,240.246 23.592,240.685 22.642 C 240.822 22.345,241.225 21.789,241.581 21.406 C 241.937 21.023,242.228 20.517,242.228 20.282 C 242.228 20.047,242.471 19.653,242.767 19.407 C 243.209 19.041,243.306 19.065,243.306 19.543 C 243.306 19.863,243.468 20.126,243.666 20.126 C 243.863 20.126,244.025 19.974,244.025 19.788 C 244.025 19.602,243.863 19.349,243.666 19.227 C 243.033 18.836,243.270 18.389,244.968 16.762 C 245.882 15.886,246.530 15.008,246.408 14.810 C 246.286 14.613,246.450 14.349,246.774 14.225 C 247.098 14.101,247.258 13.895,247.131 13.767 C 247.003 13.640,247.167 13.239,247.494 12.877 C 248.242 12.051,247.645 12.043,246.869 12.870 M210.306 102.457 C 210.046 102.874,209.902 103.284,209.987 103.368 C 210.236 103.617,211.041 102.484,210.904 102.075 C 210.836 101.869,210.566 102.041,210.306 102.457 M198.203 116.776 C 195.688 117.643,195.056 117.886,194.364 118.253 C 194.032 118.429,192.576 119.173,191.130 119.905 C 187.631 121.676,181.429 125.226,178.976 126.863 C 177.889 127.588,174.573 129.349,171.608 130.777 C 168.643 132.204,165.004 133.998,163.522 134.763 C 158.912 137.141,149.303 140.525,145.155 141.232 C 144.089 141.413,141.276 141.981,138.904 142.494 C 130.727 144.260,123.270 143.911,123.270 141.762 C 123.270 140.990,122.635 141.128,122.372 141.959 C 122.246 142.354,121.993 142.677,121.809 142.677 C 121.624 142.677,121.473 142.851,121.473 143.063 C 121.473 143.274,121.271 143.665,121.024 143.930 C 120.777 144.195,120.171 144.942,119.677 145.590 C 119.182 146.238,118.414 147.134,117.969 147.581 C 117.525 148.029,117.161 148.565,117.161 148.773 C 117.161 148.981,116.757 149.503,116.262 149.932 C 115.291 150.777,114.988 151.703,115.942 150.911 C 116.596 150.368,117.520 151.245,117.520 152.410 C 117.520 152.745,118.374 153.901,119.418 154.979 C 120.462 156.057,121.577 157.337,121.897 157.825 C 122.984 159.484,128.000 164.584,130.401 166.471 C 131.717 167.506,133.940 169.327,135.339 170.519 C 136.739 171.711,138.903 173.495,140.147 174.483 C 141.391 175.472,142.693 176.544,143.039 176.866 C 143.385 177.188,144.618 178.144,145.779 178.991 C 146.939 179.837,148.633 181.191,149.542 181.999 C 150.451 182.807,153.484 185.236,156.281 187.396 C 161.351 191.313,161.745 191.750,160.940 192.555 C 160.471 193.025,160.758 193.547,161.301 193.211 C 162.463 192.494,180.054 164.445,180.054 163.311 C 180.054 163.232,181.533 160.619,183.340 157.505 C 189.716 146.518,203.055 119.317,203.055 117.303 C 203.055 117.027,202.812 116.801,202.516 116.801 C 202.219 116.801,201.977 116.640,201.977 116.442 C 201.977 115.916,200.258 116.067,198.203 116.776 M124.557 139.103 C 124.177 139.486,123.947 139.880,124.046 139.979 C 124.145 140.078,124.605 139.755,125.069 139.262 C 126.051 138.217,125.581 138.071,124.557 139.103 M158.142 197.050 C 157.077 198.673,155.749 200.562,155.192 201.250 C 154.634 201.937,154.178 202.686,154.178 202.913 C 154.178 203.140,153.935 203.528,153.639 203.774 C 153.342 204.020,153.100 204.377,153.100 204.569 C 153.100 204.967,155.347 202.137,156.728 200.000 C 157.239 199.209,157.966 198.093,158.343 197.520 C 159.645 195.542,160.321 194.343,160.200 194.222 C 160.133 194.155,159.207 195.428,158.142 197.050 M151.842 205.930 C 151.482 206.328,151.268 206.734,151.367 206.833 C 151.466 206.932,151.841 206.687,152.201 206.289 C 152.561 205.892,152.775 205.485,152.676 205.386 C 152.577 205.288,152.202 205.532,151.842 205.930 M149.865 208.266 C 149.611 208.572,149.484 208.903,149.583 209.002 C 149.682 209.101,149.971 208.931,150.225 208.625 C 150.479 208.319,150.606 207.988,150.507 207.889 C 150.408 207.790,150.119 207.960,149.865 208.266 M145.912 213.118 C 145.627 213.294,145.513 213.557,145.659 213.703 C 145.805 213.849,146.113 213.780,146.343 213.549 C 146.886 213.006,146.583 212.703,145.912 213.118 M144.806 214.674 C 143.976 215.291,142.889 217.071,143.342 217.071 C 143.556 217.071,143.924 216.707,144.161 216.262 C 144.398 215.818,144.848 215.265,145.161 215.034 C 145.475 214.803,145.650 214.533,145.551 214.434 C 145.453 214.335,145.117 214.444,144.806 214.674 M141.798 218.128 C 141.450 218.512,141.233 219.026,141.314 219.269 C 141.399 219.526,141.802 219.234,142.274 218.571 C 143.160 217.326,142.814 217.005,141.798 218.128 M130.959 230.245 C 129.893 231.363,129.021 232.434,129.021 232.625 C 129.021 233.070,129.905 232.351,131.517 230.594 C 134.248 227.619,133.755 227.311,130.959 230.245 M106.148 251.024 C 104.340 252.209,103.638 252.905,103.943 253.210 C 104.027 253.293,104.412 253.067,104.799 252.706 C 105.187 252.345,106.210 251.538,107.073 250.913 C 109.151 249.407,108.493 249.486,106.148 251.024 M102.366 253.639 C 102.300 253.787,100.521 254.779,98.412 255.843 C 95.671 257.225,94.635 257.924,94.776 258.292 C 94.993 258.858,97.824 258.605,98.053 257.999 C 98.119 257.825,98.402 257.682,98.682 257.682 C 98.962 257.682,99.191 257.520,99.191 257.323 C 99.191 256.848,100.267 255.793,102.112 254.456 C 102.937 253.858,103.359 253.369,103.049 253.369 C 102.739 253.369,102.432 253.491,102.366 253.639 M379.287 254.178 C 379.325 254.425,379.482 254.829,379.636 255.076 C 379.794 255.330,379.751 255.526,379.536 255.526 C 379.327 255.526,379.155 255.682,379.155 255.874 C 379.155 256.065,379.425 256.119,379.753 255.992 C 380.156 255.838,380.266 255.901,380.092 256.183 C 379.947 256.417,380.027 256.604,380.272 256.604 C 380.515 256.604,380.613 256.703,380.492 256.825 C 380.370 256.947,380.752 257.949,381.341 259.053 C 381.930 260.156,382.317 261.310,382.200 261.617 C 382.026 262.073,382.073 262.090,382.456 261.709 C 382.841 261.328,382.812 261.049,382.298 260.153 C 381.953 259.553,381.671 258.751,381.671 258.372 C 381.671 257.992,381.522 257.682,381.340 257.682 C 381.158 257.682,380.903 257.199,380.774 256.608 C 380.644 256.017,380.388 255.442,380.206 255.329 C 380.023 255.216,379.874 254.810,379.874 254.426 C 379.874 254.043,379.727 253.729,379.547 253.729 C 379.366 253.729,379.250 253.931,379.287 254.178 M382.749 262.713 C 382.749 263.384,382.845 263.480,383.181 263.145 C 383.516 262.809,383.516 262.618,383.181 262.282 C 382.845 261.947,382.749 262.043,382.749 262.713 M384.456 266.832 C 384.552 267.334,384.784 267.745,384.973 267.745 C 385.443 267.745,385.182 266.216,384.683 266.052 C 384.429 265.968,384.345 266.256,384.456 266.832 M385.277 268.194 C 385.336 268.644,386.651 272.125,386.829 272.304 C 387.339 272.813,387.019 271.239,386.304 269.718 C 385.686 268.405,385.212 267.701,385.277 268.194 M360.119 268.733 C 360.125 268.881,360.570 269.313,361.107 269.693 L 362.084 270.383 361.213 269.423 C 360.298 268.415,360.101 268.291,360.119 268.733 M389.619 279.291 C 389.596 279.613,389.820 280.077,390.117 280.323 C 390.489 280.633,390.656 280.646,390.656 280.367 C 390.656 280.146,390.506 279.964,390.323 279.964 C 390.140 279.964,389.916 279.681,389.825 279.335 C 389.687 278.805,389.655 278.798,389.619 279.291 M391.053 282.408 C 391.012 283.305,392.027 285.541,392.336 285.233 C 392.440 285.128,392.387 284.830,392.219 284.570 C 392.051 284.310,391.729 283.531,391.502 282.839 C 391.178 281.847,391.083 281.756,391.053 282.408 M378.437 285.972 C 378.437 286.145,379.084 286.919,379.874 287.691 C 380.665 288.463,381.312 288.975,381.312 288.828 C 381.312 288.681,380.665 287.908,379.874 287.109 C 379.084 286.311,378.437 285.799,378.437 285.972 M391.459 297.544 C 392.104 298.121,392.682 298.543,392.744 298.481 C 392.927 298.298,391.012 296.496,390.634 296.496 C 390.442 296.496,390.813 296.968,391.459 297.544 M393.172 298.443 C 393.172 298.821,394.254 299.846,394.449 299.651 C 394.539 299.561,394.289 299.193,393.893 298.834 C 393.496 298.475,393.172 298.299,393.172 298.443 M397.476 301.879 C 397.927 302.271,398.449 302.496,398.636 302.381 C 398.822 302.265,398.541 301.945,398.009 301.669 C 396.675 300.977,396.510 301.042,397.476 301.879 " stroke="none" fill="#51201b" fill-rule="evenodd"></path><path id="path3" d="M269.447 23.631 C 268.041 25.098,265.466 32.930,264.749 37.916 C 264.127 42.244,263.488 47.668,263.499 48.518 C 263.503 48.814,263.318 50.593,263.088 52.471 C 262.050 60.935,261.417 93.893,262.118 102.965 C 262.225 104.349,262.414 108.141,262.537 111.393 C 262.660 114.645,262.818 117.398,262.888 117.511 C 262.957 117.624,263.125 120.624,263.261 124.177 C 263.396 127.731,263.586 130.768,263.682 130.926 C 263.778 131.084,264.002 133.268,264.181 135.778 C 264.532 140.731,264.637 141.967,265.198 147.794 C 265.402 149.917,265.471 151.909,265.352 152.221 C 265.232 152.533,265.305 153.142,265.514 153.573 C 265.724 154.005,265.983 155.085,266.090 155.975 C 266.197 156.864,266.444 158.320,266.639 159.209 C 266.835 160.099,267.002 162.808,267.010 165.229 C 267.020 167.914,267.166 169.632,267.385 169.632 C 267.583 169.632,267.745 170.271,267.745 171.052 C 267.745 171.834,267.938 172.897,268.174 173.415 C 268.494 174.117,268.500 174.522,268.200 175.003 C 267.918 175.453,267.910 175.763,268.173 176.026 C 268.386 176.238,268.632 178.840,268.738 182.002 C 268.842 185.081,269.065 187.601,269.234 187.601 C 269.403 187.601,269.542 188.319,269.542 189.197 C 269.542 190.075,269.685 190.882,269.859 190.989 C 270.034 191.097,270.295 194.261,270.440 198.019 C 270.585 201.777,270.846 204.852,271.021 204.852 C 271.196 204.852,271.339 205.984,271.339 207.367 C 271.339 208.805,271.493 209.883,271.698 209.883 C 271.896 209.883,272.058 210.126,272.058 210.422 C 272.058 210.719,271.896 210.961,271.698 210.961 C 271.184 210.961,271.253 211.951,271.780 212.127 C 272.429 212.343,272.438 250.187,271.788 250.404 C 271.257 250.581,271.175 252.291,271.698 252.291 C 271.898 252.291,272.058 253.249,272.058 254.447 C 272.058 255.645,271.898 256.604,271.698 256.604 C 271.495 256.604,271.339 257.622,271.339 258.940 C 271.339 260.225,271.493 261.276,271.681 261.276 C 271.880 261.276,272.069 263.744,272.131 267.161 C 272.208 271.444,272.126 273.002,271.829 272.888 C 271.573 272.790,271.441 273.134,271.475 273.807 C 271.543 275.170,272.058 275.740,272.058 274.453 C 272.058 273.718,272.234 273.495,272.815 273.495 C 273.298 273.495,273.505 273.322,273.388 273.016 C 273.287 272.752,273.424 272.537,273.693 272.537 C 273.962 272.537,274.087 272.712,273.971 272.926 C 273.854 273.140,274.248 272.799,274.846 272.168 C 275.443 271.537,276.019 271.107,276.125 271.213 C 276.231 271.319,276.579 270.900,276.898 270.282 C 277.218 269.664,277.633 269.254,277.822 269.371 C 278.010 269.487,278.352 269.169,278.583 268.664 C 278.813 268.158,279.157 267.745,279.347 267.745 C 279.537 267.745,280.620 266.815,281.753 265.678 C 284.464 262.959,286.450 261.276,286.949 261.276 C 287.171 261.276,287.586 260.952,287.871 260.557 C 288.156 260.162,288.505 259.838,288.647 259.838 C 288.788 259.838,289.436 259.353,290.085 258.760 C 290.734 258.167,291.472 257.682,291.724 257.682 C 291.977 257.682,292.183 257.557,292.183 257.404 C 292.183 257.252,292.790 256.808,293.531 256.420 C 294.272 256.031,295.008 255.509,295.166 255.260 C 295.324 255.011,295.688 254.807,295.975 254.807 C 296.261 254.807,296.496 254.645,296.496 254.447 C 296.496 254.250,296.739 254.088,297.035 254.088 C 297.332 254.088,297.574 253.926,297.574 253.729 C 297.574 253.531,297.804 253.369,298.084 253.369 C 298.725 253.369,300.803 252.203,300.806 251.842 C 300.808 251.694,301.051 251.572,301.348 251.572 C 301.644 251.572,301.887 251.438,301.887 251.273 C 301.887 251.108,302.089 250.966,302.336 250.958 C 302.583 250.949,303.594 250.572,304.582 250.120 C 305.571 249.668,306.500 249.325,306.649 249.357 C 306.797 249.390,306.918 249.254,306.918 249.057 C 306.918 248.859,307.201 248.695,307.547 248.692 C 308.041 248.687,308.071 248.619,307.684 248.375 C 307.352 248.164,307.132 246.999,307.005 244.786 C 306.903 242.984,306.679 241.509,306.509 241.509 C 306.339 241.509,306.199 240.148,306.199 238.485 C 306.199 236.821,306.048 235.406,305.863 235.340 C 305.678 235.274,305.412 233.401,305.273 231.177 C 305.133 228.953,304.880 227.134,304.711 227.134 C 304.541 227.134,304.403 226.487,304.403 225.696 C 304.403 224.906,304.254 224.259,304.072 224.259 C 303.890 224.259,303.627 222.642,303.487 220.665 C 303.346 218.688,303.091 217.071,302.919 217.071 C 302.746 217.071,302.606 216.357,302.606 215.484 C 302.606 214.611,302.457 213.842,302.274 213.777 C 301.947 213.658,301.296 208.631,300.934 203.414 C 300.831 201.932,300.598 200.540,300.418 200.322 C 300.237 200.104,299.999 198.164,299.889 196.010 C 299.697 192.255,299.544 191.198,298.668 187.601 C 298.452 186.712,298.123 182.588,297.938 178.437 C 297.484 168.271,297.228 164.873,296.883 164.432 C 296.723 164.228,296.471 161.635,296.322 158.670 C 295.890 150.070,295.840 149.359,295.448 146.392 C 295.244 144.843,294.972 142.201,294.844 140.521 C 294.717 138.841,294.558 136.981,294.491 136.388 C 294.424 135.795,294.275 133.935,294.161 132.255 C 294.046 130.575,293.813 128.634,293.641 127.942 C 293.350 126.771,292.964 122.395,292.704 117.341 C 292.643 116.155,292.413 113.648,292.192 111.770 C 291.971 109.892,291.653 106.819,291.484 104.942 C 291.315 103.064,291.006 100.476,290.796 99.191 C 290.383 96.658,289.245 87.462,289.129 85.714 C 288.886 82.069,287.958 75.625,286.905 70.261 C 286.595 68.679,286.283 66.739,286.212 65.948 C 286.141 65.157,285.831 63.497,285.521 62.259 C 285.212 61.021,285.040 59.877,285.139 59.717 C 285.238 59.557,285.008 58.427,284.628 57.205 C 284.248 55.984,283.861 54.212,283.768 53.268 C 283.676 52.323,283.414 51.070,283.187 50.483 C 282.959 49.896,282.628 48.527,282.451 47.439 C 282.274 46.352,281.973 44.816,281.783 44.025 C 281.593 43.235,281.278 41.860,281.084 40.970 C 278.718 30.105,272.343 20.608,269.447 23.631 M181.851 302.592 C 180.961 302.761,178.293 303.084,175.921 303.310 C 169.411 303.929,156.497 307.243,156.035 308.412 C 155.969 308.579,155.751 308.715,155.550 308.715 C 154.034 308.715,150.976 311.360,151.444 312.266 C 151.909 313.165,153.610 317.081,154.195 318.598 C 154.895 320.413,155.007 320.772,154.954 321.024 C 154.922 321.173,155.058 321.294,155.256 321.294 C 155.454 321.294,155.615 321.769,155.615 322.351 C 155.615 322.932,155.765 323.500,155.947 323.613 C 156.130 323.726,156.385 324.301,156.515 324.892 C 156.645 325.483,156.900 325.966,157.082 325.966 C 157.264 325.966,157.412 326.532,157.412 327.224 C 157.412 327.916,157.571 328.482,157.765 328.482 C 157.959 328.482,158.219 328.886,158.343 329.380 C 158.467 329.874,158.722 330.279,158.910 330.279 C 159.098 330.279,159.168 330.414,159.065 330.580 C 158.963 330.746,159.181 331.445,159.550 332.134 C 159.918 332.822,160.423 334.061,160.670 334.887 C 160.918 335.712,161.243 336.388,161.394 336.388 C 161.545 336.388,161.774 336.871,161.904 337.462 C 162.034 338.053,162.289 338.628,162.471 338.741 C 162.654 338.854,162.803 339.332,162.803 339.802 C 162.803 340.273,162.953 340.751,163.135 340.864 C 163.318 340.976,163.735 341.875,164.063 342.861 C 164.390 343.847,164.807 344.654,164.988 344.654 C 165.170 344.654,165.319 344.891,165.319 345.181 C 165.319 345.891,166.310 348.932,166.903 350.045 C 167.167 350.539,167.578 351.550,167.816 352.291 C 168.055 353.032,168.386 353.639,168.553 353.639 C 168.719 353.639,168.965 354.135,169.098 354.741 C 169.733 357.634,171.084 359.177,172.755 358.918 C 177.555 358.177,179.195 357.846,179.497 357.558 C 179.685 357.379,180.291 357.233,180.845 357.233 C 181.398 357.233,181.851 357.086,181.851 356.907 C 181.851 356.728,182.659 356.470,183.648 356.334 C 184.636 356.198,185.445 355.941,185.445 355.761 C 185.445 355.582,185.674 355.436,185.955 355.436 C 186.554 355.436,188.805 354.299,188.979 353.908 C 189.045 353.760,189.315 353.639,189.579 353.639 C 190.155 353.639,192.404 352.492,192.573 352.111 C 192.639 351.963,192.908 351.842,193.172 351.842 C 193.749 351.842,195.997 350.695,196.167 350.314 C 196.232 350.166,196.596 350.045,196.975 350.045 C 197.354 350.045,197.664 349.901,197.664 349.724 C 197.664 349.548,198.068 349.303,198.562 349.179 C 199.057 349.055,199.461 348.794,199.461 348.601 C 199.461 348.407,199.690 348.248,199.970 348.248 C 200.250 348.248,200.533 348.127,200.599 347.978 C 200.747 347.646,202.984 346.451,203.459 346.451 C 203.649 346.451,204.241 346.047,204.774 345.553 C 205.307 345.058,205.838 344.654,205.955 344.654 C 206.072 344.654,207.044 343.846,208.115 342.859 C 209.186 341.872,210.192 341.064,210.350 341.062 C 210.507 341.061,211.011 340.656,211.469 340.162 C 211.927 339.668,212.421 339.263,212.567 339.263 C 212.713 339.263,213.422 338.712,214.143 338.038 C 214.864 337.365,216.411 335.950,217.582 334.894 C 218.753 333.838,220.743 331.963,222.004 330.728 C 223.266 329.492,224.403 328.482,224.530 328.482 C 225.029 328.482,234.681 318.075,234.681 317.536 C 234.681 317.144,237.485 314.465,237.895 314.465 C 238.127 314.465,238.224 314.315,238.111 314.131 C 237.997 313.947,238.046 313.708,238.221 313.600 C 238.850 313.212,238.217 311.654,237.340 311.434 C 236.866 311.315,236.478 310.954,236.478 310.631 C 236.478 310.309,235.669 309.270,234.681 308.322 C 233.693 307.375,232.884 306.278,232.884 305.886 C 232.884 305.152,232.008 304.043,231.428 304.043 C 231.248 304.043,230.996 303.626,230.868 303.117 C 230.651 302.249,230.533 302.204,228.975 302.394 C 226.562 302.689,215.779 302.723,198.562 302.490 C 190.261 302.377,182.740 302.423,181.851 302.592 " stroke="none" fill="#fa8904" fill-rule="evenodd"></path><path id="path4" d="M275.959 13.829 C 275.864 13.923,274.667 14.063,273.300 14.140 L 270.812 14.279 268.966 16.310 C 267.267 18.180,264.870 23.312,264.870 25.079 C 264.870 25.325,264.713 25.807,264.521 26.150 C 263.719 27.585,261.469 37.033,260.735 42.049 C 260.139 46.123,259.436 50.274,258.194 57.054 C 257.877 58.783,257.473 61.006,257.294 61.995 C 256.846 64.483,255.860 71.038,255.672 72.776 C 255.165 77.487,254.678 80.946,254.255 82.839 C 253.991 84.025,253.674 85.885,253.551 86.972 C 253.279 89.385,253.178 90.101,252.692 93.082 C 252.482 94.367,252.224 96.146,252.118 97.035 C 252.013 97.925,251.759 99.784,251.555 101.168 C 251.350 102.552,251.034 105.058,250.851 106.739 C 250.668 108.419,250.417 110.198,250.293 110.692 C 250.019 111.777,249.123 117.796,248.704 121.362 C 248.537 122.783,248.308 124.238,248.195 124.596 C 247.865 125.645,246.962 131.158,246.706 133.693 C 246.576 134.978,246.238 137.323,245.954 138.904 C 245.671 140.485,245.218 143.744,244.948 146.146 C 244.678 148.548,244.290 151.055,244.087 151.717 C 243.884 152.379,243.531 154.214,243.304 155.795 C 243.077 157.376,242.593 159.802,242.229 161.186 C 241.864 162.570,241.406 164.672,241.210 165.858 C 241.013 167.044,240.500 169.793,240.068 171.968 C 239.362 175.530,238.895 177.622,237.382 184.007 C 237.124 185.094,236.655 187.197,236.339 188.679 C 236.023 190.162,235.513 192.264,235.206 193.351 C 234.898 194.438,234.396 196.217,234.089 197.305 C 233.782 198.392,233.406 199.529,233.253 199.832 C 233.101 200.135,232.861 200.944,232.721 201.629 C 232.408 203.157,231.740 205.266,231.415 205.750 C 231.282 205.948,230.897 207.080,230.557 208.266 C 230.218 209.452,229.817 210.584,229.665 210.782 C 229.513 210.979,229.108 212.111,228.765 213.297 C 228.421 214.483,228.012 215.777,227.855 216.173 C 227.698 216.568,227.296 217.659,226.962 218.598 C 226.629 219.537,226.207 220.305,226.026 220.305 C 225.845 220.305,225.696 220.712,225.696 221.209 C 225.696 221.706,225.542 222.393,225.354 222.736 C 225.166 223.079,224.748 224.007,224.426 224.798 C 224.103 225.588,223.690 226.478,223.508 226.774 C 223.325 227.071,223.079 227.556,222.960 227.853 C 222.841 228.149,222.519 228.901,222.244 229.524 C 221.968 230.147,221.743 230.841,221.743 231.067 C 221.743 231.292,221.420 231.824,221.024 232.248 C 220.629 232.672,220.305 233.300,220.305 233.643 C 220.305 233.986,219.926 234.724,219.462 235.282 C 218.998 235.841,218.364 236.783,218.054 237.376 C 217.743 237.969,217.215 238.980,216.880 239.623 C 216.545 240.265,216.127 240.791,215.952 240.791 C 215.777 240.791,215.633 241.044,215.633 241.354 C 215.633 241.663,215.069 242.512,214.379 243.241 C 213.689 243.969,213.123 244.735,213.121 244.944 C 213.119 245.153,212.685 245.847,212.156 246.485 C 211.626 247.124,211.020 247.931,210.808 248.279 C 209.349 250.672,208.933 251.209,208.535 251.211 C 208.288 251.212,208.086 251.415,208.085 251.662 C 208.084 251.909,207.568 252.677,206.939 253.369 C 206.311 254.061,204.977 255.523,203.976 256.617 C 202.975 257.712,201.918 258.965,201.628 259.402 C 201.337 259.840,200.889 260.198,200.632 260.198 C 200.375 260.198,199.980 260.602,199.755 261.096 C 199.530 261.590,199.161 261.995,198.934 261.995 C 198.708 261.995,197.403 263.046,196.033 264.331 C 194.663 265.615,193.378 266.668,193.177 266.670 C 192.977 266.671,192.217 267.238,191.489 267.928 C 190.760 268.618,190.033 269.185,189.871 269.189 C 189.710 269.193,188.933 269.759,188.144 270.447 C 187.356 271.135,186.532 271.698,186.313 271.698 C 186.094 271.698,185.623 272.022,185.265 272.417 C 184.907 272.812,184.409 273.136,184.159 273.136 C 183.908 273.136,183.246 273.510,182.687 273.967 C 182.128 274.425,181.072 275.075,180.341 275.413 C 179.609 275.752,178.558 276.392,178.005 276.837 C 177.452 277.282,176.514 277.883,175.921 278.173 C 175.328 278.462,174.034 279.196,173.046 279.802 C 172.058 280.408,169.793 281.600,168.014 282.450 C 166.235 283.299,164.537 284.203,164.241 284.459 C 163.944 284.715,160.927 286.315,157.537 288.016 C 152.202 290.691,145.214 295.090,144.390 296.291 C 144.062 296.768,144.029 297.420,144.349 297.100 C 144.631 296.819,145.548 298.494,145.565 299.322 C 145.571 299.646,145.881 300.554,146.253 301.341 C 146.625 302.128,146.838 302.921,146.725 303.104 C 146.612 303.286,146.706 303.320,146.935 303.179 C 147.190 303.021,147.350 303.174,147.350 303.578 C 147.350 303.939,147.664 304.820,148.048 305.536 C 148.432 306.253,148.648 306.938,148.527 307.058 C 148.406 307.179,148.465 307.278,148.658 307.278 C 148.965 307.278,150.364 309.933,150.393 310.572 C 150.429 311.344,151.171 311.193,153.059 310.027 C 154.228 309.306,155.349 308.715,155.550 308.715 C 155.751 308.715,155.969 308.581,156.035 308.417 C 156.442 307.402,169.363 303.907,174.124 303.524 C 175.705 303.397,178.778 303.038,180.952 302.726 C 184.308 302.245,187.078 302.201,199.281 302.429 C 214.995 302.724,226.384 302.711,228.975 302.394 C 230.533 302.204,230.651 302.249,230.868 303.117 C 230.996 303.626,231.248 304.043,231.428 304.043 C 232.008 304.043,232.884 305.152,232.884 305.886 C 232.884 306.278,233.693 307.375,234.681 308.322 C 235.669 309.270,236.478 310.309,236.478 310.631 C 236.478 310.962,236.883 311.319,237.409 311.451 C 238.138 311.634,238.307 311.861,238.186 312.496 C 238.089 313.004,238.197 313.282,238.476 313.241 C 239.192 313.136,240.072 312.268,240.072 311.666 C 240.072 311.361,240.166 311.206,240.282 311.321 C 240.547 311.586,241.866 310.479,241.877 309.983 C 241.881 309.780,242.447 309.130,243.134 308.539 C 243.822 307.948,244.385 307.317,244.385 307.137 C 244.385 306.958,245.193 306.035,246.181 305.088 C 247.170 304.140,247.978 303.211,247.978 303.022 C 247.978 302.834,248.553 302.176,249.254 301.560 C 249.956 300.943,250.429 300.276,250.306 300.076 C 250.182 299.876,250.270 299.757,250.501 299.811 C 250.732 299.866,251.108 299.597,251.336 299.215 C 251.565 298.832,252.116 298.167,252.561 297.736 C 253.005 297.305,253.369 296.849,253.369 296.723 C 253.369 296.481,256.217 293.362,258.491 291.112 C 259.232 290.379,259.838 289.628,259.838 289.443 C 259.838 289.259,260.162 288.874,260.557 288.589 C 260.952 288.304,261.276 287.864,261.276 287.612 C 261.276 287.359,261.518 287.152,261.815 287.152 C 262.111 287.152,262.354 286.880,262.354 286.548 C 262.354 286.217,262.896 285.448,263.559 284.841 C 264.222 284.234,264.872 283.398,265.004 282.983 C 265.135 282.569,265.644 282.047,266.134 281.823 C 266.625 281.600,267.026 281.171,267.026 280.870 C 267.026 280.570,267.197 280.323,267.407 280.323 C 267.616 280.323,267.672 280.137,267.531 279.909 C 267.386 279.674,267.431 279.590,267.635 279.717 C 268.073 279.987,269.583 278.339,269.243 277.961 C 269.111 277.813,269.180 277.794,269.398 277.918 C 269.865 278.184,271.390 276.554,271.040 276.164 C 270.908 276.016,270.966 275.990,271.169 276.105 C 271.714 276.413,274.347 273.641,274.016 273.106 C 273.836 272.816,273.893 272.757,274.181 272.936 C 274.694 273.253,276.011 272.179,276.011 271.444 C 276.011 271.122,275.721 271.252,275.202 271.807 C 274.757 272.283,274.122 272.631,273.789 272.580 C 273.400 272.520,273.254 272.666,273.379 272.991 C 273.507 273.325,273.316 273.495,272.815 273.495 C 272.234 273.495,272.058 273.718,272.058 274.453 C 272.058 275.740,271.543 275.170,271.475 273.807 C 271.441 273.134,271.573 272.790,271.829 272.888 C 272.126 273.002,272.208 271.444,272.131 267.161 C 272.069 263.744,271.880 261.276,271.681 261.276 C 271.493 261.276,271.339 260.225,271.339 258.940 C 271.339 257.622,271.495 256.604,271.698 256.604 C 271.898 256.604,272.058 255.645,272.058 254.447 C 272.058 253.249,271.898 252.291,271.698 252.291 C 271.175 252.291,271.257 250.581,271.788 250.404 C 272.438 250.187,272.429 212.343,271.780 212.127 C 271.253 211.951,271.184 210.961,271.698 210.961 C 271.896 210.961,272.058 210.719,272.058 210.422 C 272.058 210.126,271.896 209.883,271.698 209.883 C 271.493 209.883,271.339 208.805,271.339 207.367 C 271.339 205.984,271.196 204.852,271.021 204.852 C 270.846 204.852,270.585 201.777,270.440 198.019 C 270.295 194.261,270.034 191.097,269.859 190.989 C 269.685 190.882,269.542 190.075,269.542 189.197 C 269.542 188.319,269.403 187.601,269.234 187.601 C 269.065 187.601,268.842 185.081,268.738 182.002 C 268.632 178.840,268.386 176.238,268.173 176.026 C 267.910 175.763,267.918 175.453,268.200 175.003 C 268.500 174.522,268.494 174.117,268.174 173.415 C 267.938 172.897,267.745 171.834,267.745 171.052 C 267.745 170.271,267.583 169.632,267.385 169.632 C 267.166 169.632,267.020 167.914,267.010 165.229 C 267.002 162.808,266.835 160.099,266.639 159.209 C 266.444 158.320,266.197 156.864,266.090 155.975 C 265.983 155.085,265.724 154.005,265.514 153.573 C 265.305 153.142,265.232 152.533,265.352 152.221 C 265.471 151.909,265.402 149.917,265.198 147.794 C 264.637 141.967,264.532 140.731,264.181 135.778 C 264.002 133.268,263.778 131.084,263.682 130.926 C 263.586 130.768,263.396 127.731,263.261 124.177 C 263.125 120.624,262.957 117.624,262.888 117.511 C 262.818 117.398,262.660 114.645,262.537 111.393 C 262.414 108.141,262.225 104.349,262.118 102.965 C 261.417 93.893,262.050 60.935,263.088 52.471 C 263.318 50.593,263.503 48.814,263.499 48.518 C 263.364 38.394,268.336 22.091,271.333 22.828 C 274.212 23.536,279.383 33.157,281.084 40.970 C 281.278 41.860,281.593 43.235,281.783 44.025 C 281.973 44.816,282.274 46.352,282.451 47.439 C 282.628 48.527,282.959 49.896,283.187 50.483 C 283.414 51.070,283.676 52.323,283.768 53.268 C 283.861 54.212,284.248 55.984,284.628 57.205 C 285.008 58.427,285.238 59.557,285.139 59.717 C 285.040 59.877,285.212 61.021,285.521 62.259 C 285.831 63.497,286.141 65.157,286.212 65.948 C 286.283 66.739,286.595 68.679,286.905 70.261 C 287.958 75.625,288.886 82.069,289.129 85.714 C 289.245 87.462,290.383 96.658,290.796 99.191 C 291.006 100.476,291.315 103.064,291.484 104.942 C 291.653 106.819,291.971 109.892,292.192 111.770 C 292.413 113.648,292.643 116.155,292.704 117.341 C 292.964 122.395,293.350 126.771,293.641 127.942 C 293.813 128.634,294.046 130.575,294.161 132.255 C 294.275 133.935,294.424 135.795,294.491 136.388 C 294.558 136.981,294.717 138.841,294.844 140.521 C 294.972 142.201,295.244 144.843,295.448 146.392 C 295.840 149.359,295.890 150.070,296.322 158.670 C 296.471 161.635,296.723 164.228,296.883 164.432 C 297.228 164.873,297.484 168.271,297.938 178.437 C 298.123 182.588,298.429 186.631,298.618 187.421 C 299.544 191.298,299.703 192.376,299.889 196.010 C 299.999 198.164,300.237 200.104,300.418 200.322 C 300.598 200.540,300.831 201.932,300.934 203.414 C 301.296 208.631,301.947 213.658,302.274 213.777 C 302.457 213.842,302.606 214.611,302.606 215.484 C 302.606 216.357,302.746 217.071,302.919 217.071 C 303.091 217.071,303.346 218.688,303.487 220.665 C 303.627 222.642,303.890 224.259,304.072 224.259 C 304.254 224.259,304.403 224.906,304.403 225.696 C 304.403 226.487,304.541 227.134,304.711 227.134 C 304.880 227.134,305.133 228.953,305.273 231.177 C 305.412 233.401,305.678 235.274,305.863 235.340 C 306.048 235.406,306.199 236.821,306.199 238.485 C 306.199 240.148,306.339 241.509,306.509 241.509 C 306.679 241.509,306.903 242.984,307.005 244.786 C 307.132 246.999,307.352 248.164,307.684 248.375 C 308.071 248.619,308.041 248.687,307.547 248.692 C 307.201 248.695,306.918 248.859,306.918 249.057 C 306.918 249.580,307.483 249.496,307.979 248.898 C 308.215 248.614,308.641 248.470,308.926 248.579 C 309.210 248.688,309.648 248.608,309.898 248.400 C 310.300 248.067,315.657 247.358,316.352 247.546 C 316.500 247.586,316.622 247.457,316.622 247.260 C 316.622 247.062,317.269 246.900,318.059 246.900 C 318.850 246.900,319.497 247.052,319.497 247.237 C 319.497 247.423,320.265 247.529,321.204 247.474 C 323.299 247.351,328.482 248.018,328.482 248.411 C 328.482 248.568,328.795 248.697,329.179 248.697 C 329.563 248.697,329.964 248.838,330.070 249.009 C 330.176 249.181,330.913 249.426,331.708 249.553 C 332.503 249.680,333.154 249.944,333.154 250.139 C 333.154 250.334,333.468 250.494,333.851 250.494 C 334.235 250.494,334.649 250.656,334.771 250.854 C 334.893 251.051,335.357 251.213,335.802 251.213 C 336.246 251.213,336.924 251.450,337.308 251.741 C 337.691 252.031,338.215 252.273,338.470 252.280 C 338.726 252.286,339.371 252.695,339.904 253.190 C 340.437 253.684,341.069 254.088,341.308 254.088 C 341.547 254.088,341.873 254.314,342.031 254.590 C 342.189 254.866,342.965 255.462,343.756 255.915 C 345.262 256.777,347.814 258.610,348.428 259.272 C 348.625 259.484,349.226 259.885,349.763 260.162 C 350.300 260.439,350.654 260.803,350.551 260.971 C 350.447 261.138,350.585 261.276,350.857 261.276 C 351.306 261.276,352.449 262.157,354.588 264.152 C 355.011 264.547,355.537 264.870,355.756 264.870 C 355.975 264.870,356.155 265.035,356.155 265.238 C 356.155 265.441,356.569 265.764,357.075 265.956 C 357.581 266.149,357.909 266.444,357.805 266.613 C 357.700 266.783,358.014 267.103,358.502 267.325 C 358.990 267.548,359.389 267.895,359.389 268.097 C 359.389 268.298,359.607 268.464,359.872 268.464 C 360.454 268.464,361.622 269.680,361.366 270.020 C 361.267 270.152,361.281 270.193,361.396 270.110 C 361.724 269.876,363.341 271.409,363.129 271.752 C 363.025 271.920,363.168 272.058,363.445 272.058 C 364.075 272.058,365.226 273.288,364.900 273.614 C 364.768 273.746,364.894 273.854,365.179 273.854 C 365.782 273.854,366.978 275.130,366.667 275.441 C 366.552 275.557,366.658 275.651,366.904 275.651 C 367.423 275.651,370.171 278.415,370.171 278.936 C 370.171 279.130,370.322 279.194,370.506 279.080 C 370.690 278.966,371.130 279.361,371.482 279.958 C 371.834 280.554,372.311 281.042,372.540 281.042 C 372.770 281.042,374.094 282.093,375.481 283.378 C 376.869 284.663,378.125 285.714,378.271 285.714 C 378.632 285.714,382.031 289.336,382.031 289.721 C 382.031 289.889,382.265 290.027,382.552 290.027 C 382.838 290.027,383.238 290.310,383.439 290.656 C 383.641 291.002,383.811 291.132,383.817 290.945 C 383.823 290.759,384.238 291.163,384.741 291.844 C 385.243 292.525,385.728 293.001,385.818 292.902 C 385.908 292.803,386.453 293.167,387.028 293.711 C 387.604 294.254,388.248 294.699,388.459 294.699 C 388.670 294.699,389.107 295.103,389.431 295.597 C 389.755 296.092,390.242 296.496,390.514 296.496 C 390.786 296.496,391.511 297.022,392.125 297.664 C 392.739 298.306,393.295 298.751,393.359 298.652 C 393.424 298.553,394.026 298.958,394.696 299.551 C 395.365 300.144,396.576 300.951,397.385 301.344 C 398.195 301.738,398.781 302.183,398.689 302.333 C 398.596 302.483,398.674 302.606,398.862 302.606 C 399.343 302.606,399.734 301.449,399.339 301.197 C 399.053 301.014,398.505 299.159,398.510 298.389 C 398.510 298.237,398.250 297.824,397.930 297.471 C 397.610 297.118,397.324 296.497,397.295 296.090 C 397.265 295.684,397.055 295.238,396.830 295.098 C 396.604 294.959,396.489 294.484,396.574 294.043 C 396.660 293.596,396.578 293.335,396.387 293.453 C 396.200 293.569,396.047 293.313,396.047 292.885 C 396.047 292.457,395.642 291.627,395.148 291.040 C 394.654 290.452,394.250 289.668,394.250 289.297 C 394.250 288.925,393.844 288.023,393.347 287.292 C 392.851 286.560,392.514 285.893,392.599 285.808 C 392.683 285.724,392.446 285.349,392.073 284.975 C 391.699 284.601,391.294 283.846,391.174 283.298 C 391.054 282.749,390.908 282.138,390.851 281.941 C 390.794 281.743,390.767 281.477,390.791 281.350 C 390.816 281.222,390.553 280.806,390.208 280.424 C 389.863 280.043,389.544 279.298,389.501 278.769 C 389.457 278.240,389.294 277.808,389.140 277.808 C 388.985 277.808,388.859 277.517,388.859 277.161 C 388.859 276.805,388.657 276.296,388.410 276.030 C 388.045 275.637,388.062 275.595,388.500 275.805 C 388.979 276.035,388.979 276.011,388.500 275.588 C 388.203 275.326,387.904 274.792,387.836 274.400 C 387.767 274.008,387.434 273.280,387.095 272.783 C 386.322 271.648,385.583 269.180,385.875 268.708 C 385.998 268.509,385.912 268.465,385.680 268.609 C 385.438 268.759,385.265 268.644,385.265 268.335 C 385.265 268.043,385.105 267.751,384.909 267.685 C 384.713 267.619,384.516 267.120,384.471 266.577 C 384.426 266.033,384.268 265.588,384.120 265.588 C 383.971 265.588,383.943 265.346,384.057 265.049 C 384.171 264.753,384.085 264.510,383.866 264.510 C 383.647 264.510,383.468 264.177,383.468 263.770 C 383.468 263.363,383.306 263.130,383.109 263.252 C 382.904 263.379,382.749 263.069,382.749 262.534 C 382.749 262.005,382.594 261.689,382.394 261.812 C 382.199 261.933,382.123 261.813,382.225 261.546 C 382.328 261.278,381.930 260.156,381.341 259.053 C 380.752 257.949,380.370 256.947,380.492 256.825 C 380.613 256.703,380.515 256.604,380.272 256.604 C 380.027 256.604,379.947 256.417,380.092 256.183 C 380.266 255.901,380.156 255.838,379.753 255.992 C 379.425 256.119,379.155 256.065,379.155 255.874 C 379.155 255.682,379.337 255.526,379.559 255.526 C 379.832 255.526,379.847 255.381,379.605 255.076 C 379.409 254.829,379.294 254.343,379.350 253.996 C 379.406 253.650,379.302 253.459,379.118 253.572 C 378.934 253.686,378.890 253.950,379.020 254.160 C 379.156 254.380,379.045 254.467,378.756 254.367 C 378.482 254.271,378.308 253.911,378.371 253.565 C 378.447 253.147,378.338 253.028,378.046 253.209 C 377.757 253.387,377.699 253.331,377.877 253.043 C 378.026 252.802,377.907 252.332,377.613 251.999 C 377.320 251.665,376.967 250.867,376.831 250.225 C 376.694 249.582,376.434 249.057,376.252 249.057 C 376.070 249.057,375.921 248.907,375.921 248.723 C 375.921 248.540,375.355 247.165,374.663 245.667 C 373.971 244.169,373.405 242.741,373.405 242.493 C 373.405 242.246,372.997 241.276,372.498 240.339 C 371.999 239.401,371.701 238.634,371.835 238.634 C 371.969 238.634,371.804 238.330,371.467 237.958 C 370.982 237.422,370.187 235.441,370.009 234.322 C 369.993 234.223,369.852 233.940,369.695 233.693 C 369.538 233.446,369.509 233.243,369.631 233.243 C 369.752 233.243,369.618 232.799,369.333 232.255 C 368.643 230.942,367.917 229.223,367.803 228.637 C 367.753 228.376,367.150 226.980,366.463 225.534 C 365.777 224.089,365.098 222.361,364.955 221.696 C 364.812 221.030,364.379 219.838,363.992 219.048 C 363.605 218.257,363.214 217.232,363.123 216.771 C 363.032 216.309,362.654 215.258,362.283 214.435 C 361.525 212.753,360.662 210.248,360.653 209.704 C 360.650 209.506,360.557 209.263,360.448 209.164 C 360.067 208.821,357.592 202.272,357.592 201.609 C 357.592 201.241,357.430 200.841,357.233 200.719 C 357.035 200.597,356.873 200.196,356.873 199.828 C 356.873 199.461,356.646 198.702,356.367 198.142 C 355.529 196.456,355.149 195.432,354.526 193.172 C 354.198 191.986,353.809 190.854,353.660 190.656 C 353.511 190.458,353.116 189.407,352.781 188.320 C 352.447 187.233,352.030 186.020,351.854 185.624 C 351.678 185.229,351.210 183.935,350.815 182.749 C 350.420 181.563,349.840 179.987,349.527 179.245 C 349.213 178.504,349.044 177.898,349.151 177.898 C 349.257 177.898,349.086 177.397,348.770 176.786 C 348.454 176.175,348.286 175.583,348.398 175.471 C 348.510 175.360,348.458 175.092,348.284 174.876 C 348.109 174.660,347.635 173.432,347.230 172.147 C 346.825 170.863,345.914 168.119,345.205 166.051 C 344.497 163.984,344.010 162.048,344.125 161.750 C 344.239 161.452,344.219 161.322,344.080 161.461 C 343.773 161.767,342.857 160.093,342.857 159.228 C 342.857 158.888,342.736 158.489,342.588 158.341 C 342.439 158.193,342.307 157.963,342.293 157.832 C 342.279 157.700,342.060 156.864,341.806 155.975 C 341.552 155.085,341.364 154.315,341.389 154.264 C 341.414 154.212,341.188 153.695,340.888 153.114 C 340.587 152.533,340.340 151.766,340.339 151.410 C 340.338 151.055,340.086 150.282,339.779 149.694 C 339.473 149.106,339.297 148.338,339.389 147.987 C 339.481 147.636,339.426 147.428,339.268 147.526 C 339.110 147.624,338.870 147.263,338.735 146.724 C 338.599 146.185,338.120 144.932,337.670 143.941 C 336.908 142.263,336.189 139.613,336.328 138.994 C 336.361 138.845,336.226 138.724,336.029 138.724 C 335.831 138.724,335.669 138.318,335.669 137.821 C 335.669 137.324,335.521 136.637,335.341 136.293 C 334.887 135.431,333.513 131.992,333.513 131.718 C 333.513 131.595,333.715 131.596,333.962 131.722 C 334.209 131.847,334.146 131.730,333.821 131.462 C 333.207 130.955,332.340 128.388,332.626 127.924 C 332.716 127.778,332.569 127.574,332.298 127.470 C 332.028 127.366,331.691 126.662,331.550 125.905 C 331.408 125.148,331.164 124.367,331.006 124.169 C 330.591 123.648,328.122 115.768,328.122 114.965 C 328.122 114.591,327.960 114.286,327.763 114.286 C 327.565 114.286,327.403 113.972,327.403 113.588 C 327.403 113.204,327.263 112.804,327.091 112.698 C 326.920 112.592,326.652 111.814,326.497 110.969 C 326.209 109.394,326.122 109.028,325.966 108.715 C 325.916 108.616,325.856 108.382,325.831 108.194 C 325.806 108.006,325.597 107.663,325.365 107.431 C 325.133 107.200,325.023 106.804,325.120 106.551 C 325.217 106.299,325.123 105.986,324.912 105.855 C 324.701 105.725,324.528 105.232,324.528 104.760 C 324.528 104.288,324.124 103.141,323.630 102.212 C 323.136 101.282,322.731 100.174,322.731 99.749 C 322.731 99.324,322.583 98.822,322.402 98.634 C 322.220 98.447,321.998 97.804,321.907 97.206 C 321.816 96.608,321.398 95.478,320.979 94.696 C 320.559 93.913,320.216 92.906,320.216 92.458 C 320.216 92.010,320.059 91.644,319.868 91.644 C 319.676 91.644,319.613 91.402,319.726 91.105 C 319.840 90.809,319.754 90.566,319.535 90.566 C 319.316 90.566,319.137 90.235,319.137 89.829 C 319.137 89.424,318.861 88.575,318.524 87.943 C 318.186 87.310,317.889 86.712,317.865 86.613 C 317.840 86.514,317.621 85.953,317.379 85.366 C 317.137 84.778,317.014 84.010,317.106 83.658 C 317.198 83.305,317.035 82.884,316.744 82.721 C 316.453 82.558,316.084 81.871,315.924 81.194 C 315.763 80.518,315.572 79.722,315.498 79.426 C 315.424 79.130,315.184 78.726,314.965 78.528 C 314.746 78.329,314.353 77.358,314.091 76.370 C 313.830 75.382,313.319 74.037,312.956 73.382 C 312.593 72.727,312.389 72.040,312.503 71.855 C 312.617 71.670,312.540 71.518,312.330 71.518 C 312.121 71.518,311.950 71.350,311.950 71.144 C 311.950 70.938,311.490 69.766,310.928 68.538 C 310.367 67.311,309.532 65.256,309.073 63.971 C 308.614 62.686,308.105 61.459,307.941 61.243 C 307.777 61.027,307.742 60.752,307.863 60.631 C 307.983 60.510,307.820 60.150,307.500 59.830 C 307.180 59.510,306.918 59.022,306.918 58.745 C 306.918 58.469,306.595 57.667,306.199 56.963 C 305.804 56.259,305.479 55.486,305.476 55.245 C 305.474 55.004,304.980 53.837,304.379 52.652 C 303.778 51.467,303.361 50.214,303.452 49.867 C 303.542 49.519,303.487 49.315,303.328 49.413 C 303.082 49.566,302.462 48.541,302.611 48.229 C 302.640 48.169,302.404 47.724,302.087 47.241 C 301.770 46.757,301.607 46.361,301.724 46.361 C 301.842 46.361,301.672 46.095,301.347 45.770 C 300.869 45.292,300.847 45.121,301.231 44.877 C 301.493 44.711,301.545 44.572,301.348 44.569 C 300.954 44.562,299.137 41.836,298.949 40.970 C 298.885 40.674,298.736 40.350,298.619 40.252 C 298.502 40.153,297.797 38.859,297.053 37.376 C 295.410 34.103,293.438 30.498,293.022 30.009 C 292.441 29.325,291.453 27.680,291.494 27.463 C 291.516 27.344,291.138 26.817,290.654 26.292 C 290.170 25.767,289.143 24.369,288.373 23.186 C 284.687 17.527,277.601 12.186,275.959 13.829 M290.746 258.221 C 290.496 258.522,290.457 258.760,290.658 258.760 C 290.855 258.760,291.218 258.518,291.465 258.221 C 291.714 257.920,291.753 257.682,291.553 257.682 C 291.355 257.682,290.992 257.925,290.746 258.221 M283.064 264.310 C 282.348 265.006,281.762 265.700,281.763 265.852 C 281.764 266.003,282.242 265.618,282.827 264.994 C 283.411 264.371,284.097 263.787,284.352 263.696 C 284.607 263.605,284.715 263.421,284.592 263.287 C 284.469 263.154,283.781 263.614,283.064 264.310 M280.846 266.433 C 280.028 267.333,279.916 267.876,280.703 267.126 C 281.164 266.687,281.470 266.258,281.382 266.174 C 281.294 266.089,281.053 266.206,280.846 266.433 M278.554 268.726 C 278.108 269.705,278.109 269.706,278.856 269.030 C 279.628 268.331,279.832 267.745,279.303 267.745 C 279.137 267.745,278.800 268.186,278.554 268.726 M276.929 270.261 L 276.294 271.518 277.093 270.747 C 277.533 270.323,277.819 269.757,277.728 269.489 C 277.629 269.196,277.312 269.501,276.929 270.261 M150.943 311.812 C 150.943 312.010,151.181 312.486,151.471 312.869 C 151.761 313.253,151.999 313.405,151.999 313.208 C 151.999 313.010,151.761 312.534,151.471 312.151 C 151.181 311.767,150.943 311.615,150.943 311.812 M236.002 315.949 C 234.089 317.981,234.606 318.115,236.614 316.108 C 237.517 315.205,238.058 314.471,237.816 314.478 C 237.574 314.484,236.758 315.146,236.002 315.949 M233.668 318.958 C 233.443 319.452,233.318 319.856,233.390 319.856 C 233.461 319.856,233.785 319.452,234.109 318.958 C 234.433 318.464,234.558 318.059,234.388 318.059 C 234.217 318.059,233.893 318.464,233.668 318.958 " stroke="none" fill="#e76a04" fill-rule="evenodd"></path></g></svg>